<?xml version="1.0" encoding="utf-8"?>
<!-- Generator: Adobe Illustrator 16.0.0, SVG Export Plug-In . SVG Version: 6.00 Build 0)  -->
<!DOCTYPE svg PUBLIC "-//W3C//DTD SVG 1.1//EN" "http://www.w3.org/Graphics/SVG/1.1/DTD/svg11.dtd">
<svg version="1.1" id="Layer_1" xmlns="http://www.w3.org/2000/svg" xmlns:xlink="http://www.w3.org/1999/xlink" x="0px" y="0px"
	 width="700px" height="700px" viewBox="0 0 700 700" enable-background="new 0 0 700 700" xml:space="preserve">
<g>
	<g>
		<rect x="-56.9" y="-235" fill-rule="evenodd" clip-rule="evenodd" fill="#4C3F35" width="827.9" height="610"/>
	</g>
	<g>
		<rect x="-58" y="270.5" fill-rule="evenodd" clip-rule="evenodd" fill="#271E14" width="830.2" height="444.8"/>
	</g>
	<g>
		<linearGradient id="SVGID_1_" gradientUnits="userSpaceOnUse" x1="354.9463" y1="623.0449" x2="357.1382" y2="-5.6052">
			<stop  offset="0" style="stop-color:#000000"/>
			<stop  offset="1" style="stop-color:#010101;stop-opacity:0"/>
		</linearGradient>
		<rect x="-57.1" y="-9.8" fill-rule="evenodd" clip-rule="evenodd" fill="url(#SVGID_1_)" width="827.2" height="388.7"/>
	</g>
	<g>
		<linearGradient id="SVGID_2_" gradientUnits="userSpaceOnUse" x1="357.6973" y1="284.8896" x2="358.172" y2="150.2395">
			<stop  offset="0" style="stop-color:#000000"/>
			<stop  offset="1" style="stop-color:#010101;stop-opacity:0"/>
		</linearGradient>
		<rect x="-56" y="-9.8" fill-rule="evenodd" clip-rule="evenodd" fill="url(#SVGID_2_)" width="828.2" height="388.7"/>
	</g>
	<g>
		<g>
			<path fill-rule="evenodd" clip-rule="evenodd" fill="#53412B" d="M693.9,493.1c0,0.6-0.2,1.1-0.7,1.6c-0.5,0.4-1,0.6-1.8,0.6H689
				H359.5h-2.5c-0.7,0-1.2-0.2-1.7-0.6c-0.5-0.5-0.7-1-0.7-1.6V493c0-0.7,0.2-1.3,0.7-1.7c0.5-0.5,1-0.8,1.7-0.8h334.4
				c0.7,0,1.3,0.3,1.8,0.8c0.5,0.4,0.7,1,0.7,1.7V493.1z M308.5,495.3H-18.7h-2.4c-0.7,0-1.3-0.2-1.7-0.6c-0.5-0.5-0.7-1-0.8-1.6
				V493c0-0.7,0.3-1.3,0.8-1.7c0.4-0.5,1-0.8,1.7-0.8h334.4c0.1,0,0.2,0,0.3,0c0.2,0,0.4,0.1,0.5,0.2c0.2,0.1,0.4,0.2,0.6,0.3
				l0.2,0.2c0.5,0.4,0.7,1,0.7,1.7v0.1c0,0.6-0.2,1.1-0.7,1.6c-0.5,0.4-1.1,0.6-1.8,0.6h-2.5H308.5z"/>
			<path fill-rule="evenodd" clip-rule="evenodd" fill="#3E2F20" d="M359.5,495.3v172.1H689V495.3h2.5c0.7,0,1.3-0.2,1.8-0.6
				c0.5-0.5,0.7-1,0.7-1.6v176.8c0,0.7-0.2,1.3-0.7,1.8c-0.5,0.4-1,0.6-1.8,0.6H357.1c-0.7,0-1.2-0.2-1.7-0.6
				c-0.5-0.5-0.7-1.1-0.7-1.8V493.1c0,0.6,0.2,1.1,0.7,1.6c0.5,0.4,1,0.6,1.7,0.6H359.5z M-23.6,493.1c0,0.6,0.3,1.1,0.8,1.6
				c0.4,0.4,1,0.6,1.7,0.6h2.4V665v2.4h329.5V495.3h2.5c0.7,0,1.3-0.2,1.8-0.6c0.5-0.5,0.7-1,0.7-1.6v176.8c0,0.7-0.2,1.3-0.7,1.8
				c-0.5,0.4-1.1,0.6-1.8,0.6H-21.1c-0.7,0-1.3-0.2-1.7-0.6c-0.5-0.5-0.8-1.1-0.8-1.8V493.1z M313.6,490.5c-0.1,0-0.2,0-0.3,0
				c0.1,0,0.1,0,0.2,0C313.5,490.5,313.6,490.5,313.6,490.5z"/>
			<path fill-rule="evenodd" clip-rule="evenodd" fill="#16100C" d="M313.5,490.5c-0.1,0-0.1,0-0.2,0H-21.1c-0.7,0-1.3,0.3-1.7,0.8
				c-0.5,0.4-0.8,1-0.8,1.7v0.1v176.8c-0.6,0-1-0.3-1.4-0.6c-0.5-0.5-0.8-1.1-0.8-1.8V490.5c0-0.7,0.3-1.3,0.8-1.7
				c0.4-0.5,1-0.8,1.7-0.8H311c0.7,0,1.3,0.3,1.8,0.8C313.2,489.2,313.5,489.8,313.5,490.5z M-18.7,665h327.3V495.3h2.2v172.1H-18.7
				V665z"/>
		</g>
	</g>
	<g>
		<path fill-rule="evenodd" clip-rule="evenodd" fill="#16100C" d="M686.8,665V493H357.3v172H686.8z M689.3,488
			c0.7,0,1.3,0.3,1.8,0.8c0.4,0.4,0.7,1,0.7,1.7v176.9c0,0.7-0.2,1.3-0.7,1.8c-0.5,0.4-1.1,0.6-1.8,0.6H354.9
			c-0.7,0-1.2-0.2-1.7-0.6c-0.5-0.5-0.7-1.1-0.7-1.8V490.5c0-0.7,0.2-1.3,0.7-1.7c0.5-0.5,1-0.8,1.7-0.8H689.3z"/>
	</g>
	<g>
		<g>
			<rect x="-56" y="617" fill-rule="evenodd" clip-rule="evenodd" fill="#493A25" width="826.3" height="15.2"/>
			
				<radialGradient id="SVGID_3_" cx="329.5" cy="368.0498" r="1010.625" gradientTransform="matrix(1 0 0 0.684 0 116.2919)" gradientUnits="userSpaceOnUse">
				<stop  offset="0" style="stop-color:#DBA25F"/>
				<stop  offset="1" style="stop-color:#231306"/>
			</radialGradient>
			<rect x="-56" y="171.5" fill-rule="evenodd" clip-rule="evenodd" fill="url(#SVGID_3_)" width="826.3" height="445.5"/>
		</g>
	</g>
	<g>
		
			<radialGradient id="SVGID_4_" cx="347.1504" cy="618.1504" r="381.187" gradientTransform="matrix(1 0 0 2.2367 0 -764.4633)" gradientUnits="userSpaceOnUse">
			<stop  offset="0" style="stop-color:#FFFFFF;stop-opacity:0.6902"/>
			<stop  offset="1" style="stop-color:#FDFDFD;stop-opacity:0"/>
		</radialGradient>
		<path fill-rule="evenodd" clip-rule="evenodd" fill="url(#SVGID_4_)" d="M728.3,616.9c0.2,0,0.3,0.1,0.5,0.3
			c0.1,0.3,0.2,0.6,0.2,0.9c0,0.3,0,0.6-0.2,0.8c-0.1,0.2-0.3,0.3-0.5,0.3H-34c-0.2,0-0.3-0.1-0.5-0.3c-0.1-0.3-0.2-0.5-0.2-0.8
			c0-0.3,0.1-0.6,0.2-0.9c0.1-0.2,0.3-0.3,0.5-0.3H728.3z"/>
	</g>
	<g>
		
			<radialGradient id="SVGID_5_" cx="357.4004" cy="235.3999" r="309.125" fx="358.6126" fy="235.3999" gradientTransform="matrix(1 0 0 0.2557 0 175.2125)" gradientUnits="userSpaceOnUse">
			<stop  offset="0" style="stop-color:#FEFDDF;stop-opacity:0.4118"/>
			<stop  offset="0.4" style="stop-color:#FEFBD8;stop-opacity:0.1137"/>
			<stop  offset="0.9765" style="stop-color:#FEF9D3;stop-opacity:0"/>
		</radialGradient>
		<path fill-rule="evenodd" clip-rule="evenodd" fill="url(#SVGID_5_)" d="M355.2,383.8c-113.1,0-209.7-10.3-289.7-30.8
			c-80-20.5-120.1-45.2-120.1-74.1c0-28.9,40-53.6,120.1-74.1c80-20.5,176.6-30.8,289.7-30.8c113.2,0,209.9,10.3,289.9,30.8
			c80,20.5,120,45.2,120,74.1c0,28.9-40,53.6-120,74.1C565,373.5,468.4,383.8,355.2,383.8z"/>
	</g>
	<g>
		
			<radialGradient id="SVGID_6_" cx="345.6499" cy="-87.3501" r="373.925" gradientTransform="matrix(1 0 0 0.7473 0 -22.0755)" gradientUnits="userSpaceOnUse">
			<stop  offset="0.2039" style="stop-color:#FEFDDF;stop-opacity:0.1686"/>
			<stop  offset="0.9765" style="stop-color:#FEF9D3;stop-opacity:0"/>
		</radialGradient>
		<path fill-rule="evenodd" clip-rule="evenodd" fill="url(#SVGID_6_)" d="M474.6-58.6l150.3,163.8c12.5,21.8-59.1,44.1-214.8,66.9
			c-155.8,22.8-254.3,14-295.5-26.4C73.2,105.2,66.3,74,93.9,52C154.5-6.6,189.8-43.6,200-59C277.5-59,369-59,474.6-58.6z"/>
	</g>
</g>
<g>
	<g>
		<g>
			<linearGradient id="SVGID_7_" gradientUnits="userSpaceOnUse" x1="555.873" y1="354.7441" x2="556.1221" y2="412.8941">
				<stop  offset="0.3255" style="stop-color:#000000;stop-opacity:0.251"/>
				<stop  offset="1" style="stop-color:#000000;stop-opacity:0"/>
			</linearGradient>
			<polygon fill-rule="evenodd" clip-rule="evenodd" fill="url(#SVGID_7_)" points="660.5,266 708.9,432.9 416.5,432.9 403.8,364.5 
				402.8,266 			"/>
			<linearGradient id="SVGID_8_" gradientUnits="userSpaceOnUse" x1="121.9541" y1="362.6289" x2="121.7735" y2="402.1789">
				<stop  offset="0.2275" style="stop-color:#000000;stop-opacity:0.251"/>
				<stop  offset="1" style="stop-color:#000000;stop-opacity:0"/>
			</linearGradient>
			<polygon fill-rule="evenodd" clip-rule="evenodd" fill="url(#SVGID_8_)" points="246.1,266 238,358.2 230.2,406.5 -2,406.5 
				44,262.1 			"/>
			<linearGradient id="SVGID_9_" gradientUnits="userSpaceOnUse" x1="119.8853" y1="557.75" x2="119.9074" y2="592.15">
				<stop  offset="0.1176" style="stop-color:#000000;stop-opacity:0.251"/>
				<stop  offset="1" style="stop-color:#000000;stop-opacity:0"/>
			</linearGradient>
			<polygon fill-rule="evenodd" clip-rule="evenodd" fill="url(#SVGID_9_)" points="212.4,558.2 204.5,601.8 22.9,601.8 60,484.6 
				216.9,484.6 			"/>
			<linearGradient id="SVGID_10_" gradientUnits="userSpaceOnUse" x1="562.7246" y1="547.4746" x2="562.7246" y2="600.4246">
				<stop  offset="0.2588" style="stop-color:#000000;stop-opacity:0.251"/>
				<stop  offset="1" style="stop-color:#000000;stop-opacity:0"/>
			</linearGradient>
			<polygon fill-rule="evenodd" clip-rule="evenodd" fill="url(#SVGID_10_)" points="471.5,558.2 468.3,509.8 632.7,510 
				657.2,603.7 480.5,603.5 			"/>
		</g>
	</g>
	<g>
		<g>
			<linearGradient id="SVGID_11_" gradientUnits="userSpaceOnUse" x1="539.5" y1="355.2754" x2="539.5" y2="365.0254">
				<stop  offset="0" style="stop-color:#070707"/>
				<stop  offset="0.549" style="stop-color:#090909"/>
				<stop  offset="0.6471" style="stop-color:#0B0B0B;stop-opacity:0.5098"/>
				<stop  offset="1" style="stop-color:#0E0E0E;stop-opacity:0"/>
			</linearGradient>
			<polygon fill-rule="evenodd" clip-rule="evenodd" fill="url(#SVGID_11_)" points="407.2,372.8 403.8,266 642.6,266 675.2,372.8 
							"/>
			<linearGradient id="SVGID_12_" gradientUnits="userSpaceOnUse" x1="135.7319" y1="351.6504" x2="135.7319" y2="366.2504">
				<stop  offset="0" style="stop-color:#070707"/>
				<stop  offset="0.549" style="stop-color:#090909"/>
				<stop  offset="0.6471" style="stop-color:#0B0B0B;stop-opacity:0.5098"/>
				<stop  offset="1" style="stop-color:#0E0E0E;stop-opacity:0"/>
			</linearGradient>
			<path fill-rule="evenodd" clip-rule="evenodd" fill="url(#SVGID_12_)" d="M34.6,369.5c-5.8-0.8-7.9-4.1-6.3-9.8l19.3-92.2h196
				L235,348c-3,10.7-8.9,18-17.5,21.9L34.6,369.5z"/>
			<linearGradient id="SVGID_13_" gradientUnits="userSpaceOnUse" x1="135.7251" y1="544.1748" x2="135.7251" y2="566.6248">
				<stop  offset="0" style="stop-color:#070707"/>
				<stop  offset="0.549" style="stop-color:#090909"/>
				<stop  offset="0.6471" style="stop-color:#0B0B0B;stop-opacity:0.5098"/>
				<stop  offset="1" style="stop-color:#0E0E0E;stop-opacity:0"/>
			</linearGradient>
			<path fill-rule="evenodd" clip-rule="evenodd" fill="url(#SVGID_13_)" d="M209.1,563c-0.2,2.1-1.4,3.5-3.6,4.1H59.8
				c-2.6-0.7-4-2.2-4.1-4.6l19-76.4h141L209.1,563z"/>
			<linearGradient id="SVGID_14_" gradientUnits="userSpaceOnUse" x1="553.8496" y1="551.9873" x2="553.8496" y2="563.7123">
				<stop  offset="0" style="stop-color:#070707"/>
				<stop  offset="0.549" style="stop-color:#090909"/>
				<stop  offset="0.6471" style="stop-color:#0B0B0B;stop-opacity:0.5098"/>
				<stop  offset="1" style="stop-color:#0E0E0E;stop-opacity:0"/>
			</linearGradient>
			<polygon fill-rule="evenodd" clip-rule="evenodd" fill="url(#SVGID_14_)" points="639.3,564.7 472.7,564.7 468.5,514.5 
				625.8,514.5 			"/>
		</g>
	</g>
</g>
<g>
	<path fill-rule="evenodd" clip-rule="evenodd" fill="#FFFFFF" d="M601.3,169.4v-0.1C601.9,170,601.9,170,601.3,169.4z"/>
	<g>
		<g>
			<linearGradient id="SVGID_15_" gradientUnits="userSpaceOnUse" x1="407.5996" y1="209.6499" x2="661.5996" y2="209.6499">
				<stop  offset="0" style="stop-color:#5CB2CB"/>
				<stop  offset="1" style="stop-color:#53A7C1"/>
			</linearGradient>
			<polygon fill-rule="evenodd" clip-rule="evenodd" fill="url(#SVGID_15_)" points="411.2,199.9 660.3,199.9 661.6,219.4 
				408.8,219.4 407.6,200.1 			"/>
			<path fill-rule="evenodd" clip-rule="evenodd" fill="#64BFDA" d="M666.2,291.9H664H407.3l-1.8-54.8l0.2,0.5l2.4,52.1
				c0,0,0.1,0,0.1,0.1h253.3v-18.1L666.2,291.9z"/>
			
				<linearGradient id="SVGID_16_" gradientUnits="userSpaceOnUse" x1="-432.644" y1="-603.0439" x2="-432.151" y2="-603.0439" gradientTransform="matrix(-0.8619 0.507 -0.4948 -0.8691 -2.771616e-005 -4.483461e-004)">
				<stop  offset="0" style="stop-color:#36A2BF"/>
				<stop  offset="0.9804" style="stop-color:#3C9FB6"/>
			</linearGradient>
			<polygon fill-rule="evenodd" clip-rule="evenodd" fill="url(#SVGID_16_)" points="667.3,322.9 664,291.9 666.2,291.9 
				669.8,322.9 669.7,322.9 			"/>
			<linearGradient id="SVGID_17_" gradientUnits="userSpaceOnUse" x1="534.9248" y1="220.9126" x2="534.9248" y2="291.2129">
				<stop  offset="0" style="stop-color:#39879E"/>
				<stop  offset="0.9412" style="stop-color:#3386A2"/>
				<stop  offset="1" style="stop-color:#143841"/>
			</linearGradient>
			<polygon fill-rule="evenodd" clip-rule="evenodd" fill="url(#SVGID_17_)" points="408.3,289.7 408.8,219.4 661.6,219.4 
				661.6,271.6 661.6,289.7 			"/>
			<linearGradient id="SVGID_18_" gradientUnits="userSpaceOnUse" x1="403.1504" y1="296.2998" x2="667.3754" y2="296.2998">
				<stop  offset="0" style="stop-color:#39879E"/>
				<stop  offset="1" style="stop-color:#367E97"/>
			</linearGradient>
			<polygon fill-rule="evenodd" clip-rule="evenodd" fill="url(#SVGID_18_)" points="406,322.9 667.3,322.9 669.7,322.9 669.7,360 
				407.3,360 406,322.9 405.1,291.9 403.2,232.6 405.6,237 407.3,291.9 			"/>
			<linearGradient id="SVGID_19_" gradientUnits="userSpaceOnUse" x1="407.2627" y1="307.375" x2="667.3377" y2="307.375">
				<stop  offset="0" style="stop-color:#36A2BF"/>
				<stop  offset="0.9804" style="stop-color:#3C9FB6"/>
			</linearGradient>
			<polygon fill-rule="evenodd" clip-rule="evenodd" fill="url(#SVGID_19_)" points="667.3,322.9 406,322.9 407.3,291.9 664,291.9 
							"/>
			<polygon fill-rule="evenodd" clip-rule="evenodd" fill="#5CB2CB" points="407.6,200.1 405.8,171.5 408.3,143.3 411.2,199.9 			
				"/>
			<path fill-rule="evenodd" clip-rule="evenodd" fill="#2C7192" d="M405.8,171.5l1.8,28.6l1.2,19.3l-0.5,70.3c0,0-0.1-0.1-0.1-0.1
				l-2.4-52.1v-4.9V171.5z"/>
			<polygon fill-rule="evenodd" clip-rule="evenodd" fill="#205368" points="405.6,237 403.2,232.6 405.7,232.6 405.8,232.6 
				405.8,237.5 			"/>
			<linearGradient id="SVGID_20_" gradientUnits="userSpaceOnUse" x1="513.0537" y1="115.1895" x2="544.1357" y2="231.071">
				<stop  offset="0" style="stop-color:#AAD5DB"/>
				<stop  offset="1" style="stop-color:#66BBBA"/>
			</linearGradient>
			<polygon fill-rule="evenodd" clip-rule="evenodd" fill="url(#SVGID_20_)" points="660.3,199.9 411.2,199.9 408.3,143.3 
				643.9,143.3 			"/>
		</g>
	</g>
	<g>
		<g>
			<polygon fill-rule="evenodd" clip-rule="evenodd" fill="#FFFFFF" fill-opacity="0.2902" points="660.3,199.9 660.4,201.1 
				411,201.1 411,199.9 			"/>
			
				<radialGradient id="SVGID_21_" cx="518.2998" cy="220.1001" r="257.4625" gradientTransform="matrix(1 0 0 0.1569 0 185.5629)" gradientUnits="userSpaceOnUse">
				<stop  offset="0" style="stop-color:#FFFFFF;stop-opacity:0.2902"/>
				<stop  offset="1" style="stop-color:#FAFAFA;stop-opacity:0"/>
			</radialGradient>
			<rect x="408.8" y="219.4" fill-rule="evenodd" clip-rule="evenodd" fill="url(#SVGID_21_)" width="252.8" height="1.3"/>
			
				<radialGradient id="SVGID_22_" cx="497.3496" cy="292.4502" r="211.825" gradientTransform="matrix(1 0 0 0.2061 0 232.1688)" gradientUnits="userSpaceOnUse">
				<stop  offset="0" style="stop-color:#FFFFFF;stop-opacity:0.6588"/>
				<stop  offset="1" style="stop-color:#FFFFFF;stop-opacity:0"/>
			</radialGradient>
			<path fill-rule="evenodd" clip-rule="evenodd" fill="url(#SVGID_22_)" d="M666.2,291.9l0.2,1.2H408.2c-0.2,0-0.3,0-0.5-0.1
				c-0.1-0.1-0.2-0.3-0.2-0.4c0-0.2,0-0.3,0.2-0.4c0.1-0.1,0.3-0.2,0.5-0.2H666.2z"/>
			
				<radialGradient id="SVGID_23_" cx="518.2998" cy="323.5498" r="292.3625" gradientTransform="matrix(1 0 0 0.1493 0 275.2297)" gradientUnits="userSpaceOnUse">
				<stop  offset="0" style="stop-color:#FFFFFF;stop-opacity:0.3176"/>
				<stop  offset="1" style="stop-color:#FFFFFF;stop-opacity:0"/>
			</radialGradient>
			<path fill-rule="evenodd" clip-rule="evenodd" fill="url(#SVGID_23_)" d="M669.7,322.9v1.2H406c0-0.8,0-1.2,0-1.2H669.7z"/>
		</g>
	</g>
	<g>
		<path fill-rule="evenodd" clip-rule="evenodd" fill-opacity="4.705882e-002" d="M603.3,185.5c-0.3-0.1-0.5-0.3-0.7-0.6
			c-0.2-0.3-0.2-0.6-0.1-0.9c0.1-0.3,0.3-0.6,0.6-0.8c0.3-0.2,0.6-0.2,1,0l20.3,6.8l-3.5-18.7l-21.5-8.4c-0.3-0.1-0.6-0.3-0.7-0.6
			c-0.2-0.3-0.2-0.6,0-0.9c0.1-0.3,0.3-0.6,0.6-0.7c0.3-0.2,0.7-0.2,1,0l22.1,8.6c0.1,0.1,0.3,0.2,0.5,0.4c0.1,0.1,0.2,0.3,0.3,0.6
			l4,21.4c0,0.2,0,0.5-0.2,0.8c-0.2,0.2-0.4,0.4-0.6,0.6c-0.3,0.1-0.6,0.1-0.8,0L603.3,185.5z M490.8,190l-3.4-18.7l-21.5-8.4
			c-0.3-0.1-0.5-0.3-0.7-0.6c-0.2-0.3-0.2-0.6,0-0.9c0.1-0.3,0.3-0.6,0.6-0.7c0.3-0.2,0.7-0.2,1,0l22.1,8.6c0.2,0.1,0.3,0.2,0.5,0.4
			c0.1,0.1,0.2,0.3,0.3,0.6l3.9,21.4c0.1,0.2,0,0.5-0.1,0.8c-0.2,0.2-0.4,0.4-0.6,0.6c-0.3,0.1-0.6,0.1-0.9,0l-22.3-7.4
			c-0.3-0.1-0.6-0.3-0.7-0.6c-0.2-0.3-0.2-0.6-0.1-0.9c0.1-0.3,0.3-0.6,0.6-0.8c0.3-0.2,0.6-0.2,1,0L490.8,190z"/>
	</g>
	<g>
		<g>
			
				<radialGradient id="SVGID_24_" cx="445" cy="259.7998" r="33.25" gradientTransform="matrix(1 0 0 1.0256 0 -6.6415)" gradientUnits="userSpaceOnUse">
				<stop  offset="0" style="stop-color:#000000;stop-opacity:0.8"/>
				<stop  offset="0.7412" style="stop-color:#000000;stop-opacity:0.4431"/>
				<stop  offset="0.9804" style="stop-color:#000000;stop-opacity:0"/>
			</radialGradient>
			<path fill-rule="evenodd" clip-rule="evenodd" fill="url(#SVGID_24_)" d="M481.7,242.8c1.9,4.5,2.8,9.4,2.8,14.5
				c0,10.4-3.7,19.3-11.2,26.8c-6.5,6.5-14.1,10.2-22.8,11.1c-1.2,0.1-2.5,0.1-3.8,0.1c-10.5,0-19.4-3.7-26.9-11.2
				c-7.3-7.5-11-16.4-11-26.8c0-1.3,0-2.6,0.1-3.8c0.8-8.8,4.5-16.5,10.9-23.1c7.5-7.3,16.5-11,26.9-11c1.3,0,2.6,0.1,3.8,0.1
				c8.8,0.8,16.4,4.4,22.8,10.9C477,234.1,479.8,238.3,481.7,242.8z"/>
		</g>
		<g>
			<g>
				<path fill-rule="evenodd" clip-rule="evenodd" fill="#333333" d="M436.5,247.4c-0.3-0.1-0.5-0.3-0.5-0.7v-30.4
					c0-0.5,0.3-0.8,0.8-0.8h17.5c0.3,0,0.5,0.1,0.6,0.3c0.1,0.1,0.1,0.3,0.2,0.3l0.4,1.3c-0.1-0.2-0.2-0.3-0.4-0.4
					c-0.1,0-0.2,0-0.3,0h-17.5c-0.5,0-0.8,0.3-0.8,0.9V247.4z"/>
				<path fill-rule="evenodd" clip-rule="evenodd" d="M455.4,217.3c0,0,0,0.1,0.1,0.1c0,0.1,0,0.2,0,0.3V248c0,0.5-0.3,0.8-0.8,0.8
					h-17.5c-0.5,0-0.8-0.3-0.8-0.8v-0.7v-29.6c0-0.6,0.3-0.9,0.8-0.9h17.5c0.1,0,0.2,0,0.3,0C455.2,217,455.3,217.1,455.4,217.3z"/>
			</g>
		</g>
		<g>
			<g>
				<linearGradient id="SVGID_25_" gradientUnits="userSpaceOnUse" x1="445.9502" y1="230.75" x2="445.9502" y2="280.3501">
					<stop  offset="0" style="stop-color:#C8C7B7"/>
					<stop  offset="1" style="stop-color:#747158"/>
				</linearGradient>
				<path fill-rule="evenodd" clip-rule="evenodd" fill="url(#SVGID_25_)" d="M448.3,233c-0.8-0.1-1.5-0.1-2.3-0.1
					c-6.3,0-11.6,2.2-16.1,6.6c-3.8,3.9-6,8.5-6.4,13.8c0,0.7-0.1,1.5-0.1,2.3c0,6.2,2.2,11.6,6.5,16c4.5,4.5,9.8,6.7,16.1,6.7
					c0.8,0,1.6,0,2.3-0.1c5.2-0.5,9.8-2.6,13.7-6.6c4.5-4.4,6.7-9.8,6.7-16c0-3.1-0.6-6-1.7-8.8c-1.1-2.7-2.8-5.1-5-7.3
					C458.1,235.6,453.5,233.5,448.3,233z M421.4,251.6c0.3-1.9,0.8-3.8,1.4-5.5c1.2-3,3-5.7,5.5-8.2h0.1c0,0,0-0.1,0-0.1
					c4.9-4.7,10.7-7.1,17.5-7.1c0.9,0,1.8,0,2.7,0.1c5.6,0.5,10.6,2.9,14.8,7c0,0,0.1,0,0.2,0.1c2.4,2.4,4.2,5.1,5.4,8
					c0,0.1,0.1,0.2,0.1,0.3c0.6,1.7,1.1,3.5,1.4,5.4c0.1,0.6,0.1,1.3,0.1,1.9l0.2,3.5c-0.4,6.2-2.8,11.5-7.3,16
					c-4.2,4.3-9.2,6.7-14.9,7.3c-0.9,0.1-1.8,0.1-2.7,0.1c-6.7,0-12.6-2.4-17.5-7.3c0,0,0-0.1,0-0.1c-4.8-4.8-7.3-10.6-7.3-17.5
					c0-0.1,0-0.3,0-0.4v-0.9c0-0.4,0-0.8,0.1-1.2C421.3,252.5,421.3,252,421.4,251.6z"/>
				<linearGradient id="SVGID_26_" gradientUnits="userSpaceOnUse" x1="446" y1="232.8501" x2="446" y2="278.2001">
					<stop  offset="0" style="stop-color:#23231B"/>
					<stop  offset="1" style="stop-color:#0F0F0B"/>
				</linearGradient>
				<path fill-rule="evenodd" clip-rule="evenodd" fill="url(#SVGID_26_)" d="M448.3,233c5.2,0.5,9.8,2.7,13.7,6.5
					c2.2,2.2,3.9,4.7,5,7.3c1.1,2.7,1.7,5.6,1.7,8.8c0,6.2-2.2,11.6-6.7,16c-3.9,3.9-8.4,6.1-13.7,6.6c-0.8,0.1-1.5,0.1-2.3,0.1
					c-6.3,0-11.6-2.2-16.1-6.7c-4.3-4.4-6.5-9.8-6.5-16c0-0.8,0-1.5,0.1-2.3c0.5-5.3,2.6-9.9,6.4-13.8c4.5-4.4,9.8-6.6,16.1-6.6
					C446.8,232.9,447.5,232.9,448.3,233z"/>
				<linearGradient id="SVGID_27_" gradientUnits="userSpaceOnUse" x1="421.2002" y1="234.5249" x2="470.6502" y2="234.5249">
					<stop  offset="0" style="stop-color:#151716"/>
					<stop  offset="0.3529" style="stop-color:#0E100F"/>
					<stop  offset="0.5529" style="stop-color:#2B332F"/>
					<stop  offset="0.7529" style="stop-color:#060706"/>
					<stop  offset="1" style="stop-color:#000000"/>
				</linearGradient>
				<path fill-rule="evenodd" clip-rule="evenodd" fill="url(#SVGID_27_)" d="M470.6,245.6l-1.5,0.6c-0.1-0.1-0.1-0.2-0.1-0.3
					c-1.2-2.9-3-5.6-5.4-8c-0.1,0-0.1-0.1-0.2-0.1c-4.2-4.1-9.1-6.5-14.8-7c-0.9-0.1-1.8-0.1-2.7-0.1c-6.7,0-12.6,2.4-17.5,7.1
					c0,0,0,0.1,0,0.1h-0.1c-2.5,2.5-4.3,5.2-5.5,8.2l-1.6-0.6c0.4-6,2.8-11.2,7.2-15.5c4.9-4.8,10.7-7.2,17.5-7.2
					c6.9,0,12.7,2.4,17.6,7.2C467.8,234.4,470.2,239.6,470.6,245.6z"/>
				<path fill-rule="evenodd" clip-rule="evenodd" fill="#151716" d="M470.6,245.6v7.9c0-0.7-0.1-1.3-0.1-1.9
					c-0.3-1.9-0.8-3.7-1.4-5.4L470.6,245.6z M421.2,254.3v-2.6h0.3c-0.1,0.4-0.1,0.9-0.2,1.4C421.2,253.4,421.2,253.8,421.2,254.3z"
					/>
				<linearGradient id="SVGID_28_" gradientUnits="userSpaceOnUse" x1="421.1621" y1="248.5752" x2="470.6371" y2="248.5752">
					<stop  offset="0" style="stop-color:#151716"/>
					<stop  offset="0.3529" style="stop-color:#0E100F"/>
					<stop  offset="0.5529" style="stop-color:#2B332F"/>
					<stop  offset="0.7529" style="stop-color:#060706"/>
					<stop  offset="1" style="stop-color:#000000"/>
				</linearGradient>
				<path fill-rule="evenodd" clip-rule="evenodd" fill="url(#SVGID_28_)" d="M422.8,246.1c-0.7,1.7-1.2,3.5-1.4,5.5h-0.3l0-6.1
					L422.8,246.1z"/>
			</g>
		</g>
		<g>
			
				<radialGradient id="SVGID_29_" cx="446.1504" cy="222.8999" r="9.75" gradientTransform="matrix(1 0 0 0.2128 0 175.4622)" gradientUnits="userSpaceOnUse">
				<stop  offset="0" style="stop-color:#FFFFFF"/>
				<stop  offset="0.1765" style="stop-color:#FFFFFF"/>
				<stop  offset="0.3059" style="stop-color:#FFFFFF;stop-opacity:0.4235"/>
				<stop  offset="0.4902" style="stop-color:#FFFFFF;stop-opacity:0.2314"/>
				<stop  offset="0.651" style="stop-color:#FFFFFF;stop-opacity:8.235294e-002"/>
				<stop  offset="1" style="stop-color:#FFFFFF;stop-opacity:0"/>
			</radialGradient>
			<path fill-rule="evenodd" clip-rule="evenodd" fill="url(#SVGID_29_)" d="M446.2,225c-2.6,0-4.9-0.2-6.8-0.6
				c-1.8-0.4-2.7-0.9-2.7-1.5c0-0.5,0.9-1,2.7-1.4c1.9-0.4,4.1-0.6,6.8-0.6c2.6,0,4.9,0.2,6.8,0.6c1.9,0.4,2.8,0.9,2.8,1.4
				c0,0.6-0.9,1.1-2.8,1.5C451,224.8,448.8,225,446.2,225z"/>
		</g>
		<g>
			
				<radialGradient id="SVGID_30_" cx="458.3496" cy="269.6499" r="12.8967" gradientTransform="matrix(0.7112 -0.703 0.2467 0.2496 65.849 524.563)" gradientUnits="userSpaceOnUse">
				<stop  offset="0" style="stop-color:#FFFFFF"/>
				<stop  offset="0.1765" style="stop-color:#FFFFFF"/>
				<stop  offset="0.3059" style="stop-color:#FFFFFF;stop-opacity:0.4235"/>
				<stop  offset="0.4902" style="stop-color:#FFFFFF;stop-opacity:0.2314"/>
				<stop  offset="0.651" style="stop-color:#FFFFFF;stop-opacity:8.235294e-002"/>
				<stop  offset="1" style="stop-color:#FFFFFF;stop-opacity:0"/>
			</radialGradient>
			<path fill-rule="evenodd" clip-rule="evenodd" fill="url(#SVGID_30_)" d="M455.3,266.5c2.5-2.4,4.9-4.2,7.3-5.3
				c2.5-1.2,4.1-1.4,5-0.6c0.9,0.9,0.7,2.6-0.5,5c-1.2,2.4-3,4.8-5.5,7.2c-2.4,2.4-4.9,4.2-7.3,5.4c-2.3,1.1-3.9,1.1-4.8,0.2
				c-0.9-0.8-0.7-2.3,0.4-4.6C450.9,271.4,452.8,269,455.3,266.5z"/>
		</g>
		<g>
			
				<radialGradient id="SVGID_31_" cx="431.4004" cy="232.2998" r="12.625" gradientTransform="matrix(0.8529 -0.5221 0.1775 0.2899 22.2263 390.1581)" gradientUnits="userSpaceOnUse">
				<stop  offset="0" style="stop-color:#FFFFFF"/>
				<stop  offset="0.1765" style="stop-color:#FFFFFF"/>
				<stop  offset="0.3059" style="stop-color:#FFFFFF;stop-opacity:0.4235"/>
				<stop  offset="0.4902" style="stop-color:#FFFFFF;stop-opacity:0.2314"/>
				<stop  offset="0.651" style="stop-color:#FFFFFF;stop-opacity:8.235294e-002"/>
				<stop  offset="1" style="stop-color:#FFFFFF;stop-opacity:0"/>
			</radialGradient>
			<path fill-rule="evenodd" clip-rule="evenodd" fill="url(#SVGID_31_)" d="M433.7,236c-2.9,1.8-5.7,2.9-8.3,3.5
				c-2.4,0.5-3.9,0.3-4.5-0.8c-0.6-1-0.1-2.4,1.4-4.3c1.7-2,4-4,6.9-5.8c2.9-1.8,5.6-3,8.2-3.6c2.5-0.6,4.1-0.4,4.7,0.6
				c0.6,1.1,0.1,2.6-1.6,4.5C438.8,232.2,436.5,234.1,433.7,236z"/>
		</g>
	</g>
	<g>
		<g>
			
				<radialGradient id="SVGID_32_" cx="517.3496" cy="297.1001" r="20.275" gradientTransform="matrix(1 0 0 1.0906 0 -26.9258)" gradientUnits="userSpaceOnUse">
				<stop  offset="0" style="stop-color:#000000;stop-opacity:0.8"/>
				<stop  offset="0.7412" style="stop-color:#000000;stop-opacity:0.2902"/>
				<stop  offset="0.9804" style="stop-color:#000000;stop-opacity:0"/>
			</radialGradient>
			<path fill-rule="evenodd" clip-rule="evenodd" fill="url(#SVGID_32_)" d="M520.7,271c5.3,0.5,10,2.8,13.9,7c2.3,2.4,4,5.1,5.2,8
				c1.1,2.9,1.7,6.1,1.7,9.5c0,6.7-2.3,12.5-6.9,17.3c-3.9,4.2-8.6,6.6-13.9,7.1c-0.8,0.1-1.6,0.1-2.4,0.1c-6.4,0-11.8-2.4-16.3-7.3
				c-4.5-4.8-6.7-10.6-6.7-17.3c0-0.9,0-1.7,0-2.5c0.5-5.7,2.7-10.7,6.7-15c4.5-4.8,10-7.1,16.3-7.1
				C519.1,270.9,519.9,270.9,520.7,271z"/>
		</g>
		<g>
			<g>
				<path fill-rule="evenodd" clip-rule="evenodd" d="M512.1,290.7v-18.6c0-0.3,0.2-0.5,0.6-0.5h10.8c0.1,0,0.2,0,0.3,0
					c0.1,0,0.2,0.1,0.3,0.2c0,0,0,0.1,0,0.1c0,0,0,0.1,0,0.1v19c0,0.3-0.2,0.5-0.5,0.5h-10.8c-0.4,0-0.6-0.2-0.6-0.5V290.7z"/>
				<path fill-rule="evenodd" clip-rule="evenodd" fill="#333333" d="M524,271.9c-0.1-0.1-0.2-0.2-0.3-0.2c-0.1,0-0.2,0-0.3,0h-10.8
					c-0.4,0-0.6,0.2-0.6,0.5v18.6c-0.2-0.1-0.3-0.2-0.3-0.5v-19c0-0.4,0.2-0.6,0.5-0.6h10.9c0.2,0,0.3,0.1,0.5,0.2
					c0,0.1,0.1,0.2,0.1,0.3L524,271.9z"/>
			</g>
		</g>
		<g>
			<g>
				<linearGradient id="SVGID_33_" gradientUnits="userSpaceOnUse" x1="510.9795" y1="280.1499" x2="524.3795" y2="308.1249">
					<stop  offset="0" style="stop-color:#22221A"/>
					<stop  offset="1" style="stop-color:#000000"/>
				</linearGradient>
				<path fill-rule="evenodd" clip-rule="evenodd" fill="url(#SVGID_33_)" d="M502.3,291.6c0.4-3.2,1.9-6.1,4.3-8.5
					c0.6-0.6,1.3-1.1,1.9-1.6c0.5-0.3,0.9-0.6,1.4-0.9c0.7-0.4,1.5-0.7,2.3-1c1-0.4,2.1-0.6,3.2-0.8c0.5-0.1,1.1-0.1,1.7-0.1
					c0.2,0,0.4,0,0.6,0c0.5,0,1,0,1.4,0c3.7,0.3,6.9,1.8,9.6,4.5c2.4,2.5,3.9,5.3,4.4,8.5c0,0.4,0.1,0.8,0.1,1.3l0,2.2
					c-0.2,3.9-1.8,7.2-4.5,10c-3,3-6.7,4.5-11,4.5c-4.3,0-7.9-1.5-11-4.5c-3-3-4.5-6.7-4.5-11c0-0.1,0-0.2,0-0.3v-0.7
					C502.2,292.6,502.2,292.1,502.3,291.6z M517.7,280c-0.2,0-0.4,0-0.6,0c-0.5,0-1,0.1-1.5,0.2c-1.1,0.1-2.2,0.4-3.2,0.8
					c-0.7,0.3-1.4,0.6-2.1,1.1c-0.5,0.3-0.9,0.6-1.3,0.9c-0.5,0.3-1,0.7-1.4,1.2c-2.8,2.8-4.2,6.1-4.2,10c0,3.9,1.4,7.2,4.2,10
					c2.8,2.8,6.1,4.1,10,4.1c3.9,0,7.2-1.4,10-4.1c2.8-2.8,4.1-6.1,4.1-10c0-3.9-1.4-7.3-4.1-10c-2.4-2.4-5.3-3.8-8.5-4.1
					C518.8,280,518.2,280,517.7,280z"/>
				<path fill-rule="evenodd" clip-rule="evenodd" fill="#393E3C" d="M502.2,293.1v-1.5h0.2C502.2,292.1,502.2,292.6,502.2,293.1z"
					/>
				<linearGradient id="SVGID_34_" gradientUnits="userSpaceOnUse" x1="502.2588" y1="285.73" x2="508.4843" y2="284.0567">
					<stop  offset="0" style="stop-color:#101210"/>
					<stop  offset="1" style="stop-color:#393E3C"/>
				</linearGradient>
				<path fill-rule="evenodd" clip-rule="evenodd" fill="url(#SVGID_34_)" d="M504.6,280.7c0.9-0.9,1.9-1.7,3-2.4l1,3.2
					c-0.7,0.4-1.3,1-1.9,1.6c-2.4,2.5-3.9,5.3-4.3,8.5h-0.2v-3.8c0-0.6,0.1-1.1,0.3-1.6C502.8,284.3,503.5,282.4,504.6,280.7z"/>
				<linearGradient id="SVGID_35_" gradientUnits="userSpaceOnUse" x1="517.0752" y1="284.1748" x2="533.126" y2="284.1748">
					<stop  offset="0" style="stop-color:#777777"/>
					<stop  offset="0.4706" style="stop-color:#3F3F3F"/>
					<stop  offset="0.6" style="stop-color:#626262"/>
					<stop  offset="0.7843" style="stop-color:#1E1E1E"/>
					<stop  offset="1" style="stop-color:#000000"/>
				</linearGradient>
				<path fill-rule="evenodd" clip-rule="evenodd" fill="url(#SVGID_35_)" d="M517.1,278.6v-3.1c0.2,0,0.4,0,0.6,0
					c0.1,0,0.1,0,0.1,0c0.6,0,1.3,0.1,1.9,0.1c4.2,0.4,7.8,2.1,11,5.2c0.9,1.5,1.6,3,2,4.8c0.2,0.8,0.3,1.6,0.4,2.5v4.9
					c0-0.4-0.1-0.9-0.1-1.3c-0.5-3.2-2-6.1-4.4-8.5c-2.7-2.6-5.9-4.1-9.6-4.5c-0.5,0-0.9,0-1.4,0
					C517.5,278.6,517.3,278.6,517.1,278.6z"/>
				<path fill-rule="evenodd" clip-rule="evenodd" fill="#151716" d="M507.6,278.4c-1.1,0.7-2.1,1.4-3,2.4c0.6-0.9,1.3-1.7,2.1-2.5
					c0.2-0.2,0.5-0.5,0.7-0.7c0.5-0.4,1-0.8,1.5-1.2c1.8-1.3,3.8-2.1,6-2.5c0.7-0.1,1.5-0.2,2.3-0.3c0.2,0,0.4,0,0.6,0
					c0.4,0,0.7,0,1.1,0c3.8,0.3,7.1,1.8,9.9,4.6c0.8,0.8,1.5,1.6,2.1,2.5c-3.2-3.1-6.8-4.8-11-5.2c-0.6,0-1.3-0.1-1.9-0.1
					c0,0-0.1,0-0.1,0c-0.2,0-0.4,0-0.6,0c-0.6,0-1.2,0-1.7,0.1c-0.2,0-0.4,0-0.6,0.1c-1.1,0.1-2.1,0.3-3,0.6c-0.4,0.1-0.7,0.3-1,0.4
					c-0.6,0.3-1.1,0.5-1.7,0.8c-0.4,0.2-0.7,0.4-1,0.6C507.8,278.2,507.7,278.3,507.6,278.4z"/>
				<linearGradient id="SVGID_36_" gradientUnits="userSpaceOnUse" x1="517.4854" y1="287.0146" x2="518.2313" y2="315.0891">
					<stop  offset="0" style="stop-color:#23231B"/>
					<stop  offset="1" style="stop-color:#050503"/>
				</linearGradient>
				<path fill-rule="evenodd" clip-rule="evenodd" fill="url(#SVGID_36_)" d="M517.7,280c0.5,0,1,0,1.5,0c3.2,0.3,6,1.7,8.5,4.1
					c2.8,2.8,4.1,6.1,4.1,10c0,3.9-1.4,7.2-4.1,10c-2.8,2.8-6.1,4.1-10,4.1c-3.9,0-7.3-1.4-10-4.1c-2.8-2.8-4.2-6.1-4.2-10
					c0-3.9,1.4-7.3,4.2-10c0.4-0.5,0.9-0.9,1.4-1.2c0.4-0.3,0.8-0.6,1.3-0.9c0.6-0.4,1.3-0.8,2.1-1.1c1-0.4,2.1-0.6,3.2-0.8
					c0.5-0.1,1-0.2,1.5-0.2C517.3,280,517.5,280,517.7,280z"/>
				<linearGradient id="SVGID_37_" gradientUnits="userSpaceOnUse" x1="508" y1="279.5225" x2="518.2286" y2="276.7861">
					<stop  offset="0" style="stop-color:#393E3C"/>
					<stop  offset="0.2745" style="stop-color:#707070"/>
					<stop  offset="0.4471" style="stop-color:#FFFFFF"/>
					<stop  offset="0.6196" style="stop-color:#686868"/>
					<stop  offset="0.7255" style="stop-color:#737373"/>
				</linearGradient>
				<path fill-rule="evenodd" clip-rule="evenodd" fill="url(#SVGID_37_)" d="M517.1,275.5v3.1c-0.6,0-1.2,0.1-1.7,0.1
					c-1.1,0.2-2.2,0.4-3.2,0.8c-0.8,0.3-1.5,0.6-2.3,1c-0.4,0.3-0.9,0.6-1.4,0.9l-1-3.2c0.1-0.1,0.2-0.1,0.4-0.3
					c0.3-0.2,0.7-0.4,1-0.6l2.8-1.1c1-0.3,2-0.6,3-0.6c0.2-0.1,0.4-0.1,0.6-0.1C515.9,275.5,516.5,275.5,517.1,275.5z"/>
				<path fill-rule="evenodd" clip-rule="evenodd" fill="#77807B" d="M511.8,276.4l-2.8,1.1c0.6-0.3,1.1-0.5,1.7-0.8
					C511.1,276.6,511.4,276.5,511.8,276.4z"/>
			</g>
		</g>
		<g>
			
				<radialGradient id="SVGID_38_" cx="517.7002" cy="276" r="7.9025" gradientTransform="matrix(0.9996 -2.660231e-002 9.050461e-003 0.3401 -2.3147 195.9064)" gradientUnits="userSpaceOnUse">
				<stop  offset="0" style="stop-color:#FFFFFF"/>
				<stop  offset="0.1765" style="stop-color:#FFFFFF"/>
				<stop  offset="0.3059" style="stop-color:#FFFFFF;stop-opacity:0.4235"/>
				<stop  offset="0.4902" style="stop-color:#FFFFFF;stop-opacity:0.2314"/>
				<stop  offset="0.651" style="stop-color:#FFFFFF;stop-opacity:8.235294e-002"/>
				<stop  offset="1" style="stop-color:#FFFFFF;stop-opacity:0"/>
			</radialGradient>
			<path fill-rule="evenodd" clip-rule="evenodd" fill="url(#SVGID_38_)" d="M523.2,274c1.6,0.4,2.4,1,2.4,1.8
				c0,0.7-0.8,1.4-2.3,1.9c-1.5,0.6-3.3,0.9-5.5,0.9c-2.1,0.1-4-0.1-5.6-0.6c-1.4-0.5-2.2-1.1-2.2-1.9c-0.1-0.7,0.6-1.4,2.1-1.9
				c1.6-0.6,3.4-0.9,5.5-0.9C519.8,273.3,521.6,273.5,523.2,274z"/>
		</g>
		<g>
			
				<radialGradient id="SVGID_39_" cx="514.25" cy="271.75" r="5.5517" gradientTransform="matrix(0.9998 -2.228270e-002 5.068250e-003 0.2274 -1.2496 221.4141)" gradientUnits="userSpaceOnUse">
				<stop  offset="0" style="stop-color:#FFFFFF"/>
				<stop  offset="0.1765" style="stop-color:#FFFFFF"/>
				<stop  offset="0.3059" style="stop-color:#FFFFFF;stop-opacity:0.4235"/>
				<stop  offset="0.4902" style="stop-color:#FFFFFF;stop-opacity:0.2314"/>
				<stop  offset="0.651" style="stop-color:#FFFFFF;stop-opacity:8.235294e-002"/>
				<stop  offset="1" style="stop-color:#FFFFFF;stop-opacity:0"/>
			</radialGradient>
			<path fill-rule="evenodd" clip-rule="evenodd" fill="url(#SVGID_39_)" d="M512.1,270.7c0.7-0.1,1.4-0.1,2.1-0.2
				c1.5,0,2.8,0.1,3.9,0.3c1.1,0.2,1.7,0.5,1.7,0.9s-0.5,0.7-1.6,0.9c-1.1,0.3-2.4,0.5-3.9,0.5c-0.8,0-1.5,0-2.2,0
				c-0.1,0-0.2,0-0.3,0v-2.3C511.9,270.7,512,270.7,512.1,270.7z"/>
		</g>
	</g>
	<g>
		<path fill-rule="evenodd" clip-rule="evenodd" d="M597,161.4c0.4,0.3,0.7,0.7,0.7,1.1s-0.2,0.8-0.7,1.1c-0.5,0.3-1,0.5-1.6,0.5
			c-0.7,0-1.2-0.2-1.7-0.5c-0.5-0.3-0.7-0.7-0.7-1.1s0.2-0.8,0.7-1.1c0.4-0.3,1-0.5,1.7-0.5C596,160.9,596.6,161,597,161.4z
			 M464.7,161.6c0.4-0.3,1-0.5,1.6-0.5c0.6,0,1.2,0.2,1.7,0.5c0.4,0.3,0.7,0.7,0.7,1.1c0,0.5-0.2,0.9-0.7,1.2
			c-0.5,0.3-1,0.5-1.7,0.5c-0.7,0-1.2-0.2-1.6-0.5c-0.4-0.3-0.7-0.7-0.7-1.2C464,162.4,464.3,162,464.7,161.6z"/>
	</g>
	<g>
		<g>
			<linearGradient id="SVGID_40_" gradientUnits="userSpaceOnUse" x1="592.4629" y1="152.8999" x2="598.4379" y2="152.8999">
				<stop  offset="0" style="stop-color:#0A0A0A"/>
				<stop  offset="0.2078" style="stop-color:#060606"/>
				<stop  offset="0.3176" style="stop-color:#444444"/>
				<stop  offset="0.4314" style="stop-color:#CCCCCC;stop-opacity:0.8706"/>
				<stop  offset="0.5255" style="stop-color:#919191"/>
				<stop  offset="0.9098" style="stop-color:#040404"/>
				<stop  offset="1" style="stop-color:#000000"/>
			</linearGradient>
			<path fill-rule="evenodd" clip-rule="evenodd" fill="url(#SVGID_40_)" d="M594.3,143.4c0.3-0.3,0.7-0.5,1.2-0.5
				c0.4,0,0.8,0.2,1.1,0.5c0.3,0.3,0.5,0.7,0.5,1.1v16.8c0,0.4-0.2,0.8-0.5,1.2c-0.3,0.3-0.7,0.5-1.1,0.5c-0.4,0-0.8-0.2-1.2-0.5
				c-0.3-0.3-0.5-0.7-0.5-1.2v-16.8C593.8,144.1,594,143.7,594.3,143.4z"/>
			<linearGradient id="SVGID_41_" gradientUnits="userSpaceOnUse" x1="463.5498" y1="152.5498" x2="467.4498" y2="152.5498">
				<stop  offset="0" style="stop-color:#0A0A0A"/>
				<stop  offset="0.2078" style="stop-color:#060606"/>
				<stop  offset="0.3176" style="stop-color:#444444"/>
				<stop  offset="0.4314" style="stop-color:#CCCCCC;stop-opacity:0.8706"/>
				<stop  offset="0.5255" style="stop-color:#919191"/>
				<stop  offset="0.9098" style="stop-color:#040404"/>
				<stop  offset="1" style="stop-color:#000000"/>
			</linearGradient>
			<path fill-rule="evenodd" clip-rule="evenodd" fill="url(#SVGID_41_)" d="M465.2,142.3c0.3-0.3,0.7-0.5,1.1-0.5
				c0.4,0,0.8,0.2,1.2,0.5c0.3,0.3,0.5,0.7,0.5,1.1v18.3c0,0.4-0.2,0.8-0.5,1.1c-0.3,0.3-0.7,0.5-1.2,0.5c-0.4,0-0.8-0.2-1.1-0.5
				c-0.3-0.3-0.5-0.7-0.5-1.1v-18.3C464.7,143,464.9,142.6,465.2,142.3z"/>
		</g>
	</g>
	<g>
		<path fill-rule="evenodd" clip-rule="evenodd" d="M601.6,186.9c-0.6,0-1.2-0.2-1.6-0.5c-0.4-0.3-0.7-0.7-0.7-1.1
			c0-0.4,0.2-0.8,0.7-1.1c0.5-0.3,1-0.5,1.6-0.5c0.7,0,1.2,0.2,1.7,0.5c0.4,0.3,0.7,0.7,0.7,1.1c0,0.5-0.2,0.9-0.7,1.1
			C602.8,186.7,602.3,186.9,601.6,186.9z M469.8,183.6c0.7,0,1.2,0.2,1.7,0.5c0.5,0.3,0.7,0.7,0.7,1.1c0,0.5-0.2,0.9-0.7,1.1
			c-0.4,0.3-1,0.5-1.7,0.5c-0.6,0-1.2-0.2-1.6-0.5c-0.4-0.3-0.7-0.7-0.7-1.1c0-0.4,0.2-0.8,0.7-1.1
			C468.6,183.8,469.2,183.6,469.8,183.6z"/>
	</g>
	<g>
		<g>
			<linearGradient id="SVGID_42_" gradientUnits="userSpaceOnUse" x1="595.1475" y1="158.2603" x2="601.246" y2="156.6298">
				<stop  offset="0" style="stop-color:#0A0A0A"/>
				<stop  offset="0.2078" style="stop-color:#060606"/>
				<stop  offset="0.3176" style="stop-color:#444444"/>
				<stop  offset="0.4549" style="stop-color:#929292"/>
				<stop  offset="0.5255" style="stop-color:#FFFFFF"/>
				<stop  offset="0.9098" style="stop-color:#040404"/>
				<stop  offset="1" style="stop-color:#000000"/>
			</linearGradient>
			<path fill-rule="evenodd" clip-rule="evenodd" fill="url(#SVGID_42_)" d="M603.2,169.6l0,0.2c0,0.1,0,0.3,0.1,0.4v0
				c0,0.3-0.1,0.5-0.3,0.8c-0.2,0.4-0.6,0.6-1,0.7c-0.4,0.1-0.8,0-1.2-0.2c-0.4-0.2-0.6-0.6-0.7-1l0-0.2l-6.2-25.5
				c-0.1-0.4,0-0.8,0.2-1.2c0.2-0.4,0.6-0.6,1-0.7c0.4-0.1,0.8,0,1.2,0.2c0.4,0.2,0.6,0.6,0.7,1L603.2,169.6z"/>
			<linearGradient id="SVGID_43_" gradientUnits="userSpaceOnUse" x1="599.0996" y1="177.8252" x2="604.5996" y2="177.8252">
				<stop  offset="0" style="stop-color:#0A0A0A"/>
				<stop  offset="0.2078" style="stop-color:#060606"/>
				<stop  offset="0.3176" style="stop-color:#444444"/>
				<stop  offset="0.4549" style="stop-color:#929292"/>
				<stop  offset="0.5255" style="stop-color:#FFFFFF"/>
				<stop  offset="0.9098" style="stop-color:#040404"/>
				<stop  offset="1" style="stop-color:#000000"/>
			</linearGradient>
			<path fill-rule="evenodd" clip-rule="evenodd" fill="url(#SVGID_43_)" d="M600,170.4l0,0.2c0.1,0.4,0.3,0.8,0.7,1
				c0.4,0.2,0.8,0.3,1.2,0.2c0.4-0.1,0.8-0.3,1-0.7c0.2-0.3,0.2-0.5,0.3-0.8v14.1c0,0.4-0.2,0.8-0.5,1.1c-0.3,0.3-0.7,0.5-1.1,0.5
				c-0.4,0-0.8-0.2-1.2-0.5c-0.3-0.3-0.5-0.7-0.5-1.1V170.4z M603.2,169.6c0.1,0.2,0.1,0.4,0.1,0.6c0-0.1,0-0.2-0.1-0.4L603.2,169.6
				z"/>
			<linearGradient id="SVGID_44_" gradientUnits="userSpaceOnUse" x1="465.5264" y1="158.2007" x2="470.7017" y2="157.6033">
				<stop  offset="0" style="stop-color:#0A0A0A"/>
				<stop  offset="0.2078" style="stop-color:#060606"/>
				<stop  offset="0.3176" style="stop-color:#444444"/>
				<stop  offset="0.4549" style="stop-color:#929292"/>
				<stop  offset="0.5255" style="stop-color:#FFFFFF"/>
				<stop  offset="0.9098" style="stop-color:#040404"/>
				<stop  offset="1" style="stop-color:#000000"/>
			</linearGradient>
			<path fill-rule="evenodd" clip-rule="evenodd" fill="url(#SVGID_44_)" d="M471.5,172.6c0,0.3-0.2,0.6-0.4,0.8
				c-0.3,0.3-0.6,0.5-1.1,0.6c-0.4,0.1-0.8-0.1-1.2-0.3c-0.4-0.3-0.6-0.6-0.6-1.1l-3.6-29c0-0.4,0.1-0.8,0.4-1.2
				c0.3-0.3,0.6-0.5,1.1-0.6c0.4-0.1,0.8,0.1,1.2,0.3c0.4,0.3,0.6,0.6,0.6,1.1l3.6,29C471.5,172.3,471.5,172.5,471.5,172.6z"/>
			<linearGradient id="SVGID_45_" gradientUnits="userSpaceOnUse" x1="466.2998" y1="179.2998" x2="472.9998" y2="179.2998">
				<stop  offset="0" style="stop-color:#0A0A0A"/>
				<stop  offset="0.2078" style="stop-color:#060606"/>
				<stop  offset="0.3176" style="stop-color:#444444"/>
				<stop  offset="0.4549" style="stop-color:#929292"/>
				<stop  offset="0.5255" style="stop-color:#FFFFFF"/>
				<stop  offset="0.9098" style="stop-color:#040404"/>
				<stop  offset="1" style="stop-color:#000000"/>
			</linearGradient>
			<path fill-rule="evenodd" clip-rule="evenodd" fill="url(#SVGID_45_)" d="M471.5,172.6v11.8c0,0.4-0.2,0.8-0.5,1.1
				c-0.3,0.3-0.7,0.5-1.1,0.5c-0.4,0-0.8-0.2-1.2-0.5c-0.3-0.3-0.5-0.7-0.5-1.1v-11.8c0.1,0.4,0.3,0.8,0.6,1.1
				c0.4,0.3,0.8,0.4,1.2,0.3c0.4-0.1,0.8-0.3,1.1-0.6C471.4,173.1,471.5,172.9,471.5,172.6z"/>
		</g>
	</g>
	<g>
		<g>
			<linearGradient id="SVGID_46_" gradientUnits="userSpaceOnUse" x1="394.5254" y1="190.875" x2="394.5254" y2="258.725">
				<stop  offset="0" style="stop-color:#101010"/>
				<stop  offset="0.5216" style="stop-color:#646464"/>
				<stop  offset="1" style="stop-color:#252525"/>
			</linearGradient>
			<path fill-rule="evenodd" clip-rule="evenodd" fill="url(#SVGID_46_)" d="M393.2,258c0.3,0,0.5-3.3,0.8-9.8
				c0.2-6.5,0.3-14.3,0.3-23.4c0-9.2-0.1-17-0.3-23.5c-0.2-6.5-0.5-9.7-0.8-9.7h1.6c0.3,0,0.5,3.2,0.8,9.7
				c0.2,6.5,0.4,14.3,0.4,23.5c0,9.1-0.1,16.9-0.4,23.4c-0.2,6.5-0.5,9.8-0.8,9.8H393.2z"/>
			<linearGradient id="SVGID_47_" gradientUnits="userSpaceOnUse" x1="401.2754" y1="191.6001" x2="401.2754" y2="258">
				<stop  offset="0" style="stop-color:#000000"/>
				<stop  offset="0.1882" style="stop-color:#0D0D0D"/>
				<stop  offset="0.4392" style="stop-color:#666565"/>
				<stop  offset="0.7176" style="stop-color:#080808"/>
				<stop  offset="1" style="stop-color:#000000"/>
			</linearGradient>
			<path fill-rule="evenodd" clip-rule="evenodd" fill="url(#SVGID_47_)" d="M394.8,258c0.3,0,0.5-3.3,0.8-9.8
				c0.2-6.5,0.4-14.3,0.4-23.4c0-9.2-0.1-17-0.4-23.5c-0.2-6.5-0.5-9.7-0.8-9.7h11.9c0.3,0,0.5,3.2,0.8,9.7
				c0.2,6.5,0.3,14.3,0.3,23.5c0,9.1-0.1,16.9-0.3,23.4c-0.2,6.5-0.5,9.8-0.8,9.8H394.8z"/>
			<path fill-rule="evenodd" clip-rule="evenodd" fill="#333333" d="M393.2,191.6c0.3,0,0.5,3.2,0.8,9.7c0.2,6.5,0.3,14.3,0.3,23.5
				c0,9.1-0.1,16.9-0.3,23.4c-0.2,6.5-0.5,9.8-0.8,9.8c-0.3,0-0.6-3.3-0.8-9.8c-0.2-6.5-0.4-14.3-0.4-23.4c0-9.2,0.1-17,0.4-23.5
				C392.6,194.8,392.8,191.6,393.2,191.6z"/>
		</g>
	</g>
	<g>
		
			<radialGradient id="SVGID_48_" cx="392.9883" cy="236.8843" r="2.8546" gradientTransform="matrix(0.9984 -5.692509e-002 0.1051 9.5897 -22.2963 -2034.5258)" gradientUnits="userSpaceOnUse">
			<stop  offset="0" style="stop-color:#FFFFFF"/>
			<stop  offset="0.1765" style="stop-color:#FFFFFF"/>
			<stop  offset="0.3059" style="stop-color:#FFFFFF;stop-opacity:0.4235"/>
			<stop  offset="0.4902" style="stop-color:#FFFFFF;stop-opacity:0.2314"/>
			<stop  offset="0.651" style="stop-color:#FFFFFF;stop-opacity:8.235294e-002"/>
			<stop  offset="1" style="stop-color:#FFFFFF;stop-opacity:0"/>
		</radialGradient>
		<path fill-rule="evenodd" clip-rule="evenodd" fill="url(#SVGID_48_)" d="M396.8,196c0.6,5,0.9,11.2,1,18.5
			c0.1,7.7-0.1,14.1-0.5,19.2c-0.5,5.5-1.2,8.2-2,8.3c-0.8,0-1.5-2.6-2-8c-0.6-5-0.9-11.3-1-19.1c-0.1-7.3,0.1-13.5,0.5-18.6
			c0.5-5.4,1.1-8.2,1.9-8.3C395.4,188,396.1,190.7,396.8,196z"/>
	</g>
	<g>
		
			<radialGradient id="SVGID_49_" cx="411.1504" cy="199" r="2.5275" gradientTransform="matrix(0.9942 -0.1075 0.1903 1.7604 -35.4867 -107.1282)" gradientUnits="userSpaceOnUse">
			<stop  offset="0" style="stop-color:#FFFFFF"/>
			<stop  offset="0.1765" style="stop-color:#FFFFFF"/>
			<stop  offset="0.3059" style="stop-color:#FFFFFF;stop-opacity:0.4235"/>
			<stop  offset="0.4902" style="stop-color:#FFFFFF;stop-opacity:0.2314"/>
			<stop  offset="0.651" style="stop-color:#FFFFFF;stop-opacity:8.235294e-002"/>
			<stop  offset="1" style="stop-color:#FFFFFF;stop-opacity:0"/>
		</radialGradient>
		<path fill-rule="evenodd" clip-rule="evenodd" fill="url(#SVGID_49_)" d="M412.6,195.8c0.6,0.8,0.9,1.8,1.1,3
			c0.1,1.3-0.1,2.3-0.5,3.1c-0.4,0.9-0.9,1.5-1.6,1.6c-0.7,0.1-1.3-0.3-1.9-1.2c-0.5-0.8-0.9-1.8-1-3c-0.1-1.2,0-2.2,0.3-3
			c0.4-0.9,0.9-1.5,1.6-1.6C411.3,194.6,412,195,412.6,195.8z"/>
	</g>
	<g>
		<radialGradient id="SVGID_50_" cx="407.3496" cy="291.8501" r="2.8875" gradientUnits="userSpaceOnUse">
			<stop  offset="0" style="stop-color:#FFFFFF"/>
			<stop  offset="0.1765" style="stop-color:#FFFFFF"/>
			<stop  offset="0.3059" style="stop-color:#FFFFFF;stop-opacity:0.4235"/>
			<stop  offset="0.4902" style="stop-color:#FFFFFF;stop-opacity:0.2314"/>
			<stop  offset="0.651" style="stop-color:#FFFFFF;stop-opacity:8.235294e-002"/>
			<stop  offset="1" style="stop-color:#FFFFFF;stop-opacity:0"/>
		</radialGradient>
		<path fill-rule="evenodd" clip-rule="evenodd" fill="url(#SVGID_50_)" d="M409.3,293.9c-0.6,0.6-1.2,0.9-2,0.9s-1.4-0.3-2-0.9
			c-0.5-0.5-0.8-1.2-0.8-2c0-0.8,0.3-1.4,0.8-2c0.6-0.6,1.2-0.9,2-0.9s1.4,0.3,2,0.9c0.6,0.5,0.9,1.2,0.9,2
			C410.2,292.6,409.9,293.3,409.3,293.9z"/>
	</g>
	<g>
		<g>
			
				<radialGradient id="SVGID_51_" cx="319.5845" cy="-477.5088" r="5.9737" fx="316.1408" fy="-477.5088" gradientTransform="matrix(-0.182 0.9833 2.1319 -1.882907e-002 1504.4015 -13.2871)" gradientUnits="userSpaceOnUse">
				<stop  offset="0" style="stop-color:#000000"/>
				<stop  offset="0.4431" style="stop-color:#000000;stop-opacity:0.7569"/>
				<stop  offset="0.6824" style="stop-color:#000000;stop-opacity:0.3412"/>
				<stop  offset="1" style="stop-color:#000000;stop-opacity:0"/>
			</radialGradient>
			<path fill-rule="evenodd" clip-rule="evenodd" fill="url(#SVGID_51_)" d="M433.3,307.8v9.5H422l0-8.3c0.2-0.8,0.9-1.5,2.1-2.1
				c1.2-0.5,2.7-0.8,4.4-0.8c1.6,0,2.8,0.3,3.8,0.8C432.8,307.2,433.1,307.5,433.3,307.8z"/>
		</g>
		<g>
			<g>
				
					<linearGradient id="SVGID_52_" gradientUnits="userSpaceOnUse" x1="411.6182" y1="335.1875" x2="423.1145" y2="335.1875" gradientTransform="matrix(0.9981 -6.088899e-002 3.308296e-002 0.9998 7.319450e-005 -1.054630e-004)">
					<stop  offset="0" style="stop-color:#070707"/>
					<stop  offset="0.4471" style="stop-color:#EFEFED"/>
					<stop  offset="1" style="stop-color:#0E0E0E"/>
				</linearGradient>
				<path fill-rule="evenodd" clip-rule="evenodd" fill="url(#SVGID_52_)" d="M422,307.6c0,0.3,0.1,0.6,0.4,0.9
					c0.3,0.5,0.7,0.9,1.3,1.3c1.1,0.7,2.4,1.1,4.1,1.1c1.6,0,2.9-0.4,3.9-1.1c0.6-0.4,1.1-0.8,1.4-1.3c0.2-0.4,0.4-0.8,0.4-1.3v1.3
					c0,1.1-0.6,1.9-1.8,2.6c-1.1,0.7-2.4,1-3.9,1c-1.6,0-3-0.4-4.1-1c-1.1-0.6-1.6-1.4-1.6-2.5V307.6z"/>
				
					<radialGradient id="SVGID_53_" cx="424.5996" cy="306" r="9.1125" gradientTransform="matrix(1 0 0 0.9383 0 18.8889)" gradientUnits="userSpaceOnUse">
					<stop  offset="0" style="stop-color:#EFEFED"/>
					<stop  offset="1" style="stop-color:#0E0E0E"/>
				</radialGradient>
				<path fill-rule="evenodd" clip-rule="evenodd" fill="url(#SVGID_53_)" d="M433.3,307.2c0,0.5-0.2,1-0.4,1.3
					c-0.3,0.5-0.7,0.9-1.4,1.3c-1.1,0.7-2.4,1.1-3.9,1.1c-1.6,0-3-0.4-4.1-1.1c-0.5-0.4-0.9-0.8-1.3-1.3c-0.3-0.4-0.4-0.7-0.4-0.9
					v-0.5c0-0.2,0-0.4,0.1-0.6c0.2-0.8,0.7-1.4,1.5-2c1.1-0.7,2.4-1,4.1-1c1.6,0,2.9,0.4,3.9,1c0.9,0.5,1.4,1.2,1.7,1.9
					C433.3,306.6,433.3,306.9,433.3,307.2L433.3,307.2z"/>
			</g>
		</g>
		<g>
			<polygon fill-rule="evenodd" clip-rule="evenodd" points="430,305.1 428.8,306.6 431,307.1 430.2,308.4 428,307.8 426.8,309.4 
				425.2,309 426.3,307.4 424.1,307 425,305.7 427.2,306.3 428.3,304.6 			"/>
		</g>
		<g>
			
				<radialGradient id="SVGID_54_" cx="480.792" cy="-327.8032" r="1.353" gradientTransform="matrix(0.2772 0.9608 2.245 -1.1456 1033.3115 -527.2863)" gradientUnits="userSpaceOnUse">
				<stop  offset="0" style="stop-color:#FFFFFF"/>
				<stop  offset="0.4078" style="stop-color:#FEFEFE;stop-opacity:0.1882"/>
				<stop  offset="0.8" style="stop-color:#FEFEFE;stop-opacity:0"/>
				<stop  offset="1" style="stop-color:#FAFAFA;stop-opacity:0"/>
			</radialGradient>
			<path fill-rule="evenodd" clip-rule="evenodd" fill="url(#SVGID_54_)" d="M431,308.5c0.6-0.2,1.1-0.3,1.5-0.3
				c0.5,0,0.9,0.2,1,0.6c0.1,0.3,0,0.7-0.3,1.2c-0.4,0.5-0.9,0.8-1.5,1c-0.6,0.3-1.2,0.5-1.7,0.5s-0.8-0.2-0.8-0.6
				c-0.1-0.3,0-0.6,0.3-1.1C429.9,309.3,430.4,308.9,431,308.5z"/>
		</g>
	</g>
	<g>
		<g>
			
				<radialGradient id="SVGID_55_" cx="321.5278" cy="-689.9004" r="5.9735" fx="318.1077" fy="-689.9004" gradientTransform="matrix(-0.182 0.9833 2.1319 -1.882907e-002 2173.5459 -19.1972)" gradientUnits="userSpaceOnUse">
				<stop  offset="0" style="stop-color:#000000"/>
				<stop  offset="0.4431" style="stop-color:#000000;stop-opacity:0.7569"/>
				<stop  offset="0.6824" style="stop-color:#000000;stop-opacity:0.3412"/>
				<stop  offset="1" style="stop-color:#000000;stop-opacity:0"/>
			</radialGradient>
			<path fill-rule="evenodd" clip-rule="evenodd" fill="url(#SVGID_55_)" d="M648.3,307c0.4,0.2,0.8,0.5,1,0.8v9.5H638l0-8.3
				c0.2-0.8,0.9-1.5,2.1-2.1c1.2-0.5,2.7-0.8,4.4-0.8C646.1,306.1,647.3,306.4,648.3,307z"/>
		</g>
		<g>
			<g>
				
					<linearGradient id="SVGID_56_" gradientUnits="userSpaceOnUse" x1="627.584" y1="348.3643" x2="639.0803" y2="348.3643" gradientTransform="matrix(0.9981 -6.088899e-002 3.308296e-002 0.9998 7.319450e-005 -1.054630e-004)">
					<stop  offset="0" style="stop-color:#070707"/>
					<stop  offset="0.4471" style="stop-color:#EFEFED"/>
					<stop  offset="1" style="stop-color:#0E0E0E"/>
				</linearGradient>
				<path fill-rule="evenodd" clip-rule="evenodd" fill="url(#SVGID_56_)" d="M649.3,307.2v1.3c0,1.1-0.6,1.9-1.8,2.6
					c-1.1,0.7-2.4,1-3.9,1c-1.6,0-3-0.4-4.1-1c-1.1-0.6-1.6-1.4-1.6-2.5v-1c0,0.2,0.1,0.5,0.4,0.9c0.3,0.5,0.7,0.9,1.3,1.3
					c1.1,0.7,2.4,1.1,4.1,1.1c1.6,0,2.9-0.4,3.9-1.1c0.6-0.4,1.1-0.8,1.4-1.3C649.2,308.2,649.3,307.7,649.3,307.2z"/>
				
					<radialGradient id="SVGID_57_" cx="640.5996" cy="306" r="9.1125" gradientTransform="matrix(1 0 0 0.9383 0 18.8889)" gradientUnits="userSpaceOnUse">
					<stop  offset="0" style="stop-color:#EFEFED"/>
					<stop  offset="1" style="stop-color:#0E0E0E"/>
				</radialGradient>
				<path fill-rule="evenodd" clip-rule="evenodd" fill="url(#SVGID_57_)" d="M638,307.7v-0.6c0-0.2,0-0.4,0.1-0.6
					c0.2-0.8,0.7-1.4,1.5-2c1.1-0.7,2.4-1,4.1-1c1.6,0,2.9,0.4,3.9,1c0.9,0.5,1.4,1.2,1.7,1.9c0.1,0.2,0.1,0.4,0.1,0.7v0.1
					c0,0.5-0.2,1-0.4,1.3c-0.3,0.5-0.7,0.9-1.4,1.3c-1.1,0.7-2.4,1.1-3.9,1.1c-1.6,0-3-0.4-4.1-1.1c-0.5-0.4-0.9-0.8-1.3-1.3
					C638.1,308.2,638,307.9,638,307.7z"/>
			</g>
		</g>
		<g>
			<polygon fill-rule="evenodd" clip-rule="evenodd" points="640.1,307 641,305.7 643.2,306.3 644.3,304.6 646,305.1 644.8,306.6 
				647,307.1 646.2,308.4 644,307.8 642.8,309.4 641.2,309 642.3,307.4 			"/>
		</g>
		<g>
			
				<radialGradient id="SVGID_58_" cx="580.7891" cy="-535.3413" r="1.353" gradientTransform="matrix(0.2772 0.9608 2.245 -1.1456 1687.5197 -861.121)" gradientUnits="userSpaceOnUse">
				<stop  offset="0" style="stop-color:#FFFFFF"/>
				<stop  offset="0.4078" style="stop-color:#FEFEFE;stop-opacity:0.1882"/>
				<stop  offset="0.8" style="stop-color:#FEFEFE;stop-opacity:0"/>
				<stop  offset="1" style="stop-color:#FAFAFA;stop-opacity:0"/>
			</radialGradient>
			<path fill-rule="evenodd" clip-rule="evenodd" fill="url(#SVGID_58_)" d="M649.5,308.8c0.1,0.3,0,0.7-0.3,1.2
				c-0.4,0.5-0.9,0.8-1.5,1c-0.6,0.3-1.2,0.5-1.7,0.5s-0.8-0.2-0.8-0.6c-0.1-0.3,0-0.6,0.3-1.1c0.3-0.5,0.8-0.9,1.5-1.2
				c0.6-0.2,1.1-0.3,1.5-0.3C649.1,308.2,649.5,308.4,649.5,308.8z"/>
		</g>
	</g>
</g>
</svg>
