<?xml version="1.0" encoding="utf-8"?>
<!-- Generator: Adobe Illustrator 16.0.0, SVG Export Plug-In . SVG Version: 6.00 Build 0)  -->
<!DOCTYPE svg PUBLIC "-//W3C//DTD SVG 1.1//EN" "http://www.w3.org/Graphics/SVG/1.1/DTD/svg11.dtd">
<svg version="1.1" id="Layer_1" xmlns="http://www.w3.org/2000/svg" xmlns:xlink="http://www.w3.org/1999/xlink" x="0px" y="0px"
	 width="700px" height="700px" viewBox="0 0 700 700" enable-background="new 0 0 700 700" xml:space="preserve">
<g>
	<g>
		<path fill-rule="evenodd" clip-rule="evenodd" fill="#272526" d="M233.9,296.7c-0.9,5.8-3.8,8.5-8.7,8.3h-1.4H39.4
			c-6.5,0.6-9.7-2.3-10.2-5.2v-2.4l25.6-84.9c1.5-5.7,4.2-8.4,8.1-8.1h172.3c5.4,0,8.1,2.6,8.1,7.6v0.5"/>
	</g>
	<g>
		<path fill-rule="evenodd" clip-rule="evenodd" fill="#C18E4A" d="M38.4,305h186.8c4.9,0.2,7.8,0.4,9.7-5.3l1.4-19.4
			c-0.9,0,0.1,0,0-0.1l7.2-62.4l-0.1,0v41.1c0,0.3,0,0.6,0.1,0.8c0.1,4.5-0.2,9.3-0.8,14.2l-5.2,49.7L235,344
			c-1.7,10.3-5.5,15.7-11.2,16H37.3c-2.6,0-4.5-0.6-5.9-1.9c-1.3-1.2-2.1-3.2-2.3-5.8v-52.4C29.6,302.8,32.7,305.1,38.4,305z"/>
	</g>
	<g>
		<linearGradient id="SVGID_1_" gradientUnits="userSpaceOnUse" x1="29.1499" y1="286.2749" x2="243.4717" y2="286.2749">
			<stop  offset="0" style="stop-color:#4A2E13"/>
			<stop  offset="0.1333" style="stop-color:#6A4319;stop-opacity:0.2431"/>
			<stop  offset="0.8353" style="stop-color:#71481A;stop-opacity:0.4392"/>
			<stop  offset="0.8824" style="stop-color:#87561E"/>
			<stop  offset="1" style="stop-color:#291A0A"/>
		</linearGradient>
		<path fill-rule="evenodd" clip-rule="evenodd" fill="url(#SVGID_1_)" d="M37.4,305h186.4h1.4c4.9,0.2,7.9-3.6,8.8-9.4l1.4-15.3
			c0.1,0,0.1,0,0-0.1l7.7-66.4c0.1-0.4,0.3-0.8,0.4-1.2v46.4c0,0.3,0,0.6,0.1,0.8c0.1,4.5-0.2,9.3-0.8,14.2l-6.4,61.6L235,344
			c-1.7,10.3-5.5,15.7-11.2,16H37.3c-2.6,0-4.5-0.6-5.9-1.9c-1.3-1.2-2.1-3.2-2.3-5.8v-52.4C29.6,302.8,32.8,304.3,37.4,305z"/>
	</g>
	<g>
		<linearGradient id="SVGID_2_" gradientUnits="userSpaceOnUse" x1="136.311" y1="300.2114" x2="136.311" y2="359.9749">
			<stop  offset="0" style="stop-color:#4A2E13;stop-opacity:0"/>
			<stop  offset="0.8941" style="stop-color:#71481A;stop-opacity:0.2706"/>
			<stop  offset="1" style="stop-color:#291A0A;stop-opacity:0.4706"/>
		</linearGradient>
		<path fill-rule="evenodd" clip-rule="evenodd" fill="url(#SVGID_2_)" d="M37.4,305h186.4h1.4c4.9,0.2,7.9-3.6,8.8-9.4l-0.3-5.5
			c0.1,0,1.1-14,1.1-14l7.6-63.6c0.1-0.1,0.9,0.1,1,0v46.4c0,0.3,0,0.6,0.1,0.8c0.1,4.5-0.2,9.3-0.8,14.2l-6.4,61.6L235,344
			c-1.7,10.3-5.5,15.7-11.2,16H37.3c-2.6,0-4.5-0.6-5.9-1.9c-1.3-1.2-2.1-3.2-2.3-5.8v-52.4C29.6,302.8,33.5,304.3,37.4,305z"/>
	</g>
	<g>
		<g>
			<linearGradient id="SVGID_3_" gradientUnits="userSpaceOnUse" x1="220.7817" y1="189.3501" x2="64.5815" y2="314.5248">
				<stop  offset="0" style="stop-color:#847B7E"/>
				<stop  offset="1" style="stop-color:#2F2B2C"/>
			</linearGradient>
			<path fill-rule="evenodd" clip-rule="evenodd" fill="url(#SVGID_3_)" d="M234.4,221.1l-5.8,54.1l-1.3,8.9
				c-0.1,2.1-0.8,3.7-1.9,4.7l-8.5,6.9c-1.8,1.5-3.6,2.3-5.4,2.3H50.8c-1.9,0-3.2-0.4-4-1.2l-7.4-7.3c-0.3-0.4-0.5-1-0.6-1.8
				c0-0.6,0-1.2,0-1.9l20.9-69.3c0.2-1.2,0.8-2.2,1.8-2.9l10.4-7.6c1.1-0.9,2.3-1.3,3.7-1.2H224c1.4-0.1,2.4,0.2,3.1,1l7.1,9.4
				c0.6,0.9,0.8,2,0.5,3.4c0,0,0,0.1,0,0.2L234.4,221.1z"/>
			<path fill-rule="evenodd" clip-rule="evenodd" d="M38.8,287.7c0.1,0.7,0.3,1.3,0.6,1.8l7.4,7.3c0.8,0.8,2.1,1.2,4,1.2h160.9
				c1.8,0,3.6-0.7,5.4-2.3l8.5-6.9c1.2-1,1.8-2.6,1.9-4.7l1.3-8.9l5.8-54.1l0.1,0.1l-5.6,54.1l-0.3,2.2l-0.9,6.6l-0.4,2.2
				c0,1.1-0.2,2-0.5,2.9c0,0.1-0.1,0.1-0.1,0.3c0,0-0.1,0.1-0.1,0.2c-0.3,0.5-0.7,1-1.1,1.4l-8.5,6.8c-0.6,0.5-1.2,0.9-1.8,1.2
				c-1.3,0.7-2.5,1-3.6,1H50.8c-1.9,0-3.2-0.4-4-1.2l-7.6-7.5c-0.3-0.3-0.4-0.6-0.4-1.1V287.7z"/>
		</g>
	</g>
	<g>
		<linearGradient id="SVGID_4_" gradientUnits="userSpaceOnUse" x1="35.3252" y1="292.0127" x2="231.1752" y2="292.0127">
			<stop  offset="0" style="stop-color:#FDFDFB;stop-opacity:0"/>
			<stop  offset="0.1333" style="stop-color:#FDFDFC;stop-opacity:0.498"/>
			<stop  offset="0.502" style="stop-color:#FEFEFE;stop-opacity:0.5098"/>
			<stop  offset="0.8549" style="stop-color:#FEFEFE;stop-opacity:0.3647"/>
			<stop  offset="1" style="stop-color:#FFFFFF;stop-opacity:0"/>
		</linearGradient>
		<path fill-rule="evenodd" clip-rule="evenodd" fill="url(#SVGID_4_)" d="M39.2,289.5c0-0.1,0-0.1,0-0.2c0.1,0,0.1,0,0.1,0
			c0.1,0,0.1,0,0.2,0l7.4,7.3c0.7,0.8,2,1.2,3.8,1.2h160.9c0.8-0.1,1.7-0.3,2.6-0.6h-0.1c0.9-0.4,1.8-1,2.7-1.6l8.4-6.8
			c0.8-0.6,1.3-1.5,1.6-2.6c0-0.1,0-0.1,0.1-0.1s0.1,0,0.2,0c0,0,0.1,0,0.1,0.1c0,0.1,0,0.1,0,0.2c-0.3,1.2-0.9,2.1-1.7,2.8
			l-8.5,6.9c-1,0.7-1.9,1.3-2.8,1.7c-0.9,0.4-1.9,0.6-2.8,0.6H50.8c-2,0-3.4-0.4-4.1-1.3l-7.4-7.3C39.2,289.6,39.2,289.5,39.2,289.5
			z"/>
	</g>
	<g>
		<g>
			<g>
				<linearGradient id="SVGID_5_" gradientUnits="userSpaceOnUse" x1="206.0474" y1="272.0132" x2="206.0541" y2="289.8882">
					<stop  offset="0" style="stop-color:#000000"/>
					<stop  offset="1" style="stop-color:#0E0E0E;stop-opacity:0"/>
				</linearGradient>
				<path fill-rule="evenodd" clip-rule="evenodd" fill="url(#SVGID_5_)" d="M203.6,295L203.6,295h-0.1c-1.9-0.1-3.7-0.4-5.4-0.9
					H198v-1.5V278h0.1c1.7,0.5,3.5,0.8,5.4,0.9h0.1V295z M218.9,275.9c2.1-1.3,3.2-2.9,3.3-4.6v16.1c0,1.7-1.1,3.3-3.3,4.6V275.9z
					 M214.8,277.8V292v0.2v1.7c-1.8,0.6-3.8,0.9-6,1.1h0v-16.1h0C211,278.7,213,278.4,214.8,277.8z M193.9,276.3v16.1v0
					c-2.6-1.4-3.9-3.1-3.9-4.9v-16.1C190,273.3,191.3,274.9,193.9,276.3z"/>
				
					<linearGradient id="SVGID_6_" gradientUnits="userSpaceOnUse" x1="274.2944" y1="-206.3569" x2="289.8944" y2="-206.3569" gradientTransform="matrix(6.410256e-005 1 -1 -9.970090e-004 -2.373984e-004 -1.642522e-004)">
					<stop  offset="0" style="stop-color:#000000"/>
					<stop  offset="1" style="stop-color:#0E0E0E;stop-opacity:0"/>
				</linearGradient>
				<path fill-rule="evenodd" clip-rule="evenodd" fill="url(#SVGID_6_)" d="M193.9,292.4v-16.1v0h0c0.4-0.3,1-0.4,1.7-0.4
					c0.7,0,1.3,0.1,1.9,0.4c0,0,0,0,0,0c0.2,0.1,0.4,0.2,0.5,0.3v1.5v14.6c-0.2-0.1-0.3-0.2-0.5-0.3l0-0.1c-0.6-0.2-1.2-0.3-1.9-0.3
					C194.9,292,194.3,292.1,193.9,292.4L193.9,292.4z M203.6,278.9c0.1-0.3,0.3-0.5,0.8-0.7c0.5-0.2,1.1-0.4,1.8-0.4
					c0.7,0,1.3,0.1,1.8,0.4h0.1c0.4,0.2,0.6,0.4,0.8,0.7V295v0c-0.1-0.3-0.4-0.5-0.8-0.7l-0.1-0.1c-0.5-0.2-1.1-0.3-1.8-0.3
					c-0.7,0-1.3,0.1-1.8,0.4c-0.4,0.2-0.7,0.4-0.8,0.7V278.9z M214.8,277.8v-1.9h0.5c0.6-0.2,1.3-0.4,2-0.4c0.7,0,1.2,0.1,1.6,0.4h0
					v0V292l0,0c-0.4-0.2-1-0.4-1.6-0.4c-0.7,0-1.4,0.1-2,0.4h-0.5V277.8z"/>
			</g>
		</g>
		<g>
			<g>
				<path fill-rule="evenodd" clip-rule="evenodd" d="M190.1,257.7c0.6,0,1.2,0.1,1.6,0.3h0c0.5,0.3,0.8,0.6,0.8,0.9
					c0,0.3-0.3,0.6-0.8,0.8l0,0.1c-0.4,0.2-1,0.3-1.6,0.4c0.6,0,1.2-0.2,1.6-0.4l0-0.1c0.5-0.2,0.8-0.5,0.8-0.8
					c0-0.3-0.3-0.6-0.8-0.9h0C191.3,257.8,190.8,257.7,190.1,257.7v-0.1c0.5-1.4,1.8-2.6,3.8-3.8l0,0c0.5,0.2,1,0.4,1.8,0.4
					c0.4,0,0.8,0,1.2-0.1c0.2-0.1,0.3-0.1,0.5-0.2c0,0,0.1,0,0.1,0v-0.1c0,0,0.1,0,0.1,0c0.1-0.1,0.2-0.1,0.3-0.2c0,0,0.1,0,0.1-0.1
					c0,0,0.1,0,0.1,0c0.3-0.2,0.4-0.4,0.4-0.6c0.1-0.3-0.1-0.6-0.4-0.8c0.4,0.2,0.5,0.5,0.4,0.8c0,0.2-0.2,0.4-0.4,0.6v-1.4
					c1.7-0.5,3.5-0.8,5.5-0.9c0,0.4,0.3,0.7,0.8,0.9c0.4,0.2,0.9,0.4,1.5,0.4c0,0,0.1,0,0.1,0c0.1,0,0.1,0,0.2,0
					c0.7,0,1.3-0.1,1.8-0.4c0.5-0.2,0.8-0.5,0.8-0.9c1.8,0.1,3.5,0.4,5.1,0.9v0.1c-0.4,0.3-0.5,0.6-0.4,0.9c0.1,0.2,0.2,0.4,0.4,0.5
					l0.1,0.1c0.1,0.1,0.3,0.1,0.4,0.2c0.2,0.1,0.3,0.1,0.5,0.1c0,0,0.1,0.1,0.1,0.1c0.4,0.1,0.8,0.1,1.3,0.1c0.6,0,1.2-0.1,1.6-0.4
					c0,0,0.1,0,0.1-0.1v0c2,1,3.3,2.2,3.9,3.5v0c-0.6,0-1.1,0.1-1.6,0.4s-0.7,0.5-0.7,0.9c0,0.4,0.2,0.7,0.7,0.9s1,0.4,1.6,0.4
					c0.1,0,0.1,0,0.3,0c0,0,0.1,0,0.1,0c-0.1,0.4-0.2,0.8-0.4,1.1c-0.5,1.1-1.4,2-2.9,2.9h0c-0.4-0.2-1-0.4-1.6-0.4
					c-0.7,0-1.4,0.1-2,0.4c-0.2,0.1-0.3,0.1-0.5,0.3c-0.3,0.2-0.5,0.4-0.6,0.6c-0.1,0.2-0.1,0.3,0,0.5c0.1-0.2,0.3-0.4,0.6-0.5
					c0.1-0.1,0.3-0.2,0.5-0.3c0.6-0.2,1.3-0.4,2-0.4c0.7,0,1.2,0.1,1.6,0.4h0c1.4-0.9,2.4-1.8,2.9-2.9c0.2-0.4,0.3-0.8,0.4-1.2h0
					v11.6c0,1.7-1.1,3.3-3.3,4.6l0,0c-0.4-0.2-1-0.4-1.6-0.4c-0.7,0-1.4,0.1-2,0.4h-0.5v1.9c-1.8,0.6-3.8,0.9-6,1.1h0v0
					c-0.1-0.3-0.4-0.5-0.8-0.8h-0.1c-0.5-0.2-1.1-0.3-1.8-0.3c-0.7,0-1.3,0.1-1.8,0.3c-0.4,0.2-0.7,0.5-0.8,0.8h-0.1
					c-1.9-0.1-3.7-0.4-5.4-0.9c0,0,0,0-0.1,0v-1.5c-0.1-0.1-0.3-0.2-0.5-0.3c0,0,0,0,0-0.1c-0.6-0.2-1.2-0.3-1.9-0.3
					c-0.7,0-1.3,0.1-1.7,0.4h0v0c-2.6-1.4-3.9-3-3.9-4.9v-11.2c0,0.1,0.1,0.3,0.2,0.4c0.8,1.4,2,2.6,3.7,3.5h0v0
					c0.4-0.2,1-0.4,1.7-0.4c0.7,0,1.3,0.1,1.9,0.4h0c0.2,0.1,0.4,0.2,0.6,0.3c0.2,0.1,0.4,0.3,0.4,0.5c0.1-0.1,0.1-0.3,0-0.5
					c-0.1-0.2-0.2-0.4-0.4-0.6c-0.2-0.1-0.4-0.2-0.6-0.3h0c-0.6-0.2-1.2-0.4-1.9-0.4c-0.7,0-1.3,0.1-1.7,0.4v0h0
					c-1.7-0.9-2.9-2.1-3.7-3.5c-0.1-0.1-0.2-0.3-0.2-0.4h0.1c0,0,0.1,0,0.1,0V257.7z M213.8,252.2
					C213.8,252.2,213.8,252.2,213.8,252.2l0.1,1.5l-0.1-0.1c-0.2-0.2-0.4-0.4-0.4-0.5C213.3,252.8,213.4,252.5,213.8,252.2z
					 M221.8,257.3v2.5c-0.6,0-1.1-0.1-1.6-0.4s-0.7-0.5-0.7-0.9c0-0.3,0.2-0.6,0.7-0.9S221.1,257.3,221.8,257.3z M205.9,264.4
					l-0.4,0v0c-1.2,0-2.3-0.1-3.4-0.3c-1.7-0.2-3.2-0.6-4.5-1.2c-0.2-0.1-0.3-0.1-0.5-0.2c-1.3-0.6-2.2-1.2-2.8-1.9
					c-0.6-0.7-0.9-1.4-0.9-2.1c0-1,0.5-1.9,1.6-2.8c0.5-0.4,1.2-0.8,2-1.2c0.2-0.1,0.4-0.1,0.6-0.3h0c1.3-0.5,2.7-0.9,4.3-1.1
					c1.2-0.2,2.4-0.3,3.8-0.3c0,0,0.1,0,0.1,0c0.1,0,0.1,0,0.2,0c1.2,0,2.3,0.1,3.4,0.3c1.6,0.2,3.1,0.6,4.4,1.1c0,0,0.1,0,0.1,0
					c0.2,0.1,0.4,0.1,0.5,0.2c1.4,0.6,2.4,1.3,3,2c0.5,0.6,0.7,1.2,0.7,1.9c0,1.1-0.6,2-1.7,2.9c-0.5,0.4-1.2,0.7-2,1
					c-1.5,0.7-3.2,1.2-5.1,1.5C208.4,264.3,207.1,264.4,205.9,264.4c1.3,0,2.5-0.1,3.6-0.2c1.9-0.3,3.6-0.8,5.1-1.5
					c0.8-0.3,1.4-0.7,2-1c1.1-0.9,1.7-1.8,1.7-2.9c0-0.7-0.2-1.3-0.7-1.9c-0.6-0.7-1.6-1.4-3-2c-0.2-0.1-0.3-0.1-0.5-0.2
					c0,0-0.1,0-0.1,0c-1.3-0.5-2.8-0.9-4.4-1.1c-1.1-0.2-2.2-0.3-3.4-0.3c-0.1,0-0.1,0-0.2,0c0,0-0.1,0-0.1,0
					c-1.3,0-2.6,0.1-3.8,0.3c-1.6,0.2-3,0.6-4.3,1.1h0c-0.2,0.1-0.4,0.2-0.6,0.3c-0.8,0.4-1.5,0.8-2,1.2c-1.1,0.8-1.6,1.7-1.6,2.8
					c0,0.7,0.3,1.4,0.9,2.1c0.6,0.7,1.5,1.3,2.8,1.9c0.1,0.1,0.3,0.1,0.5,0.2c1.3,0.6,2.8,1,4.5,1.2c1.1,0.1,2.2,0.2,3.4,0.3
					C205.6,264.4,205.7,264.4,205.9,264.4z M214.3,265.8c-0.2,0-0.3,0.1-0.5,0.1c-1.6,0.4-3.3,0.7-5.1,0.9c-0.1-0.3-0.3-0.5-0.8-0.7
					c0,0-0.1,0-0.1,0c-0.5-0.2-1.1-0.4-1.8-0.4c-0.2,0-0.5,0-0.7,0.1c-0.4,0.1-0.8,0.2-1.1,0.3c-0.5,0.2-0.7,0.5-0.8,0.8
					c0,0-0.1,0-0.1,0c-1.8-0.1-3.4-0.4-5-0.8c0,0.1-0.1,0.2-0.2,0.3c-0.1,0.1-0.1,0.1-0.3,0.2c0,0,0,0-0.1,0h0.1
					c1.7,0.5,3.5,0.8,5.4,0.9c0,0,0.1,0,0.1,0c0-0.3,0.3-0.5,0.8-0.8c0.3-0.2,0.7-0.3,1.1-0.3c0.2,0,0.5-0.1,0.7-0.1
					c0.7,0,1.3,0.1,1.8,0.3c0,0,0,0,0.1,0c0.4,0.2,0.7,0.5,0.8,0.8c1.8-0.2,3.5-0.5,5.1-0.9c0.3-0.1,0.7-0.1,1-0.3
					c-0.1,0-0.1-0.1-0.2-0.1C214.4,266,214.3,265.9,214.3,265.8z"/>
				<path fill-rule="evenodd" clip-rule="evenodd" fill="none" d="M198.1,253.6c0.3-0.2,0.4-0.4,0.4-0.6c0.1-0.3-0.1-0.6-0.4-0.8
					 M190.1,257.6v0.1c0.6,0,1.2,0.1,1.6,0.3h0c0.5,0.3,0.8,0.6,0.8,0.9c0,0.3-0.3,0.6-0.8,0.8l0,0.1c-0.4,0.2-1,0.3-1.6,0.4
					c0,0-0.1,0-0.1,0H190c0,0.1,0.1,0.3,0.2,0.4c0.8,1.4,2,2.6,3.7,3.5h0v0c0.4-0.2,1-0.4,1.7-0.4c0.7,0,1.3,0.1,1.9,0.4h0
					c0.2,0.1,0.4,0.2,0.6,0.3c0.2,0.2,0.4,0.4,0.4,0.6c0.1,0.2,0.1,0.4,0,0.5 M214.2,265.1c-0.1-0.2-0.1-0.3,0-0.5
					c0.1-0.3,0.3-0.5,0.6-0.6c0.1-0.1,0.3-0.2,0.5-0.3c0.6-0.2,1.3-0.4,2-0.4c0.7,0,1.2,0.1,1.6,0.4h0c1.4-0.9,2.4-1.8,2.9-2.9
					c0.2-0.4,0.3-0.8,0.4-1.1c0,0-0.1,0-0.1,0c-0.1,0-0.2,0-0.3,0c-0.6,0-1.1-0.1-1.6-0.4s-0.7-0.5-0.7-0.9c0-0.3,0.2-0.6,0.7-0.9
					s1-0.4,1.6-0.4 M213.9,253.7L213.9,253.7c-0.3-0.2-0.4-0.4-0.5-0.6c-0.1-0.3,0-0.6,0.4-0.9v-0.1 M205.5,264.4
					c-1.2,0-2.3-0.1-3.4-0.3c-1.7-0.2-3.2-0.6-4.5-1.2c-0.2-0.1-0.3-0.1-0.5-0.2c-1.3-0.6-2.2-1.2-2.8-1.9c-0.6-0.7-0.9-1.4-0.9-2.1
					c0-1,0.5-1.9,1.6-2.8c0.5-0.4,1.2-0.8,2-1.2c0.2-0.1,0.4-0.1,0.6-0.3h0c1.3-0.5,2.7-0.9,4.3-1.1c1.2-0.2,2.4-0.3,3.8-0.3
					c0,0,0.1,0,0.1,0c0.1,0,0.1,0,0.2,0c1.2,0,2.3,0.1,3.4,0.3c1.6,0.2,3.1,0.6,4.4,1.1c0,0,0.1,0,0.1,0c0.2,0.1,0.4,0.1,0.5,0.2
					c1.4,0.6,2.4,1.3,3,2c0.5,0.6,0.7,1.2,0.7,1.9c0,1.1-0.6,2-1.7,2.9c-0.5,0.4-1.2,0.7-2,1c-1.5,0.7-3.2,1.2-5.1,1.5
					c-1.1,0.1-2.3,0.2-3.6,0.2C205.7,264.4,205.6,264.4,205.5,264.4z M198.5,266c1.5,0.4,3.2,0.6,5,0.8c0,0,0.1,0,0.1,0
					c0-0.3,0.3-0.5,0.8-0.8c0.3-0.2,0.7-0.3,1.1-0.3c0.2,0,0.5-0.1,0.7-0.1c0.7,0,1.3,0.1,1.8,0.4c0,0,0,0,0.1,0
					c0.4,0.2,0.7,0.4,0.8,0.7c1.8-0.1,3.5-0.4,5.1-0.9c0.1,0,0.3-0.1,0.5-0.1"/>
			</g>
		</g>
		<g>
			<g>
				<path fill-rule="evenodd" clip-rule="evenodd" d="M198.1,251.9c0.4,0.2,0.5,0.5,0.4,0.8c0,0.2-0.2,0.4-0.4,0.6V251.9z
					 M190.1,259.8v-2.4c0.6,0,1.2,0.1,1.6,0.3l0,0.1c0.5,0.2,0.8,0.5,0.8,0.9c0,0.3-0.3,0.6-0.8,0.9l0,0
					C191.3,259.7,190.8,259.8,190.1,259.8z M213.8,251.9C213.8,251.9,213.8,251.8,213.8,251.9l0.1,1.4h-0.1
					c-0.2-0.2-0.4-0.4-0.4-0.6C213.3,252.4,213.4,252.1,213.8,251.9z"/>
				<path fill-rule="evenodd" clip-rule="evenodd" fill="#151515" d="M198.1,251.9c1.7-0.5,3.5-0.8,5.5-1c0,0.4,0.3,0.7,0.8,0.9
					c0.4,0.2,0.9,0.3,1.5,0.4c0,0,0.1,0,0.1,0c0.1,0,0.1,0,0.2,0c0.7,0,1.3-0.1,1.8-0.4c0.5-0.2,0.8-0.5,0.8-0.9
					c1.8,0.2,3.5,0.5,5.1,0.9v0.1c-0.4,0.2-0.5,0.5-0.4,0.9c0.1,0.2,0.2,0.4,0.4,0.6h0.1c0.1,0.1,0.3,0.2,0.4,0.3
					c0.2,0.1,0.3,0.1,0.5,0.2c0,0,0.1,0,0.1,0c0.4,0.1,0.8,0.1,1.3,0.1c0.6,0,1.2-0.1,1.6-0.4c0,0,0.1,0,0.1,0v-0.1
					c2,1,3.3,2.1,3.9,3.5c-0.6,0-1.1,0.2-1.6,0.4s-0.7,0.5-0.7,0.9c0,0.4,0.2,0.6,0.7,0.9c0.5,0.2,1,0.4,1.6,0.4c0.1,0,0.1,0,0.3,0
					c0,0,0.1,0,0.1,0c-0.1,0.4-0.2,0.7-0.4,1.1c-0.5,1.1-1.4,2-2.9,2.9l0,0c-0.4-0.2-1-0.3-1.6-0.3c-0.7,0-1.4,0.1-2,0.4
					c-0.2,0.1-0.3,0.1-0.5,0.2c-0.3,0.2-0.5,0.4-0.6,0.6c-0.1,0.4,0,0.7,0.4,0.9c0.1,0,0.1,0.1,0.2,0.1c-0.3,0.1-0.7,0.2-1,0.3
					c-1.6,0.4-3.3,0.7-5.1,0.9c-0.1-0.3-0.3-0.5-0.8-0.8h-0.1c-0.5-0.2-1.1-0.4-1.8-0.4c-0.2,0-0.5,0-0.7,0.1
					c-0.4,0-0.8,0.1-1.1,0.3c-0.5,0.2-0.7,0.5-0.8,0.8c0,0-0.1-0.1-0.1-0.1c-1.9-0.1-3.7-0.4-5.4-0.9v0c0.1,0,0.2-0.1,0.3-0.2
					c0.2-0.2,0.3-0.4,0.2-0.7c-0.1-0.2-0.2-0.4-0.4-0.6c-0.2-0.1-0.4-0.2-0.6-0.3l0,0c-0.6-0.2-1.2-0.4-1.9-0.4
					c-0.7,0-1.3,0.1-1.7,0.4c0,0,0,0,0,0c-1.7-0.9-2.9-2.1-3.7-3.6c-0.1-0.1-0.2-0.3-0.2-0.4h0.1c0,0,0.1,0,0.1,0
					c0.6,0,1.2-0.1,1.6-0.3l0,0c0.5-0.2,0.8-0.5,0.8-0.9c0-0.4-0.3-0.7-0.8-0.9l0-0.1c-0.4-0.2-1-0.3-1.6-0.3v-0.1
					c0.5-1.4,1.8-2.6,3.8-3.8h0c0.5,0.3,1,0.4,1.8,0.4c0.4,0,0.8,0,1.2-0.1c0.2,0,0.3-0.1,0.5-0.1c0,0,0.1,0,0.1-0.1
					c0,0,0.1,0,0.1,0c0.1,0,0.2-0.1,0.3-0.1c0,0,0.1-0.1,0.1-0.1h0.1c0.3-0.2,0.4-0.4,0.4-0.6C198.6,252.3,198.5,252,198.1,251.9z
					 M194.4,260.5c0.6,0.7,1.5,1.3,2.8,1.9c0.1,0.1,0.3,0.1,0.5,0.2c1.3,0.5,2.8,0.9,4.5,1.2c1.1,0.1,2.2,0.2,3.4,0.3
					c0.1,0,0.2,0,0.4,0c1.3,0,2.5-0.1,3.6-0.3c1.9-0.3,3.6-0.7,5.1-1.4c0.8-0.3,1.4-0.7,2-1.1c1.1-0.8,1.7-1.8,1.7-2.8
					c0-0.7-0.2-1.3-0.7-1.9c-0.6-0.8-1.6-1.4-3-2c-0.2-0.1-0.3-0.2-0.5-0.3c0,0-0.1,0-0.1,0c-1.3-0.5-2.8-0.9-4.4-1.1
					c-1.1-0.1-2.2-0.2-3.4-0.2c-0.1,0-0.1,0-0.2,0c0,0-0.1,0-0.1,0c-1.3,0-2.6,0.1-3.8,0.2c-1.6,0.2-3,0.6-4.3,1.1l0,0
					c-0.2,0.1-0.4,0.1-0.6,0.3c-0.8,0.4-1.5,0.8-2,1.1c-1.1,0.8-1.6,1.8-1.6,2.8C193.5,259.2,193.8,259.9,194.4,260.5z"/>
				<linearGradient id="SVGID_7_" gradientUnits="userSpaceOnUse" x1="199.2124" y1="259.8154" x2="200.8874" y2="253.6154">
					<stop  offset="0" style="stop-color:#8A7D72"/>
					<stop  offset="0.4745" style="stop-color:#755A51"/>
					<stop  offset="1" style="stop-color:#BBB1AF"/>
				</linearGradient>
				<path fill-rule="evenodd" clip-rule="evenodd" fill="url(#SVGID_7_)" d="M205.8,258.5l-11.4,2c-0.6-0.6-0.9-1.3-0.9-2
					c0-1,0.5-2,1.6-2.8c0.5-0.4,1.2-0.8,2-1.1c0.2-0.1,0.4-0.2,0.6-0.3l0,0c1.3-0.5,2.7-0.9,4.3-1.1L205.8,258.5z"/>
				<linearGradient id="SVGID_8_" gradientUnits="userSpaceOnUse" x1="198.5752" y1="269.75" x2="193.8252" y2="269.75">
					<stop  offset="0" style="stop-color:#050505"/>
					<stop  offset="0.4588" style="stop-color:#0B0B0B"/>
					<stop  offset="1" style="stop-color:#262626"/>
				</linearGradient>
				<path fill-rule="evenodd" clip-rule="evenodd" fill="url(#SVGID_8_)" d="M198,265.5v10.6c-0.1-0.1-0.3-0.2-0.5-0.3h0
					c-0.6-0.2-1.2-0.4-1.9-0.4c-0.7,0-1.3,0.1-1.7,0.4v0h0v-12.1c0,0,0,0,0,0c0.4-0.3,1-0.4,1.7-0.4c0.7,0,1.3,0.1,1.9,0.4l0,0
					c0.2,0.1,0.4,0.2,0.6,0.3c0.2,0.1,0.4,0.3,0.4,0.6c0.1,0.3,0,0.5-0.2,0.7C198.3,265.4,198.2,265.4,198,265.5
					C198.1,265.5,198.1,265.5,198,265.5z"/>
				<linearGradient id="SVGID_9_" gradientUnits="userSpaceOnUse" x1="189.9502" y1="268.9502" x2="222.1499" y2="268.9502">
					<stop  offset="0" style="stop-color:#050505"/>
					<stop  offset="0.251" style="stop-color:#1E1E1E"/>
					<stop  offset="0.4902" style="stop-color:#222222"/>
					<stop  offset="0.6431" style="stop-color:#1C1C1C"/>
					<stop  offset="1" style="stop-color:#000000"/>
				</linearGradient>
				<path fill-rule="evenodd" clip-rule="evenodd" fill="url(#SVGID_9_)" d="M193.9,263.8v12.1c-2.6-1.4-3.9-3-3.9-4.9v-11.2
					c0,0.1,0.1,0.3,0.2,0.4C191,261.7,192.2,262.9,193.9,263.8z M203.6,266.5v12.1h-0.1c-1.9-0.1-3.7-0.4-5.4-0.9H198v-1.5v-10.6
					h0.1c1.7,0.5,3.5,0.8,5.4,0.9C203.5,266.4,203.6,266.4,203.6,266.5z M218.9,275.5v-12.1c1.4-0.9,2.4-1.9,2.9-2.9
					c0.2-0.4,0.3-0.7,0.4-1.1h0v11.5C222.1,272.6,221,274.2,218.9,275.5z"/>
				<linearGradient id="SVGID_10_" gradientUnits="userSpaceOnUse" x1="201.354" y1="261.7627" x2="199.7095" y2="258.9095">
					<stop  offset="0" style="stop-color:#F1EDEC"/>
					<stop  offset="0.4745" style="stop-color:#B1A3A3"/>
					<stop  offset="1" style="stop-color:#756858"/>
				</linearGradient>
				<path fill-rule="evenodd" clip-rule="evenodd" fill="url(#SVGID_10_)" d="M194.4,260.5l11.4-2l-3.6,5.3
					c-1.7-0.3-3.2-0.7-4.5-1.2c-0.2-0.1-0.3-0.1-0.5-0.2C195.9,261.8,195,261.2,194.4,260.5z"/>
				<linearGradient id="SVGID_11_" gradientUnits="userSpaceOnUse" x1="212" y1="255.8877" x2="212" y2="262.2127">
					<stop  offset="0" style="stop-color:#B1A3A3"/>
					<stop  offset="0.3804" style="stop-color:#756858"/>
					<stop  offset="1" style="stop-color:#755A51"/>
				</linearGradient>
				<path fill-rule="evenodd" clip-rule="evenodd" fill="url(#SVGID_11_)" d="M216.5,261.3l-10.7-2.8l8.1-4.3c0,0,0.1,0,0.1,0
					c0.2,0.1,0.4,0.1,0.5,0.3c1.4,0.6,2.4,1.3,3,2c0.5,0.6,0.7,1.2,0.7,1.9C218.2,259.5,217.6,260.5,216.5,261.3z"/>
				<linearGradient id="SVGID_12_" gradientUnits="userSpaceOnUse" x1="219.4502" y1="258.1001" x2="221.75" y2="258.1001">
					<stop  offset="0" style="stop-color:#050505"/>
					<stop  offset="0.5647" style="stop-color:#090909"/>
					<stop  offset="1" style="stop-color:#444444"/>
				</linearGradient>
				<path fill-rule="evenodd" clip-rule="evenodd" fill="url(#SVGID_12_)" d="M221.8,256.9v2.5c-0.6,0-1.1-0.2-1.6-0.4
					c-0.5-0.2-0.7-0.5-0.7-0.9c0-0.3,0.2-0.6,0.7-0.9S221.1,256.9,221.8,256.9z"/>
				<linearGradient id="SVGID_13_" gradientUnits="userSpaceOnUse" x1="201.9043" y1="254.1797" x2="211.9802" y2="256.8763">
					<stop  offset="0" style="stop-color:#BBB1AF"/>
					<stop  offset="0.3804" style="stop-color:#F1EDEC"/>
					<stop  offset="1" style="stop-color:#B1A3A3"/>
				</linearGradient>
				<path fill-rule="evenodd" clip-rule="evenodd" fill="url(#SVGID_13_)" d="M205.8,258.5l-3.6-5.4c1.2-0.1,2.4-0.2,3.8-0.2
					c0,0,0.1,0,0.1,0c0.1,0,0.1,0,0.2,0c1.2,0,2.3,0.1,3.4,0.2c1.6,0.2,3.1,0.6,4.4,1.1L205.8,258.5L205.8,258.5z"/>
				<linearGradient id="SVGID_14_" gradientUnits="userSpaceOnUse" x1="202.1348" y1="262.6865" x2="209.2086" y2="260.8071">
					<stop  offset="0" style="stop-color:#E1DCDA"/>
					<stop  offset="0.2078" style="stop-color:#FFFFFF"/>
					<stop  offset="0.5333" style="stop-color:#BBB1AF"/>
					<stop  offset="1" style="stop-color:#755D52"/>
				</linearGradient>
				<path fill-rule="evenodd" clip-rule="evenodd" fill="url(#SVGID_14_)" d="M202.1,263.8l3.6-5.3h0l10.7,2.8
					c-0.5,0.4-1.2,0.8-2,1.1c-1.5,0.7-3.2,1.1-5.1,1.4c-1.1,0.2-2.3,0.3-3.6,0.3l-0.4,0v0C204.3,264,203.2,263.9,202.1,263.8z"/>
				<linearGradient id="SVGID_15_" gradientUnits="userSpaceOnUse" x1="203.6001" y1="271.9248" x2="208.7002" y2="271.9248">
					<stop  offset="0" style="stop-color:#050505"/>
					<stop  offset="0.4902" style="stop-color:#151515"/>
					<stop  offset="1" style="stop-color:#000000"/>
				</linearGradient>
				<path fill-rule="evenodd" clip-rule="evenodd" fill="url(#SVGID_15_)" d="M203.6,278.5v-12.1c0-0.3,0.3-0.6,0.8-0.8
					c0.3-0.2,0.7-0.3,1.1-0.3c0.2,0,0.5-0.1,0.7-0.1c0.7,0,1.3,0.1,1.8,0.4h0.1c0.4,0.2,0.7,0.5,0.8,0.8v12.1
					c-0.1-0.3-0.4-0.5-0.8-0.7l-0.1-0.1c-0.5-0.2-1.1-0.3-1.8-0.3c-0.7,0-1.3,0.1-1.8,0.4C203.9,278,203.7,278.3,203.6,278.5z"/>
				<linearGradient id="SVGID_16_" gradientUnits="userSpaceOnUse" x1="214.125" y1="269.2749" x2="218.8745" y2="269.2749">
					<stop  offset="0" style="stop-color:#050505"/>
					<stop  offset="0.5647" style="stop-color:#090909"/>
					<stop  offset="1" style="stop-color:#292929"/>
				</linearGradient>
				<path fill-rule="evenodd" clip-rule="evenodd" fill="url(#SVGID_16_)" d="M218.9,263.4v12.1l0,0c-0.4-0.2-1-0.3-1.6-0.3
					c-0.7,0-1.4,0.1-2,0.4h-0.5v-10.3c-0.1,0-0.1-0.1-0.2-0.1c-0.4-0.2-0.5-0.5-0.4-0.9c0.1-0.2,0.3-0.5,0.6-0.6
					c0.1-0.1,0.3-0.1,0.5-0.2c0.6-0.2,1.3-0.4,2-0.4C217.9,263,218.4,263.1,218.9,263.4L218.9,263.4z"/>
				<linearGradient id="SVGID_17_" gradientUnits="userSpaceOnUse" x1="189.9375" y1="271.8999" x2="222.1625" y2="271.8999">
					<stop  offset="0" style="stop-color:#050505"/>
					<stop  offset="0.251" style="stop-color:#1E1E1E"/>
					<stop  offset="0.5686" style="stop-color:#151515"/>
					<stop  offset="0.8157" style="stop-color:#1B1B1B"/>
					<stop  offset="1" style="stop-color:#000000"/>
				</linearGradient>
				<path fill-rule="evenodd" clip-rule="evenodd" fill="url(#SVGID_17_)" d="M208.7,278.5v-12.1c1.8-0.1,3.5-0.4,5.1-0.9
					c0.3-0.1,0.7-0.2,1-0.3v10.3v1.9C213,278,211,278.4,208.7,278.5L208.7,278.5z"/>
				<path fill-rule="evenodd" clip-rule="evenodd" fill="none" d="M198.1,253.3c0.3-0.2,0.4-0.4,0.4-0.6c0.1-0.3-0.1-0.6-0.4-0.8
					 M190.1,257.3v0.1c0.6,0,1.2,0.1,1.6,0.3l0,0.1c0.5,0.2,0.8,0.5,0.8,0.9c0,0.3-0.3,0.6-0.8,0.9l0,0c-0.4,0.2-1,0.3-1.6,0.3
					c0,0-0.1,0-0.1,0H190c0,0.1,0.1,0.3,0.2,0.4c0.8,1.5,2,2.7,3.7,3.6c0,0,0,0,0,0c0.4-0.3,1-0.4,1.7-0.4c0.7,0,1.3,0.1,1.9,0.4
					l0,0c0.2,0.1,0.4,0.2,0.6,0.3c0.2,0.1,0.4,0.3,0.4,0.6c0.1,0.3,0,0.5-0.2,0.7c-0.1,0.1-0.1,0.1-0.3,0.2v0
					c1.7,0.5,3.5,0.8,5.4,0.9c0,0,0.1,0,0.1,0.1c0-0.3,0.3-0.6,0.8-0.8c0.3-0.2,0.7-0.3,1.1-0.3c0.2,0,0.5-0.1,0.7-0.1
					c0.7,0,1.3,0.1,1.8,0.4h0.1c0.4,0.2,0.7,0.5,0.8,0.8c1.8-0.1,3.5-0.4,5.1-0.9c0.3-0.1,0.7-0.2,1-0.3c-0.1,0-0.1-0.1-0.2-0.1
					c-0.4-0.2-0.5-0.5-0.4-0.9c0.1-0.2,0.3-0.5,0.6-0.6c0.1-0.1,0.3-0.1,0.5-0.2c0.6-0.2,1.3-0.4,2-0.4c0.7,0,1.2,0.1,1.6,0.3l0,0
					c1.4-0.9,2.4-1.9,2.9-2.9c0.2-0.4,0.3-0.7,0.4-1.1c0,0-0.1,0-0.1,0c-0.1,0-0.2,0-0.3,0c-0.6,0-1.1-0.2-1.6-0.4
					c-0.5-0.2-0.7-0.5-0.7-0.9c0-0.3,0.2-0.6,0.7-0.9s1-0.4,1.6-0.4 M213.9,253.3L213.9,253.3c-0.3-0.2-0.4-0.4-0.5-0.6
					c-0.1-0.3,0-0.6,0.4-0.9v-0.1 M194.4,260.5c-0.6-0.6-0.9-1.3-0.9-2c0-1,0.5-2,1.6-2.8c0.5-0.4,1.2-0.8,2-1.1
					c0.2-0.1,0.4-0.2,0.6-0.3l0,0c1.3-0.5,2.7-0.9,4.3-1.1c1.2-0.1,2.4-0.2,3.8-0.2c0,0,0.1,0,0.1,0c0.1,0,0.1,0,0.2,0
					c1.2,0,2.3,0.1,3.4,0.2c1.6,0.2,3.1,0.6,4.4,1.1c0,0,0.1,0,0.1,0c0.2,0.1,0.4,0.1,0.5,0.3c1.4,0.6,2.4,1.3,3,2
					c0.5,0.6,0.7,1.2,0.7,1.9c0,1.1-0.6,2-1.7,2.8c-0.5,0.4-1.2,0.8-2,1.1c-1.5,0.7-3.2,1.1-5.1,1.4c-1.1,0.2-2.3,0.3-3.6,0.3
					c-0.1,0-0.3,0-0.4,0c-1.2,0-2.3-0.1-3.4-0.3c-1.7-0.3-3.2-0.7-4.5-1.2c-0.2-0.1-0.3-0.1-0.5-0.2
					C195.9,261.8,195,261.2,194.4,260.5z"/>
			</g>
		</g>
		<g>
			<g>
				<linearGradient id="SVGID_18_" gradientUnits="userSpaceOnUse" x1="188.3252" y1="258.5752" x2="191.9752" y2="258.5752">
					<stop  offset="0" style="stop-color:#808080"/>
					<stop  offset="1" style="stop-color:#000000"/>
				</linearGradient>
				<path fill-rule="evenodd" clip-rule="evenodd" fill="url(#SVGID_18_)" d="M190.3,259.8L190.3,259.8c0-0.1-0.1-0.1-0.1-0.1v-2.4
					c0.6,0,1.2,0.1,1.6,0.3l0,0.1c0.5,0.2,0.8,0.5,0.8,0.9c0,0.3-0.3,0.6-0.8,0.9l0,0C191.4,259.7,190.9,259.8,190.3,259.8z"/>
				<path fill-rule="evenodd" clip-rule="evenodd" d="M190.1,259.7C190.2,259.7,190.2,259.7,190.1,259.7l0.1,0.1c0,0,0,0.1,0,0.1
					c0,0,0,0.1-0.1,0.1s-0.1,0-0.1,0v11c0,0,0,0,0,0c0,0,0,0,0,0c0,0-0.1,0-0.1,0c0,0-0.1,0-0.1,0v-11.2l0.1,0c0,0,0.1,0,0.1,0h0.1
					C190.1,259.7,190.1,259.7,190.1,259.7z M221.8,259.2c0.1,0,0.1,0,0.3,0c0,0,0.1,0,0.1,0h0c0,0,0.1,0,0.1,0s0,0.1,0,0.1
					s0,0.1,0,0.1c0,0-0.1,0-0.1,0h0c0,0-0.1,0-0.1,0c-0.1,0-0.2,0-0.3,0h0c0,0-0.1-0.1-0.1-0.1S221.7,259.3,221.8,259.2
					C221.7,259.2,221.7,259.2,221.8,259.2z M198.2,265.5v12.1l-0.1,0.1c0,0-0.1,0-0.1,0c0,0,0,0,0,0l0-0.1v-12.2c0,0,0,0.1,0,0.1
					l0,0.1C198.1,265.6,198.1,265.6,198.2,265.5C198.1,265.6,198.2,265.5,198.2,265.5z M218.8,275.5
					C218.8,275.5,218.8,275.5,218.8,275.5c0.1,0.1,0.1,0.1,0.1,0.1s0.1,0,0.1-0.1c0,0,0,0,0,0v0c0,0,0,0.1,0,0.1c0,0,0,0-0.1,0
					s-0.1,0-0.1,0C218.8,275.6,218.8,275.6,218.8,275.5L218.8,275.5z M214.6,265.4c0,0,0.1,0,0.1,0c0,0,0,0,0,0c0,0,0.1,0,0.1-0.1
					v12.1c0,0,0,0.1,0,0.1c0,0,0,0-0.1,0c0,0-0.1,0-0.1,0c0,0-0.1-0.1-0.1-0.1V265.4z M208.8,278.6c0,0,0-0.1,0-0.1v-0.1h0.1
					c0,0,0,0.1,0,0.1C208.9,278.6,208.9,278.6,208.8,278.6L208.8,278.6z M203.5,278.7C203.5,278.7,203.5,278.7,203.5,278.7
					c-0.1-0.1-0.1-0.1-0.1-0.2c0,0,0,0,0.1,0v0C203.5,278.6,203.5,278.6,203.5,278.7L203.5,278.7z"/>
				
					<radialGradient id="SVGID_19_" cx="192.3999" cy="264.2998" r="4.3375" gradientTransform="matrix(1 0 0 0.83 0 44.9386)" gradientUnits="userSpaceOnUse">
					<stop  offset="0" style="stop-color:#FFFFFF;stop-opacity:0.1765"/>
					<stop  offset="1" style="stop-color:#FFFFFF;stop-opacity:0"/>
				</radialGradient>
				<path fill-rule="evenodd" clip-rule="evenodd" fill="url(#SVGID_19_)" d="M198.2,265.5C198.2,265.5,198.1,265.6,198.2,265.5
					c-0.1,0.1-0.1,0.1-0.2,0.1l0-0.1c0,0,0-0.1,0-0.1l0-0.1h0c0.1-0.1,0.1-0.1,0.2-0.1c0.2-0.2,0.3-0.4,0.2-0.6
					c-0.1-0.2-0.2-0.4-0.5-0.5c-0.1-0.1-0.3-0.2-0.5-0.3c0,0,0,0,0-0.1c-0.6-0.2-1.2-0.3-1.9-0.3c-0.7,0-1.2,0.1-1.6,0.4h0v-0.1
					c0,0,0-0.1-0.1-0.1c0,0,0-0.1,0-0.1v0c0.4-0.2,1-0.4,1.8-0.4c0.7,0,1.4,0.1,1.9,0.4h0.1c0.2,0.1,0.4,0.2,0.5,0.4
					c0.3,0.2,0.5,0.4,0.6,0.6c0.1,0.3,0,0.6-0.3,0.9C198.4,265.4,198.3,265.5,198.2,265.5z"/>
				<path fill-rule="evenodd" clip-rule="evenodd" fill="#FFFFFF" fill-opacity="8.235294e-002" d="M194,263.9v12c0,0,0,0.1-0.1,0.1
					c0,0,0,0,0,0s-0.1,0-0.1,0s0-0.1,0-0.1v-12.1l0.1-0.1h0.1c0,0,0,0,0,0.1C193.9,263.7,194,263.8,194,263.9L194,263.9z"/>
				
					<radialGradient id="SVGID_20_" cx="206.0498" cy="265.2002" r="3.35" gradientTransform="matrix(1 0 0 0.8321 0 44.5299)" gradientUnits="userSpaceOnUse">
					<stop  offset="0" style="stop-color:#FFFFFF;stop-opacity:0.1765"/>
					<stop  offset="1" style="stop-color:#FFFFFF;stop-opacity:0"/>
				</radialGradient>
				<path fill-rule="evenodd" clip-rule="evenodd" fill="url(#SVGID_20_)" d="M203.7,266.5c0,0,0-0.1-0.1-0.1c0,0,0-0.1,0-0.1
					s-0.1,0-0.1,0.1l0,0c0.1-0.3,0.3-0.6,0.8-0.9c0.3-0.1,0.7-0.2,1.2-0.3c0.2,0,0.4,0,0.7,0c0.7,0,1.3,0.1,1.8,0.3h0
					c0.4,0.2,0.7,0.5,0.8,0.8c0,0,0,0-0.1,0c0,0-0.1,0-0.1,0.1v0.1c-0.1-0.3-0.3-0.5-0.7-0.7h0c-0.5-0.2-1-0.4-1.7-0.4
					c-0.2,0-0.4,0-0.6,0.1c-0.4,0.1-0.8,0.2-1.1,0.3C204,266,203.8,266.2,203.7,266.5z"/>
				<path fill-rule="evenodd" clip-rule="evenodd" fill="#FFFFFF" fill-opacity="6.666667e-002" d="M208.8,278.6L208.8,278.6
					c-0.1,0-0.2,0-0.2,0v-12.2v-0.1c0,0,0.1-0.1,0.1-0.1c0,0,0.1,0,0.1,0l0,0v0c0,0,0,0,0,0.1v12v0.1
					C208.8,278.6,208.8,278.6,208.8,278.6z M203.5,278.5v-12.1l0,0c0,0,0.1-0.1,0.1-0.1s0,0,0,0.1c0,0,0.1,0.1,0.1,0.1v12.2h-0.1
					c0,0,0,0.1,0,0.1h-0.1l0-0.1C203.5,278.6,203.5,278.6,203.5,278.5L203.5,278.5z"/>
				<path fill-rule="evenodd" clip-rule="evenodd" fill="#FFFFFF" fill-opacity="8.627451e-002" d="M219,275.5
					C219,275.5,219,275.5,219,275.5c0,0.1-0.1,0.1-0.1,0.1s-0.1,0-0.1-0.1c0,0,0,0,0,0v-12v-0.1c0,0,0-0.1,0-0.1c0,0,0.1,0,0.1,0
					l0.1,0.1V275.5z"/>
				<radialGradient id="SVGID_21_" cx="216.7998" cy="263.3999" r="2.7375" gradientUnits="userSpaceOnUse">
					<stop  offset="0" style="stop-color:#FFFFFF;stop-opacity:0.2627"/>
					<stop  offset="1" style="stop-color:#FFFFFF;stop-opacity:0"/>
				</radialGradient>
				<path fill-rule="evenodd" clip-rule="evenodd" fill="url(#SVGID_21_)" d="M214.9,265.3c0,0-0.1,0.1-0.1,0.1c0,0,0,0,0,0
					c0,0-0.1,0-0.1,0c0,0-0.1-0.1-0.1-0.1c-0.5-0.3-0.6-0.6-0.5-1c0.1-0.3,0.3-0.5,0.7-0.8c0.2-0.1,0.3-0.1,0.5-0.2
					c0.6-0.3,1.3-0.4,2-0.4c0.7,0,1.3,0.1,1.7,0.4c0,0-0.1,0-0.1,0c0,0,0,0.1,0,0.1v0.1c-0.4-0.2-0.9-0.3-1.5-0.3
					c-0.7,0-1.3,0.1-1.9,0.4c-0.2,0.1-0.3,0.1-0.4,0.3c-0.3,0.2-0.5,0.4-0.6,0.5c-0.1,0.3,0,0.6,0.4,0.8c0.1,0,0.1,0.1,0.1,0.1h0.1
					V265.3z"/>
			</g>
		</g>
		<g>
			
				<radialGradient id="SVGID_22_" cx="207.8501" cy="265.6001" r="20.2875" gradientTransform="matrix(1 0 0 0.4048 0 158.0836)" gradientUnits="userSpaceOnUse">
				<stop  offset="0" style="stop-color:#FFFFFF;stop-opacity:0.1882"/>
				<stop  offset="0.4706" style="stop-color:#FFFFFF;stop-opacity:8.627451e-002"/>
				<stop  offset="1" style="stop-color:#FFFFFF;stop-opacity:2.352941e-002"/>
			</radialGradient>
			<path fill-rule="evenodd" clip-rule="evenodd" fill="url(#SVGID_22_)" d="M208.6,266.4c0,0,0.1-0.1,0.1-0.1
				c1.8-0.1,3.5-0.4,5-0.8c0.3-0.1,0.7-0.2,1-0.3c0,0,0.1,0,0.1,0c0,0,0,0.1,0,0.1v0c0,0-0.1,0.1-0.1,0.1c-0.3,0.1-0.6,0.1-0.9,0.3
				h-0.1c-1.6,0.4-3.3,0.7-5.1,0.9c0,0-0.1,0-0.1,0C208.6,266.5,208.6,266.4,208.6,266.4L208.6,266.4z M222,259.3c0,0,0.1,0,0.1,0
				h0.1c0,0,0,0.1,0,0.1c-0.1,0.4-0.2,0.8-0.4,1.1c-0.5,1.1-1.4,2.1-2.9,3c0,0-0.1,0-0.1,0c0,0-0.1,0-0.1,0c0,0,0-0.1,0-0.1
				c0,0,0.1-0.1,0.1-0.1c1.4-0.9,2.3-1.8,2.8-2.9c0.2-0.4,0.3-0.7,0.4-1C222,259.3,222,259.3,222,259.3z M198,265.5
				C198,265.4,198,265.4,198,265.5c0.1-0.1,0.2-0.1,0.2-0.1c1.6,0.5,3.4,0.8,5.4,0.9c0,0,0.1,0,0.1,0s0.1,0,0.1,0.1c0,0,0,0.1,0,0.1
				c0,0,0,0-0.1,0c0,0-0.1,0-0.1,0h0c-2-0.1-3.8-0.4-5.5-0.9C198,265.6,198,265.6,198,265.5C198,265.5,198,265.5,198,265.5z
				 M189.9,259.8C189.9,259.8,189.9,259.7,189.9,259.8c0.1-0.1,0.1-0.1,0.1-0.1c0,0,0,0.1,0,0.1c0.1,0.1,0.1,0.2,0.2,0.4
				c0.8,1.4,2,2.6,3.6,3.6c0,0,0.1,0,0.1,0s0,0.1,0,0.1c0,0-0.1,0-0.1,0h-0.1c-1.7-0.9-2.9-2.1-3.8-3.6
				C190,260.1,189.9,260,189.9,259.8C189.8,259.8,189.8,259.8,189.9,259.8z"/>
		</g>
		<g>
			<path fill-rule="evenodd" clip-rule="evenodd" d="M195.2,255.7c-1.1,0.8-1.7,1.8-1.7,2.8c0,0.7,0.3,1.4,0.9,2
				c0.6,0.7,1.5,1.3,2.8,1.9c0.1,0.1,0.3,0.1,0.5,0.2c1.3,0.5,2.8,0.9,4.5,1.2c1.1,0.2,2.2,0.3,3.4,0.3c0.1,0,0.2,0,0.4,0
				c1.3,0,2.5-0.1,3.6-0.2c1.9-0.3,3.6-0.7,5.1-1.4c0.8-0.3,1.4-0.7,1.9-1.1c1.1-0.8,1.6-1.8,1.6-2.8c0-0.7-0.2-1.3-0.6-1.9
				c-0.6-0.8-1.6-1.5-2.9-2.1c-0.2-0.1-0.3-0.1-0.5-0.3c0,0-0.1,0-0.1,0c-1.3-0.5-2.8-0.9-4.4-1.1c-1.1-0.1-2.2-0.2-3.4-0.2
				c-0.1,0-0.1,0-0.2,0c0,0-0.1,0-0.1,0c-1.3,0-2.6,0.1-3.8,0.2c-1.5,0.2-3,0.6-4.3,1.1l0,0c-0.2,0.1-0.4,0.2-0.6,0.3
				C196.4,254.9,195.7,255.3,195.2,255.7z M193.5,258.5c0-1.1,0.5-2,1.6-2.9c0.5-0.4,1.2-0.8,2-1.1c0.2-0.1,0.4-0.2,0.6-0.3
				c0,0,0.1,0,0.1-0.1c1.3-0.5,2.7-0.9,4.3-1c1.2-0.2,2.4-0.3,3.8-0.3c0,0,0.1,0,0.1,0c0.1,0,0.1,0,0.2,0c1.2,0,2.3,0.1,3.4,0.3
				c1.6,0.2,3.1,0.6,4.4,1.2c0,0,0.1,0,0.1,0c0.2,0.1,0.4,0.1,0.6,0.3c1.4,0.6,2.4,1.3,2.9,2c0.5,0.6,0.7,1.3,0.7,2
				c0,1.1-0.6,2-1.8,2.9c-0.5,0.4-1.2,0.8-1.9,1.1c-1.5,0.7-3.2,1.1-5.1,1.4c-1.1,0.2-2.4,0.3-3.6,0.3c-0.1,0-0.3,0-0.4,0
				c-1.2,0-2.4-0.1-3.5-0.3c-1.6-0.2-3.1-0.6-4.5-1.2c-0.1-0.1-0.3-0.1-0.4-0.2c-1.3-0.6-2.2-1.2-2.8-1.9
				C193.7,259.9,193.5,259.2,193.5,258.5z"/>
		</g>
		<g>
			
				<radialGradient id="SVGID_23_" cx="136.123" cy="292.9556" r="6.0087" gradientTransform="matrix(0.9902 -0.1394 4.368700e-002 0.1643 63.0069 237.0269)" gradientUnits="userSpaceOnUse">
				<stop  offset="0" style="stop-color:#FFFFFF"/>
				<stop  offset="0.1765" style="stop-color:#FFFFFF"/>
				<stop  offset="0.3059" style="stop-color:#FFFFFF;stop-opacity:0.4235"/>
				<stop  offset="0.4902" style="stop-color:#FFFFFF;stop-opacity:0.2314"/>
				<stop  offset="0.651" style="stop-color:#FFFFFF;stop-opacity:8.235294e-002"/>
				<stop  offset="1" style="stop-color:#FFFFFF;stop-opacity:0"/>
			</radialGradient>
			<path fill-rule="evenodd" clip-rule="evenodd" fill="url(#SVGID_23_)" d="M206.3,266.1c1.1-0.4,2.5-0.6,4.1-0.9
				c1.6-0.2,3-0.3,4.2-0.3c1.2,0,1.9,0.2,2,0.4c0.1,0.3-0.4,0.6-1.6,0.9c-1.1,0.4-2.4,0.7-4,0.9c-1.6,0.2-3,0.3-4.2,0.3
				c-1.2,0-1.8-0.2-1.9-0.5C204.7,266.7,205.2,266.4,206.3,266.1z"/>
		</g>
		<g>
			
				<radialGradient id="SVGID_24_" cx="201.314" cy="238.9858" r="4.2203" gradientTransform="matrix(0.9922 0.1244 0 0.2429 -4.208088e-005 182.8134)" gradientUnits="userSpaceOnUse">
				<stop  offset="0" style="stop-color:#FFFFFF"/>
				<stop  offset="0.1765" style="stop-color:#FFFFFF"/>
				<stop  offset="0.3059" style="stop-color:#FFFFFF;stop-opacity:0.4235"/>
				<stop  offset="0.4902" style="stop-color:#FFFFFF;stop-opacity:0.2314"/>
				<stop  offset="0.651" style="stop-color:#FFFFFF;stop-opacity:8.235294e-002"/>
				<stop  offset="1" style="stop-color:#FFFFFF;stop-opacity:0"/>
			</radialGradient>
			<path fill-rule="evenodd" clip-rule="evenodd" fill="url(#SVGID_24_)" d="M196.9,264.9c0.8-0.1,1.8-0.1,2.9,0
				c1.1,0.2,2.1,0.4,3,0.6c0.8,0.3,1.3,0.6,1.3,0.9c0,0.3-0.4,0.4-1.3,0.5c-0.8,0.1-1.8,0.1-3-0.1c-1.1-0.1-2.1-0.4-2.9-0.6
				c-0.8-0.3-1.1-0.5-1.1-0.9C195.7,265.1,196.1,265,196.9,264.9z"/>
		</g>
		<g>
			
				<radialGradient id="SVGID_25_" cx="195.2559" cy="238.1606" r="2.1536" gradientTransform="matrix(0.9925 0.1219 0 0.476 -9.477139e-005 126.5958)" gradientUnits="userSpaceOnUse">
				<stop  offset="0" style="stop-color:#FFFFFF"/>
				<stop  offset="0.1765" style="stop-color:#FFFFFF"/>
				<stop  offset="0.3059" style="stop-color:#FFFFFF;stop-opacity:0.4235"/>
				<stop  offset="0.4902" style="stop-color:#FFFFFF;stop-opacity:0.2314"/>
				<stop  offset="0.651" style="stop-color:#FFFFFF;stop-opacity:8.235294e-002"/>
				<stop  offset="1" style="stop-color:#FFFFFF;stop-opacity:0"/>
			</radialGradient>
			<path fill-rule="evenodd" clip-rule="evenodd" fill="url(#SVGID_25_)" d="M195.3,264.6c-0.4,0.2-0.9,0.2-1.5,0.1
				c-0.6-0.1-1.1-0.2-1.5-0.5c-0.4-0.2-0.6-0.5-0.6-0.8c0-0.3,0.2-0.5,0.6-0.6c0.4-0.2,0.9-0.2,1.5-0.1c0.6,0.1,1.1,0.2,1.5,0.5
				c0.4,0.2,0.6,0.5,0.6,0.8C195.9,264.3,195.7,264.5,195.3,264.6z"/>
		</g>
		<g>
			
				<radialGradient id="SVGID_26_" cx="296.2534" cy="-210.127" r="9.45" gradientTransform="matrix(-5.290932e-003 1 -0.119 1.455006e-002 185.2509 -22.6414)" gradientUnits="userSpaceOnUse">
				<stop  offset="0" style="stop-color:#FFFFFF"/>
				<stop  offset="0.1765" style="stop-color:#FFFFFF"/>
				<stop  offset="0.3059" style="stop-color:#FFFFFF;stop-opacity:0.4235"/>
				<stop  offset="0.4902" style="stop-color:#FFFFFF;stop-opacity:0.2314"/>
				<stop  offset="0.651" style="stop-color:#FFFFFF;stop-opacity:8.235294e-002"/>
				<stop  offset="1" style="stop-color:#FFFFFF;stop-opacity:0"/>
			</radialGradient>
			<path fill-rule="evenodd" clip-rule="evenodd" fill="url(#SVGID_26_)" d="M208.8,261.4c0.3,0,0.5,0.8,0.8,2.5
				c0.2,1.8,0.3,4,0.3,6.5c0,2.5-0.2,4.8-0.4,6.6c-0.2,1.9-0.4,2.9-0.8,2.9c-0.3,0-0.6-0.9-0.8-2.7c-0.2-1.9-0.3-4.1-0.3-6.6
				c0-2.5,0.1-4.7,0.4-6.6C208.1,262.3,208.4,261.4,208.8,261.4z"/>
		</g>
	</g>
	<g>
		<g>
			<path fill-rule="evenodd" clip-rule="evenodd" fill="#3C3233" d="M51.1,266.1c0.3,0.5,0.9,0.9,1.8,1h63.4
				c2.7-0.1,4.4-1.4,4.9-3.8l8.3-38.9c0.1-0.3,0.1-0.6,0.1-1c0.3,0.6,0.4,1.4,0.2,2.5l-8.3,38.9c-0.6,2.3-2.2,3.6-5,3.7H53.3
				C51.8,268.4,51,267.5,51.1,266.1z"/>
			<linearGradient id="SVGID_27_" gradientUnits="userSpaceOnUse" x1="25.8501" y1="243.9746" x2="128.6501" y2="243.9746">
				<stop  offset="0" style="stop-color:#564E50"/>
				<stop  offset="1" style="stop-color:#AE9E9F"/>
			</linearGradient>
			<path fill-rule="evenodd" clip-rule="evenodd" fill="url(#SVGID_27_)" d="M129.7,223.5c0,0.3,0,0.6-0.1,1l-8.3,38.9
				c-0.6,2.4-2.2,3.6-4.9,3.8H53c-0.9-0.1-1.5-0.5-1.8-1c-0.3-0.5-0.4-1.3-0.2-2.3l11.1-39.4c0.6-2.4,1.9-3.6,4-3.6H127
				C128.9,221,129.7,221.9,129.7,223.5z"/>
		</g>
	</g>
	<g>
		<g>
			<linearGradient id="SVGID_28_" gradientUnits="userSpaceOnUse" x1="103.5532" y1="211.564" x2="73.8973" y2="271.211">
				<stop  offset="0" style="stop-color:#C1B9B6"/>
				<stop  offset="1" style="stop-color:#867471"/>
			</linearGradient>
			<path fill-rule="evenodd" clip-rule="evenodd" fill="url(#SVGID_28_)" d="M78,257.4H54.5L66.9,212h23.5h0.1l-2.7,21.1L78,257.4z
				 M127,212.5l-9.7,44.8h0H93.1h0l0.9-23.5l8.9-18.8l1.4-3.1H127V212.5z"/>
			<polygon fill-rule="evenodd" clip-rule="evenodd" fill="#686057" points="117.3,257.4 127,212.5 127,221.2 117.3,265.9 
				117.2,265.9 117.2,257.5 			"/>
			<polygon fill-rule="evenodd" clip-rule="evenodd" fill="#3A3534" points="87.8,233.1 90.5,212 90.5,215.1 87.8,237.3 			"/>
			<linearGradient id="SVGID_29_" gradientUnits="userSpaceOnUse" x1="86.5576" y1="242.0488" x2="64.8321" y2="279.8842">
				<stop  offset="0" style="stop-color:#363230"/>
				<stop  offset="0.3451" style="stop-color:#4C4541"/>
				<stop  offset="0.4078" style="stop-color:#675F58"/>
				<stop  offset="1" style="stop-color:#786E65"/>
			</linearGradient>
			<polygon fill-rule="evenodd" clip-rule="evenodd" fill="url(#SVGID_29_)" points="78,263.6 78,257.4 87.8,233.1 87.8,237.3 
				87.8,237.5 			"/>
			<linearGradient id="SVGID_30_" gradientUnits="userSpaceOnUse" x1="90.5" y1="239.2998" x2="90.5" y2="278.2998">
				<stop  offset="0" style="stop-color:#2E2927"/>
				<stop  offset="0.2314" style="stop-color:#363230"/>
				<stop  offset="0.698" style="stop-color:#615952"/>
				<stop  offset="1" style="stop-color:#615952"/>
			</linearGradient>
			<polygon fill-rule="evenodd" clip-rule="evenodd" fill="url(#SVGID_30_)" points="93.1,257.4 93.4,263.6 78,263.6 87.8,237.5 
				87.8,237.3 90.5,215.1 103,215.1 94,233.9 			"/>
			<polygon fill-rule="evenodd" clip-rule="evenodd" fill="#4A4845" points="54.5,257.4 78,257.4 78,263.6 93.4,263.6 93.1,257.4 
				93.1,257.4 117.2,257.4 117.2,257.5 117.2,265.9 54.5,265.9 			"/>
		</g>
	</g>
	<g>
		<g>
			<path fill-rule="evenodd" clip-rule="evenodd" fill="#E0E0E0" fill-opacity="0.451" d="M90,212.2h1l-2.7,21c0-0.1,0-0.2,0-0.2
				c-0.1-0.1-0.2-0.2-0.3-0.3c0,0-0.1,0-0.1,0c0,0,0-0.1,0-0.1c-0.1-0.1-0.2-0.2-0.3-0.3c-0.1,0-0.1,0-0.2,0L90,212.2z M126,212.1
				V212h1v0.1c0,0,0,0.1,0,0.1l-9.7,44.8c0,0,0,0.1,0,0.1c0,0-0.1,0.1-0.1,0.1v8.4c0,0.1,0,0.1,0,0.2c0,0,0,0.1,0,0.1h-0.8
				c0,0,0-0.1,0-0.1c0-0.1-0.1-0.1-0.1-0.2v-8.1H93.2v-1h23.3L126,212.1z"/>
			<radialGradient id="SVGID_31_" cx="124.6499" cy="243.7998" r="19.25" gradientUnits="userSpaceOnUse">
				<stop  offset="0" style="stop-color:#FFFFFF;stop-opacity:0.3412"/>
				<stop  offset="1" style="stop-color:#FFFFFF;stop-opacity:0"/>
			</radialGradient>
			<path fill-rule="evenodd" clip-rule="evenodd" fill="url(#SVGID_31_)" d="M128.8,224.1c0.1-0.1,0.2-0.1,0.4-0.1
				c0.1,0,0.2,0.1,0.3,0.2c0.1,0.1,0.1,0.2,0,0.4l-8.4,38.1c0,0.1-0.1,0.2-0.2,0.3c-0.1,0.1-0.2,0.1-0.4,0.1c-0.2,0-0.3-0.1-0.3-0.3
				c-0.1-0.1-0.1-0.2-0.1-0.4l8.4-38.1C128.6,224.3,128.6,224.2,128.8,224.1z"/>
		</g>
	</g>
	<g>
		<g>
			<path fill-rule="evenodd" clip-rule="evenodd" fill-opacity="0.251" d="M94,234l2.1-4.4c2,0.4,3.9,1.1,5.6,2.1
				c3.1,1.6,4.7,3.6,4.7,5.9c0,2.3-1.6,4.3-4.7,5.9c-1,0.5-2.1,1-3.3,1.4c-1.4,0.4-2.8,0.7-4.4,0.9c-0.1,0-0.3,0-0.4,0
				c0,0,0,0,0,0.1h-0.2L94,234z M87.9,233l-5,12.1c-0.6-0.2-0.9-0.3-1-0.3c-1.1-0.4-2.2-0.8-3.2-1.4c-3.2-1.6-4.8-3.6-4.8-5.9
				c0-2.3,1.6-4.3,4.8-5.9c2.7-1.4,5.9-2.2,9.5-2.5L87.9,233z M93.3,250.6L93.3,250.6v-0.5V250.6z"/>
		</g>
		<g>
			<g>
				<linearGradient id="SVGID_32_" gradientUnits="userSpaceOnUse" x1="103.6162" y1="225.4927" x2="76.4254" y2="229.3212">
					<stop  offset="0" style="stop-color:#D49D64"/>
					<stop  offset="0.4471" style="stop-color:#D49D64"/>
					<stop  offset="0.9882" style="stop-color:#72481F"/>
				</linearGradient>
				<path fill-rule="evenodd" clip-rule="evenodd" fill="url(#SVGID_32_)" d="M99.4,222.7c-2.5-1.1-5.6-1.6-9.1-1.4
					c-3.6,0.1-6.7,0.8-9.3,2.1c-2.6,1.2-3.9,2.7-4,4.4c0,1.6,1.2,3,3.7,4c2.5,1.1,5.5,1.5,9.1,1.4c2.8-0.1,5.4-0.6,7.5-1.4
					c0.6-0.2,1.2-0.4,1.7-0.7c0.4-0.2,0.9-0.5,1.3-0.7c1.8-1.1,2.7-2.3,2.7-3.6C103.1,225.1,101.9,223.7,99.4,222.7z M103.8,227
					c0,0.1,0,0.3,0,0.4c-0.3,1.5-1.4,2.8-3.4,4c-0.1,0.1-0.3,0.1-0.4,0.2c-0.4,0.2-0.8,0.4-1.2,0.6c-0.4,0.2-0.9,0.4-1.4,0.6
					c-1.5,0.5-3.2,0.9-5,1.1c-1.1,0.1-2.3,0.2-3.6,0.2c-0.5,0-1,0-1.5,0c-2.8-0.2-5.3-0.7-7.3-1.6c-0.2-0.1-0.4-0.2-0.6-0.4
					c-2-1-3-2.3-3.2-3.7c0-0.2,0-0.4,0-0.6c0-0.1,0-0.3,0.1-0.4c0.3-1.8,1.9-3.4,4.9-4.7c2.9-1.3,6.3-2,10-2c3.8,0,6.9,0.6,9.3,2
					c2.1,1.1,3.1,2.3,3.2,3.8C103.8,226.7,103.8,226.8,103.8,227L103.8,227z"/>
				<path fill-rule="evenodd" clip-rule="evenodd" fill="#452510" d="M99.4,222.7c2.5,1,3.7,2.4,3.7,4c0,1.3-0.9,2.5-2.7,3.6
					c-0.4,0.2-0.8,0.5-1.3,0.7c-0.5,0.3-1.1,0.5-1.7,0.7c-2.2,0.8-4.7,1.3-7.5,1.4c-3.6,0.1-6.6-0.3-9.1-1.4c-2.5-1.1-3.7-2.4-3.7-4
					c0.1-1.7,1.4-3.1,4-4.4c2.6-1.3,5.6-2,9.3-2.1C93.8,221.1,96.9,221.6,99.4,222.7z"/>
				<linearGradient id="SVGID_33_" gradientUnits="userSpaceOnUse" x1="76.2749" y1="235.125" x2="103.75" y2="235.125">
					<stop  offset="0" style="stop-color:#443933"/>
					<stop  offset="0.1098" style="stop-color:#907865"/>
					<stop  offset="0.3294" style="stop-color:#7A5A41"/>
					<stop  offset="0.5059" style="stop-color:#9A8776"/>
					<stop  offset="0.7294" style="stop-color:#C8BEB5"/>
					<stop  offset="0.9098" style="stop-color:#AA9A8B"/>
					<stop  offset="1" style="stop-color:#806A5E"/>
				</linearGradient>
				<path fill-rule="evenodd" clip-rule="evenodd" fill="url(#SVGID_33_)" d="M76.3,228.4c0.1,1.4,1.2,2.7,3.2,3.7
					c0.2,0.1,0.4,0.3,0.6,0.4c2,0.9,4.4,1.4,7.3,1.6c0.5,0,1,0,1.5,0c1.3,0,2.5-0.1,3.6-0.2c1.8-0.2,3.5-0.6,5-1.1
					c0.5-0.2,1-0.4,1.4-0.6c0.4-0.2,0.8-0.4,1.2-0.6c0.1-0.1,0.3-0.1,0.4-0.2c2-1.1,3.1-2.5,3.4-4c0-0.1,0-0.3,0-0.4v8.7
					c0,0.1,0,0.3,0,0.4c0,0.2,0,0.3,0,0.5c-0.3,1.5-1.4,2.8-3.4,3.9c-0.5,0.2-1,0.5-1.6,0.8c-0.4,0.2-0.9,0.4-1.4,0.6
					c-1.5,0.6-3.2,1-5,1.2c-1.1,0.1-2.3,0.2-3.6,0.2c-0.5,0-1,0-1.5,0c-3.1-0.1-5.7-0.8-7.8-1.9c-2-1.1-3-2.3-3.2-3.7
					c0-0.2,0-0.5,0-0.6V228.4z"/>
			</g>
		</g>
		<g>
			<g>
				<linearGradient id="SVGID_34_" gradientUnits="userSpaceOnUse" x1="77.6499" y1="217.0635" x2="102.3501" y2="217.0635">
					<stop  offset="0" style="stop-color:#5B5348"/>
					<stop  offset="0.2353" style="stop-color:#4F4942"/>
					<stop  offset="0.6431" style="stop-color:#917B77"/>
					<stop  offset="1" style="stop-color:#746B5E"/>
				</linearGradient>
				<path fill-rule="evenodd" clip-rule="evenodd" fill="url(#SVGID_34_)" d="M102.4,216.8c-0.1,1.2-0.9,2.3-2.5,3.3
					c-0.4,0.2-0.8,0.5-1.3,0.7c-0.4,0.2-0.9,0.4-1.3,0.5c-0.5,0.2-0.9,0.3-1.4,0.5c-1,0.3-2.1,0.5-3.3,0.7c-0.9,0.1-1.9,0.2-2.9,0.3
					c-1,0.1-2,0.1-3,0c-1-0.1-1.9-0.2-2.8-0.4c-0.6-0.1-1.1-0.3-1.6-0.4c-0.5-0.1-0.9-0.3-1.3-0.5c-2.2-0.9-3.3-2.1-3.4-3.4
					c0-0.1-0.1-0.3-0.1-0.4c0-0.1,0-0.2,0.1-0.2c0.1-1.5,1.4-2.8,3.7-4c2.5-1.2,5.4-1.9,8.8-2c3.4-0.1,6.3,0.3,8.6,1.4
					c2.2,0.9,3.4,2.1,3.5,3.5V216.8z"/>
				<linearGradient id="SVGID_35_" gradientUnits="userSpaceOnUse" x1="77.6499" y1="224.708" x2="102.3501" y2="224.708">
					<stop  offset="0" style="stop-color:#5B5348"/>
					<stop  offset="0.1451" style="stop-color:#BEB3B1"/>
					<stop  offset="0.3294" style="stop-color:#5B5348"/>
					<stop  offset="0.5059" style="stop-color:#9B9386"/>
					<stop  offset="0.6941" style="stop-color:#817365"/>
					<stop  offset="0.8353" style="stop-color:#CAC0BD"/>
					<stop  offset="1" style="stop-color:#5B5348"/>
				</linearGradient>
				<path fill-rule="evenodd" clip-rule="evenodd" fill="url(#SVGID_35_)" d="M77.7,218c0.1,1.4,1.3,2.5,3.4,3.4
					c0.4,0.2,0.8,0.3,1.3,0.5c0.5,0.2,1.1,0.3,1.6,0.4c0.9,0.2,1.8,0.3,2.8,0.4c0.9,0.1,1.9,0.1,3,0c1,0,1.9-0.1,2.9-0.3
					c1.1-0.2,2.2-0.4,3.3-0.7c0.5-0.2,0.9-0.3,1.4-0.5c0.4-0.2,0.9-0.4,1.3-0.5c0.5-0.2,0.9-0.5,1.3-0.7c1.5-1,2.4-2.1,2.5-3.3v10
					c-0.1,1.2-0.9,2.3-2.5,3.3c-0.4,0.3-0.8,0.5-1.3,0.8c-0.4,0.2-0.9,0.3-1.3,0.5c-1.4,0.5-3,0.9-4.6,1.1c-0.9,0.1-1.9,0.2-2.9,0.3
					c-1,0-2,0-3,0c-1.6-0.1-3.1-0.4-4.4-0.8c-0.5-0.1-0.9-0.3-1.3-0.4c-2.2-0.9-3.3-2.1-3.4-3.5c0-0.1-0.1-0.2-0.1-0.4
					c0-0.1,0-0.1,0.1-0.2V218z"/>
			</g>
		</g>
		<g>
			
				<radialGradient id="SVGID_36_" cx="89.4502" cy="212.8999" r="15.8125" gradientTransform="matrix(1 0 0 1.3794 0 -80.7841)" gradientUnits="userSpaceOnUse">
				<stop  offset="0" style="stop-color:#A39C89;stop-opacity:0"/>
				<stop  offset="0.7255" style="stop-color:#A89D89;stop-opacity:0"/>
				<stop  offset="1" style="stop-color:#B7A389"/>
			</radialGradient>
			<path fill-rule="evenodd" clip-rule="evenodd" fill="url(#SVGID_36_)" d="M90.2,193c3.3-0.2,6.2,0.6,8.5,2.6
				c2.1,1.9,3.2,4.8,3.3,8.6h0V217c-0.3,0.9-1.1,1.7-2.3,2.5c-0.3,0.2-0.7,0.4-1.2,0.7c-0.4,0.2-0.8,0.4-1.3,0.5
				c-0.5,0.2-0.9,0.3-1.4,0.5c-1,0.3-2.1,0.5-3.2,0.6c-0.9,0.1-1.8,0.2-2.8,0.3c-1,0-2,0-2.9,0c-1-0.1-1.9-0.2-2.8-0.3
				c-0.6-0.1-1.1-0.3-1.7-0.4c-0.4-0.1-0.8-0.3-1.3-0.5c-2.1-0.9-3.3-2-3.4-3.4v-12.6c0-0.4,0-0.8,0.1-1.1c0.4-2.5,1.5-4.8,3.5-6.8
				C84,194.6,86.8,193.3,90.2,193z"/>
		</g>
		<g>
			<radialGradient id="SVGID_37_" cx="92.2002" cy="207.6001" r="34.6875" gradientUnits="userSpaceOnUse">
				<stop  offset="0" style="stop-color:#FFFFFF"/>
				<stop  offset="1" style="stop-color:#F4F4F4;stop-opacity:0.2627"/>
			</radialGradient>
			<path fill-rule="evenodd" clip-rule="evenodd" fill="url(#SVGID_37_)" d="M90.2,193.1c-3.3,0.3-6.2,1.6-8.6,4v0
				c-2,2-3.2,4.2-3.5,6.7c-0.1,0.4-0.1,0.7-0.1,1.1v12.6c0.2,1.3,1.3,2.4,3.3,3.3h0.1c0.4,0.2,0.8,0.3,1.3,0.5
				c0.5,0.2,1.1,0.3,1.6,0.4c0.8,0.2,1.7,0.3,2.7,0.4c0.9,0.1,1.9,0.1,2.9,0c1,0,1.9-0.1,2.8-0.2c1.1-0.2,2.1-0.4,3.1-0.7
				c0.5-0.1,0.9-0.3,1.4-0.5c0.4-0.2,0.8-0.4,1.3-0.5c0.4-0.2,0.8-0.5,1.2-0.7c1.2-0.7,1.9-1.5,2.2-2.4v-12.7c0,0,0-0.1,0-0.1
				c-0.1-3.8-1.1-6.6-3.3-8.4C96.3,193.8,93.5,192.9,90.2,193.1z M90.2,192.9c3.4-0.2,6.3,0.7,8.6,2.7c2.2,1.9,3.3,4.8,3.4,8.8
				c0,0.1,0,0.1-0.1,0.2v12.6c-0.3,0.9-1.1,1.8-2.4,2.5c-0.4,0.2-0.8,0.5-1.3,0.7c-0.4,0.2-0.8,0.4-1.3,0.5
				c-0.5,0.2-0.9,0.3-1.4,0.5c-1,0.3-2.1,0.5-3.2,0.6c-0.9,0.1-1.9,0.2-2.9,0.3c-1,0-2,0-2.9,0c-1-0.1-1.9-0.2-2.8-0.4
				c-0.6-0.1-1.1-0.2-1.6-0.4c-0.5-0.2-0.9-0.3-1.3-0.5c-2.2-0.9-3.4-2.1-3.5-3.5c0-0.1,0-0.3,0-0.4s0-0.2,0-0.3v-12
				c0-0.4,0-0.8,0.1-1.1c0.4-2.5,1.6-4.8,3.6-6.9C83.9,194.5,86.8,193.1,90.2,192.9z"/>
		</g>
		<g>
			<path fill-rule="evenodd" clip-rule="evenodd" fill-opacity="0.2118" d="M102.1,216.9c0,0,0,0.1,0,0.1c0,0,0,0.1,0,0.1
				c-0.3,0.9-1.1,1.8-2.4,2.6c-0.4,0.2-0.8,0.5-1.3,0.6c-0.4,0.2-0.8,0.4-1.2,0.6c-0.5,0.2-1,0.4-1.5,0.5c-1,0.3-2.1,0.5-3.2,0.7
				c-0.9,0.1-1.8,0.2-2.8,0.3c-1,0-2,0-2.9,0c-1-0.1-1.9-0.2-2.8-0.4c-0.6-0.1-1.2-0.2-1.7-0.4c-0.4-0.1-0.8-0.3-1.3-0.5h0
				c-2.2-0.9-3.4-2.1-3.5-3.5c0,0,0-0.1,0-0.1c0,0,0-0.1,0.1-0.1c0,0,0.1,0,0.1,0.1c0,0,0,0,0,0c0.1,1.3,1.2,2.4,3.3,3.3h0v0
				c0.4,0.1,0.8,0.3,1.3,0.4c0.5,0.2,1,0.3,1.6,0.5c0.8,0.2,1.7,0.3,2.7,0.4c0.9,0.1,1.9,0.1,2.9,0c1,0,1.9-0.1,2.8-0.2
				c1.1-0.2,2.1-0.4,3.1-0.7c0.5-0.2,1-0.3,1.4-0.5c0.4-0.2,0.8-0.4,1.3-0.6c0.4-0.2,0.8-0.4,1.2-0.6c1.2-0.8,2-1.6,2.3-2.4
				c0,0,0-0.1,0.1-0.1C102,216.9,102,216.9,102.1,216.9z"/>
		</g>
		<g>
			
				<radialGradient id="SVGID_38_" cx="94.5" cy="198.3501" r="10.7934" gradientTransform="matrix(0.7922 0.6102 -0.3684 0.4782 92.696 45.826)" gradientUnits="userSpaceOnUse">
				<stop  offset="0" style="stop-color:#FFFFFF"/>
				<stop  offset="0.1765" style="stop-color:#FFFFFF"/>
				<stop  offset="0.3059" style="stop-color:#FFFFFF;stop-opacity:0.4235"/>
				<stop  offset="0.4902" style="stop-color:#FFFFFF;stop-opacity:0.2314"/>
				<stop  offset="0.651" style="stop-color:#FFFFFF;stop-opacity:8.235294e-002"/>
				<stop  offset="1" style="stop-color:#FFFFFF;stop-opacity:0"/>
			</radialGradient>
			<path fill-rule="evenodd" clip-rule="evenodd" fill="url(#SVGID_38_)" d="M90.2,193.1c3.3-0.2,6.1,0.6,8.4,2.6
				c2.1,1.8,3.2,4.6,3.3,8.4c0,0,0,0.1,0,0.1v1.7c-1.1,0.7-2.4,0.9-4.1,0.6c-2.5-0.3-4.9-1.3-7.2-3c-2.3-1.8-3.9-3.8-4.8-6.1
				c-0.4-1-0.6-2-0.5-2.8C86.7,193.8,88.4,193.3,90.2,193.1z"/>
		</g>
		<g>
			
				<radialGradient id="SVGID_39_" cx="98.25" cy="210.1499" r="10.7788" gradientTransform="matrix(-2.635285e-002 0.9997 -0.2227 -5.869678e-003 147.6304 113.1675)" gradientUnits="userSpaceOnUse">
				<stop  offset="0" style="stop-color:#FFFFFF"/>
				<stop  offset="0.1765" style="stop-color:#FFFFFF"/>
				<stop  offset="0.3059" style="stop-color:#FFFFFF;stop-opacity:0.4235"/>
				<stop  offset="0.4902" style="stop-color:#FFFFFF;stop-opacity:0.2314"/>
				<stop  offset="0.651" style="stop-color:#FFFFFF;stop-opacity:8.235294e-002"/>
				<stop  offset="1" style="stop-color:#FFFFFF;stop-opacity:0"/>
			</radialGradient>
			<path fill-rule="evenodd" clip-rule="evenodd" fill="url(#SVGID_39_)" d="M100.6,210.2c-0.1,2.9-0.4,5.4-1,7.5
				c-0.5,2.1-1.1,3.1-1.7,3.1c-0.7,0-1.2-1.1-1.6-3.3c-0.4-2.1-0.6-4.6-0.5-7.6c0.1-2.9,0.4-5.4,0.9-7.5c0.5-2,1.1-2.9,1.8-2.9
				c0.7,0,1.2,1,1.5,3C100.5,204.8,100.7,207.3,100.6,210.2z"/>
		</g>
	</g>
	<g>
		<g>
			<linearGradient id="SVGID_40_" gradientUnits="userSpaceOnUse" x1="99.3501" y1="277.5376" x2="99.3501" y2="291.4626">
				<stop  offset="0" style="stop-color:#777777"/>
				<stop  offset="1" style="stop-color:#777777;stop-opacity:0"/>
			</linearGradient>
			<path fill-rule="evenodd" clip-rule="evenodd" fill="url(#SVGID_40_)" d="M91.6,284c0,1,0.8,1.9,2.3,2.6c1.5,0.7,3.4,1.1,5.5,1.1
				c2.1,0,3.9-0.4,5.4-1.1c1.5-0.8,2.2-1.6,2.3-2.6v5.6c0,1-0.8,1.8-2.3,2.5c-1.5,0.8-3.3,1.1-5.4,1.1c-2.1,0-3.9-0.4-5.5-1.1
				c-1.5-0.7-2.2-1.6-2.3-2.5V284z"/>
		</g>
		<g>
			<g>
				<path fill-rule="evenodd" clip-rule="evenodd" fill="#CCCCCC" d="M107,280.5c0,0.3-0.1,0.6-0.3,0.9c-0.3,0.6-1,1.1-2,1.6
					c-1.5,0.7-3.3,1.1-5.4,1.1c-2.1,0-4-0.4-5.5-1.1c-1-0.5-1.7-1-2-1.6c-0.1-0.3-0.2-0.6-0.3-1v-0.1c0-1,0.8-1.9,2.3-2.6
					c1.5-0.7,3.3-1.1,5.5-1.1c2.2,0,4,0.4,5.4,1.1c1.5,0.7,2.2,1.6,2.3,2.6V280.5z M96.4,281.4c0.8,0.4,1.8,0.6,3,0.6
					c1.2,0,2.2-0.2,3-0.6c0.8-0.4,1.3-0.9,1.3-1.5c0-0.6-0.4-1-1.3-1.4c-0.8-0.4-1.9-0.6-3-0.6c-1.2,0-2.2,0.2-3,0.6
					c-0.8,0.4-1.3,0.9-1.3,1.4C95.1,280.5,95.5,281,96.4,281.4z"/>
				<linearGradient id="SVGID_41_" gradientUnits="userSpaceOnUse" x1="91.6499" y1="283.7998" x2="107.0498" y2="283.7998">
					<stop  offset="0" style="stop-color:#404040"/>
					<stop  offset="0.1451" style="stop-color:#777777"/>
					<stop  offset="0.4784" style="stop-color:#999999"/>
					<stop  offset="0.8863" style="stop-color:#777777"/>
					<stop  offset="1" style="stop-color:#555555"/>
				</linearGradient>
				<path fill-rule="evenodd" clip-rule="evenodd" fill="url(#SVGID_41_)" d="M91.6,280.4c0,0.3,0.1,0.6,0.3,1c0.3,0.6,1,1.1,2,1.6
					c1.5,0.7,3.3,1.1,5.5,1.1c2.2,0,4-0.4,5.4-1.1c1-0.5,1.7-1,2-1.6c0.2-0.3,0.2-0.6,0.3-0.9v3c0,1-0.8,1.9-2.3,2.6
					c-1.5,0.7-3.3,1.1-5.4,1.1c-2.1,0-3.9-0.4-5.5-1.1c-1.5-0.7-2.2-1.6-2.3-2.6V280.4z"/>
				<linearGradient id="SVGID_42_" gradientUnits="userSpaceOnUse" x1="95.0874" y1="279.9248" x2="103.6124" y2="279.9248">
					<stop  offset="0" style="stop-color:#6F6F6F"/>
					<stop  offset="0.1333" style="stop-color:#2B2B2B"/>
					<stop  offset="0.4471" style="stop-color:#040404"/>
					<stop  offset="0.8039" style="stop-color:#242424"/>
					<stop  offset="1" style="stop-color:#6B6B6B"/>
				</linearGradient>
				<path fill-rule="evenodd" clip-rule="evenodd" fill="url(#SVGID_42_)" d="M96.4,281.4c-0.8-0.4-1.3-0.9-1.3-1.5
					c0-0.6,0.4-1,1.3-1.4c0.8-0.4,1.8-0.6,3-0.6c1.2,0,2.2,0.2,3,0.6c0.8,0.4,1.3,0.9,1.3,1.4c0,0.6-0.4,1.1-1.3,1.5
					c-0.8,0.4-1.9,0.6-3,0.6C98.2,282,97.2,281.8,96.4,281.4z"/>
			</g>
		</g>
		<g>
			<radialGradient id="SVGID_43_" cx="99.3501" cy="282.1499" r="8.1" gradientUnits="userSpaceOnUse">
				<stop  offset="0" style="stop-color:#FFFFFF"/>
				<stop  offset="1" style="stop-color:#FFFFFF;stop-opacity:0"/>
			</radialGradient>
			<path fill-rule="evenodd" clip-rule="evenodd" fill="url(#SVGID_43_)" d="M91.8,281.5v-1.3c0,0,0.1,0.1,0.1,0.1v0.1
				c0,0.3,0.1,0.6,0.3,0.9c0.3,0.6,0.9,1.1,1.9,1.6c1.5,0.7,3.3,1,5.4,1s3.9-0.4,5.4-1c0.9-0.5,1.5-1,1.9-1.6
				c0.2-0.3,0.3-0.5,0.3-0.9v-0.1c0,0,0-0.1,0-0.1l0.1,0v1.4c-0.3,0.6-1,1.2-2.1,1.8c-1.5,0.7-3.4,1.1-5.5,1.1c-2.2,0-4-0.4-5.5-1.1
				C92.8,282.7,92.1,282.1,91.8,281.5z"/>
		</g>
		<g>
			
				<radialGradient id="SVGID_44_" cx="99.2998" cy="284.1001" r="4.5375" gradientTransform="matrix(1 0 0 0.3691 0 179.2257)" gradientUnits="userSpaceOnUse">
				<stop  offset="0" style="stop-color:#FFFFFF"/>
				<stop  offset="0.1765" style="stop-color:#FFFFFF"/>
				<stop  offset="0.3059" style="stop-color:#FFFFFF;stop-opacity:0.4235"/>
				<stop  offset="0.4902" style="stop-color:#FFFFFF;stop-opacity:0.2314"/>
				<stop  offset="0.651" style="stop-color:#FFFFFF;stop-opacity:8.235294e-002"/>
				<stop  offset="1" style="stop-color:#FFFFFF;stop-opacity:0"/>
			</radialGradient>
			<path fill-rule="evenodd" clip-rule="evenodd" fill="url(#SVGID_44_)" d="M102.5,285.3c-0.9,0.3-2,0.5-3.2,0.5
				c-1.2,0-2.3-0.2-3.2-0.5c-0.8-0.3-1.3-0.7-1.3-1.1s0.4-0.9,1.3-1.1c0.9-0.3,2-0.5,3.2-0.5c1.2,0,2.3,0.2,3.2,0.5
				c0.9,0.3,1.3,0.7,1.3,1.1S103.4,285,102.5,285.3z"/>
		</g>
		<g>
			
				<radialGradient id="SVGID_45_" cx="99.25" cy="277.8501" r="4.5375" gradientTransform="matrix(1 0 0 0.3691 0 175.2828)" gradientUnits="userSpaceOnUse">
				<stop  offset="0" style="stop-color:#FFFFFF"/>
				<stop  offset="0.1765" style="stop-color:#FFFFFF"/>
				<stop  offset="0.3059" style="stop-color:#FFFFFF;stop-opacity:0.4235"/>
				<stop  offset="0.4902" style="stop-color:#FFFFFF;stop-opacity:0.2314"/>
				<stop  offset="0.651" style="stop-color:#FFFFFF;stop-opacity:8.235294e-002"/>
				<stop  offset="1" style="stop-color:#FFFFFF;stop-opacity:0"/>
			</radialGradient>
			<path fill-rule="evenodd" clip-rule="evenodd" fill="url(#SVGID_45_)" d="M102.4,279c-0.9,0.3-1.9,0.5-3.1,0.5
				c-1.2,0-2.3-0.2-3.2-0.5c-0.8-0.3-1.3-0.7-1.3-1.1c0-0.4,0.4-0.8,1.3-1.1c0.9-0.3,2-0.5,3.2-0.5c1.2,0,2.3,0.2,3.1,0.5
				c0.9,0.3,1.4,0.7,1.4,1.1C103.8,278.3,103.3,278.7,102.4,279z"/>
		</g>
	</g>
	<g>
		<g>
			
				<radialGradient id="SVGID_46_" cx="180.4502" cy="283.7998" r="15.9875" gradientTransform="matrix(1 0 0 0.6474 0 100.0733)" gradientUnits="userSpaceOnUse">
				<stop  offset="0.4314" style="stop-color:#262626;stop-opacity:0.7098"/>
				<stop  offset="0.6196" style="stop-color:#272727;stop-opacity:0.4392"/>
				<stop  offset="0.8745" style="stop-color:#262626;stop-opacity:0"/>
			</radialGradient>
			<path fill-rule="evenodd" clip-rule="evenodd" fill="url(#SVGID_46_)" d="M175.1,287c1.6,0.7,3.4,1.1,5.5,1.1
				c2.2,0,4.1-0.4,5.6-1.1c1.5-0.7,2.3-1.6,2.3-2.5v5.5c0,1-0.8,1.9-2.3,2.6s-3.4,1.1-5.6,1.1c-2.1,0-4-0.4-5.5-1.1
				c-1.5-0.7-2.3-1.6-2.3-2.6v-5.6C172.8,285.4,173.6,286.3,175.1,287z"/>
		</g>
		<g>
			<path fill-rule="evenodd" clip-rule="evenodd" fill="#190000" d="M175,286.6c-1-0.5-1.7-1.1-2-1.7c-0.2-0.3-0.3-0.6-0.3-0.9v-0.1
				c0-1,0.8-1.9,2.3-2.6c1.5-0.7,3.4-1.1,5.6-1.1c2.2,0,4.1,0.4,5.6,1.1c1.5,0.7,2.3,1.6,2.3,2.6v0.2c0,0.3-0.1,0.6-0.3,0.9
				c-0.4,0.6-1.1,1.2-2.1,1.7c-1.6,0.7-3.4,1.1-5.6,1.1C178.5,287.8,176.6,287.4,175,286.6z"/>
		</g>
		<g>
			<g>
				<linearGradient id="SVGID_47_" gradientUnits="userSpaceOnUse" x1="172.999" y1="279.6904" x2="188.3108" y2="280.959">
					<stop  offset="0" style="stop-color:#555555"/>
					<stop  offset="1" style="stop-color:#262626"/>
				</linearGradient>
				<path fill-rule="evenodd" clip-rule="evenodd" fill="url(#SVGID_47_)" d="M176.4,279.9c0,0.1,0,0.1,0.1,0.2
					c0.1,0.5,0.5,0.9,1.2,1.3c0.8,0.4,1.8,0.6,3,0.6c1.2,0,2.2-0.2,3.1-0.6c0.7-0.4,1.1-0.8,1.2-1.3c0-0.1,0.1-0.1,0.1-0.2
					c0-0.6-0.4-1-1.3-1.4c-0.8-0.4-1.9-0.6-3.1-0.6c-1.2,0-2.2,0.2-3,0.6C176.8,278.9,176.4,279.3,176.4,279.9z M173,280.4v-0.1
					c0-0.1,0-0.1,0-0.2c0.1-0.9,0.8-1.8,2.2-2.5c1.5-0.7,3.3-1.1,5.4-1.1c2.2,0,4,0.4,5.5,1.1c1.4,0.7,2.1,1.5,2.3,2.5
					c0,0.1,0,0.1,0,0.1v0.2c0,0.3-0.1,0.6-0.3,0.9c-0.3,0.6-1,1.1-2,1.6c-1.5,0.7-3.3,1.1-5.5,1.1c-2.1,0-3.9-0.4-5.4-1.1
					c-1-0.5-1.7-1-2-1.6C173.1,281,173,280.7,173,280.4z"/>
				<linearGradient id="SVGID_48_" gradientUnits="userSpaceOnUse" x1="176.3877" y1="279.9248" x2="184.9127" y2="279.9248">
					<stop  offset="0" style="stop-color:#040404"/>
					<stop  offset="0.4706" style="stop-color:#222222"/>
					<stop  offset="1" style="stop-color:#000000"/>
				</linearGradient>
				<path fill-rule="evenodd" clip-rule="evenodd" fill="url(#SVGID_48_)" d="M176.4,279.9c0-0.6,0.4-1,1.3-1.4
					c0.8-0.4,1.8-0.6,3-0.6c1.2,0,2.2,0.2,3.1,0.6c0.8,0.4,1.3,0.9,1.3,1.4c0,0.1,0,0.1-0.1,0.2c-0.1,0.5-0.5,0.9-1.2,1.3
					c-0.8,0.4-1.9,0.6-3.1,0.6c-1.2,0-2.2-0.2-3-0.6c-0.7-0.4-1.1-0.8-1.2-1.3C176.4,280,176.4,280,176.4,279.9z"/>
				<linearGradient id="SVGID_49_" gradientUnits="userSpaceOnUse" x1="172.9502" y1="283.7998" x2="188.3501" y2="283.7998">
					<stop  offset="0" style="stop-color:#262626"/>
					<stop  offset="0.4706" style="stop-color:#555555"/>
					<stop  offset="1" style="stop-color:#262626"/>
				</linearGradient>
				<path fill-rule="evenodd" clip-rule="evenodd" fill="url(#SVGID_49_)" d="M188.4,280.5v3c0,1-0.8,1.9-2.3,2.6
					c-1.5,0.7-3.3,1.1-5.5,1.1c-2.1,0-3.9-0.4-5.4-1.1c-1.5-0.7-2.2-1.6-2.3-2.6v-3.1c0,0.3,0.1,0.6,0.3,1c0.3,0.6,1,1.1,2,1.6
					c1.5,0.7,3.3,1.1,5.4,1.1c2.2,0,4-0.4,5.5-1.1c1-0.5,1.7-1,2-1.6C188.3,281.1,188.3,280.8,188.4,280.5z"/>
			</g>
		</g>
		<g>
			<linearGradient id="SVGID_50_" gradientUnits="userSpaceOnUse" x1="172.9502" y1="282.25" x2="188.3502" y2="282.25">
				<stop  offset="0" style="stop-color:#FFFFFF;stop-opacity:2.352941e-002"/>
				<stop  offset="0.3647" style="stop-color:#FFFFFF"/>
				<stop  offset="0.6745" style="stop-color:#FFFFFF;stop-opacity:0.2627"/>
				<stop  offset="1" style="stop-color:#FFFFFF;stop-opacity:0"/>
			</linearGradient>
			<path fill-rule="evenodd" clip-rule="evenodd" fill="url(#SVGID_50_)" d="M173.4,281.3c0.3,0.6,0.9,1.1,1.9,1.6
				c1.5,0.7,3.3,1,5.4,1s3.9-0.4,5.4-1c0.9-0.5,1.6-1,1.9-1.6c0.2-0.3,0.3-0.5,0.3-0.9c0-0.1,0-0.1,0.1-0.1c0,0,0,0,0,0v1.2
				c-0.3,0.6-1,1.2-2,1.8c-1.5,0.7-3.4,1.1-5.6,1.1c-2.2,0-4-0.4-5.5-1.1c-1.1-0.5-1.8-1.1-2.1-1.8c0-0.1-0.1-0.1-0.1-0.2v-1
				c0.1,0,0.1,0,0.1,0.1c0,0,0,0,0,0.1C173.2,280.7,173.3,281,173.4,281.3z"/>
		</g>
		<g>
			
				<radialGradient id="SVGID_51_" cx="180.4502" cy="277.8999" r="3.8875" gradientTransform="matrix(1 0 0 0.2251 0 215.3501)" gradientUnits="userSpaceOnUse">
				<stop  offset="0" style="stop-color:#FFFFFF"/>
				<stop  offset="0.1765" style="stop-color:#FFFFFF"/>
				<stop  offset="0.3059" style="stop-color:#FFFFFF;stop-opacity:0.4235"/>
				<stop  offset="0.4902" style="stop-color:#FFFFFF;stop-opacity:0.2314"/>
				<stop  offset="0.651" style="stop-color:#FFFFFF;stop-opacity:8.235294e-002"/>
				<stop  offset="1" style="stop-color:#FFFFFF;stop-opacity:0"/>
			</radialGradient>
			<path fill-rule="evenodd" clip-rule="evenodd" fill="url(#SVGID_51_)" d="M183.2,278.5c-0.8,0.2-1.7,0.3-2.8,0.3
				c-1,0-1.9-0.1-2.7-0.3c-0.7-0.2-1.1-0.4-1.1-0.6c0-0.2,0.4-0.4,1.1-0.5c0.8-0.2,1.7-0.3,2.7-0.3c1.1,0,2,0.1,2.8,0.3
				c0.8,0.2,1.1,0.4,1.1,0.5C184.4,278.2,184,278.4,183.2,278.5z"/>
		</g>
		<g>
			
				<radialGradient id="SVGID_52_" cx="180.4502" cy="284.1001" r="5.575" gradientTransform="matrix(1 0 0 0.2265 0 219.7635)" gradientUnits="userSpaceOnUse">
				<stop  offset="0" style="stop-color:#FFFFFF"/>
				<stop  offset="0.1765" style="stop-color:#FFFFFF"/>
				<stop  offset="0.3059" style="stop-color:#FFFFFF;stop-opacity:0.4235"/>
				<stop  offset="0.4902" style="stop-color:#FFFFFF;stop-opacity:0.2314"/>
				<stop  offset="0.651" style="stop-color:#FFFFFF;stop-opacity:8.235294e-002"/>
				<stop  offset="1" style="stop-color:#FFFFFF;stop-opacity:0"/>
			</radialGradient>
			<path fill-rule="evenodd" clip-rule="evenodd" fill="url(#SVGID_52_)" d="M184.4,285c-1.1,0.3-2.4,0.4-3.9,0.4s-2.8-0.1-3.9-0.4
				c-1-0.2-1.6-0.5-1.6-0.9c0-0.4,0.5-0.6,1.6-0.9c1.1-0.3,2.4-0.4,3.9-0.4s2.8,0.1,3.9,0.4c1.1,0.2,1.6,0.5,1.6,0.9
				C186,284.4,185.5,284.7,184.4,285z"/>
		</g>
	</g>
	<g>
		<g>
			
				<radialGradient id="SVGID_53_" cx="153.3501" cy="283.3501" r="13.7" gradientTransform="matrix(1 0 0 0.6277 0 105.4807)" gradientUnits="userSpaceOnUse">
				<stop  offset="0.5216" style="stop-color:#F20202;stop-opacity:0.7098"/>
				<stop  offset="0.6314" style="stop-color:#E60202;stop-opacity:0.4392"/>
				<stop  offset="1" style="stop-color:#430101;stop-opacity:0"/>
			</radialGradient>
			<path fill-rule="evenodd" clip-rule="evenodd" fill="url(#SVGID_53_)" d="M145.9,289.6V284c0,1,0.8,1.9,2.3,2.6
				c1.5,0.7,3.4,1.1,5.4,1.1c2.1,0,4-0.4,5.5-1.1c1.5-0.7,2.2-1.6,2.3-2.6v5.6c0,1-0.8,1.9-2.3,2.6c-1.5,0.7-3.3,1.1-5.5,1.1
				c-2.1,0-3.9-0.4-5.4-1.1C146.6,291.5,145.9,290.6,145.9,289.6z"/>
		</g>
		<g>
			<path fill-rule="evenodd" clip-rule="evenodd" fill="#190000" d="M159.2,281.3c1.5,0.7,2.3,1.6,2.3,2.6v0.2
				c0,0.3-0.1,0.6-0.3,0.9c-0.3,0.6-1,1.2-2,1.7c-1.6,0.7-3.5,1.1-5.7,1.1c-2.2,0-4.1-0.4-5.6-1.1c-1-0.5-1.7-1.1-2.1-1.7
				c-0.2-0.3-0.3-0.6-0.3-0.9v-0.1c0-1,0.8-1.9,2.4-2.6c1.5-0.7,3.4-1.1,5.6-1.1C155.8,280.1,157.6,280.5,159.2,281.3z"/>
		</g>
		<g>
			<g>
				<linearGradient id="SVGID_54_" gradientUnits="userSpaceOnUse" x1="150.1641" y1="275.915" x2="156.9697" y2="284.7599">
					<stop  offset="0" style="stop-color:#BA0101"/>
					<stop  offset="1" style="stop-color:#650101"/>
				</linearGradient>
				<path fill-rule="evenodd" clip-rule="evenodd" fill="url(#SVGID_54_)" d="M153.5,282c1.2,0,2.2-0.2,3.1-0.6
					c0.8-0.4,1.3-0.9,1.3-1.5c0-0.6-0.4-1-1.3-1.4c-0.8-0.4-1.9-0.6-3.1-0.6c-1.2,0-2.2,0.2-3,0.6c-0.8,0.4-1.3,0.9-1.3,1.4
					c0,0.6,0.4,1.1,1.3,1.5C151.4,281.8,152.4,282,153.5,282z M161.3,280.5c0,0.3-0.1,0.6-0.3,0.9c-0.3,0.6-1,1.1-2,1.6
					c-1.5,0.7-3.3,1.1-5.5,1.1c-2.1,0-3.9-0.4-5.4-1.1c-1-0.5-1.6-1-2-1.6c-0.2-0.3-0.3-0.6-0.3-1v-0.1c0-1,0.8-1.9,2.3-2.6
					c1.5-0.7,3.3-1.1,5.4-1.1c2.2,0,4,0.4,5.5,1.1s2.2,1.6,2.3,2.6V280.5z"/>
				<linearGradient id="SVGID_55_" gradientUnits="userSpaceOnUse" x1="149.2876" y1="279.9248" x2="157.8126" y2="279.9248">
					<stop  offset="0" style="stop-color:#4B0101"/>
					<stop  offset="0.4706" style="stop-color:#000000"/>
					<stop  offset="1" style="stop-color:#3A0101"/>
				</linearGradient>
				<path fill-rule="evenodd" clip-rule="evenodd" fill="url(#SVGID_55_)" d="M153.5,282c-1.2,0-2.2-0.2-3-0.6
					c-0.8-0.4-1.3-0.9-1.3-1.5c0-0.6,0.4-1,1.3-1.4c0.8-0.4,1.8-0.6,3-0.6c1.2,0,2.2,0.2,3.1,0.6c0.8,0.4,1.3,0.9,1.3,1.4
					c0,0.6-0.4,1.1-1.3,1.5C155.8,281.8,154.8,282,153.5,282z"/>
				<linearGradient id="SVGID_56_" gradientUnits="userSpaceOnUse" x1="145.3125" y1="283.7998" x2="161.7875" y2="283.7998">
					<stop  offset="0" style="stop-color:#8F0101"/>
					<stop  offset="0.502" style="stop-color:#F40202"/>
					<stop  offset="0.8196" style="stop-color:#8C0101"/>
					<stop  offset="1" style="stop-color:#430101"/>
				</linearGradient>
				<path fill-rule="evenodd" clip-rule="evenodd" fill="url(#SVGID_56_)" d="M145.9,280.4c0,0.3,0.1,0.6,0.3,1c0.3,0.6,1,1.1,2,1.6
					c1.5,0.7,3.3,1.1,5.4,1.1c2.2,0,4-0.4,5.5-1.1c1-0.5,1.7-1,2-1.6c0.2-0.3,0.2-0.6,0.3-0.9v3c0,1-0.8,1.9-2.3,2.6
					c-1.5,0.7-3.3,1.1-5.5,1.1c-2.1,0-3.9-0.4-5.4-1.1c-1.5-0.7-2.2-1.6-2.3-2.6V280.4z"/>
			</g>
		</g>
		<g>
			<radialGradient id="SVGID_57_" cx="153.5498" cy="282.5498" r="7.7375" gradientUnits="userSpaceOnUse">
				<stop  offset="0" style="stop-color:#FFFFFF"/>
				<stop  offset="1" style="stop-color:#FFFFFF;stop-opacity:2.352941e-002"/>
			</radialGradient>
			<path fill-rule="evenodd" clip-rule="evenodd" fill="url(#SVGID_57_)" d="M159,282.9c0.9-0.5,1.6-1,1.9-1.6
				c0-0.1,0.1-0.2,0.1-0.3c0-0.1,0-0.1,0.1-0.1c0,0,0.1,0,0.1,0c0,0,0.1,0.1,0.1,0.1c0,0,0,0.1-0.1,0.1c0,0.1-0.1,0.2-0.1,0.3
				c-0.3,0.6-1,1.2-2,1.8c-1.5,0.7-3.4,1.1-5.6,1.1c-2.2,0-4-0.4-5.5-1.1c-1-0.5-1.7-1.1-2.1-1.8c0-0.1-0.1-0.3-0.1-0.4
				c0,0,0-0.1,0-0.1c0-0.1,0-0.1,0.1-0.1c0,0,0.1,0,0.1,0c0,0,0.1,0.1,0.1,0.1c0,0.1,0.1,0.1,0.1,0.3c0.3,0.6,0.9,1.1,1.9,1.6
				c1.5,0.7,3.3,1,5.3,1C155.6,283.9,157.5,283.5,159,282.9z"/>
		</g>
		<g>
			
				<radialGradient id="SVGID_58_" cx="153.3501" cy="277.8999" r="3.8875" gradientTransform="matrix(1 0 0 0.2251 0 215.3501)" gradientUnits="userSpaceOnUse">
				<stop  offset="0" style="stop-color:#FFFFFF"/>
				<stop  offset="0.1765" style="stop-color:#FFFFFF"/>
				<stop  offset="0.3059" style="stop-color:#FFFFFF;stop-opacity:0.4235"/>
				<stop  offset="0.4902" style="stop-color:#FFFFFF;stop-opacity:0.2314"/>
				<stop  offset="0.651" style="stop-color:#FFFFFF;stop-opacity:8.235294e-002"/>
				<stop  offset="1" style="stop-color:#FFFFFF;stop-opacity:0"/>
			</radialGradient>
			<path fill-rule="evenodd" clip-rule="evenodd" fill="url(#SVGID_58_)" d="M149.6,277.9c0-0.2,0.4-0.4,1-0.5
				c0.8-0.2,1.7-0.3,2.7-0.3c1.1,0,2,0.1,2.8,0.3c0.8,0.2,1.1,0.4,1.1,0.5c0,0.3-0.4,0.5-1.1,0.6c-0.8,0.2-1.7,0.3-2.8,0.3
				c-1,0-1.9-0.1-2.7-0.3C150,278.4,149.6,278.2,149.6,277.9z"/>
		</g>
		<g>
			
				<radialGradient id="SVGID_59_" cx="153.3501" cy="284.1001" r="5.575" gradientTransform="matrix(1 0 0 0.2265 0 219.7635)" gradientUnits="userSpaceOnUse">
				<stop  offset="0" style="stop-color:#FFFFFF"/>
				<stop  offset="0.1765" style="stop-color:#FFFFFF"/>
				<stop  offset="0.3059" style="stop-color:#FFFFFF;stop-opacity:0.4235"/>
				<stop  offset="0.4902" style="stop-color:#FFFFFF;stop-opacity:0.2314"/>
				<stop  offset="0.651" style="stop-color:#FFFFFF;stop-opacity:8.235294e-002"/>
				<stop  offset="1" style="stop-color:#FFFFFF;stop-opacity:0"/>
			</radialGradient>
			<path fill-rule="evenodd" clip-rule="evenodd" fill="url(#SVGID_59_)" d="M148,284.1c0-0.4,0.5-0.6,1.5-0.9
				c1.1-0.3,2.4-0.4,3.9-0.4s2.8,0.1,3.9,0.4c1.1,0.2,1.6,0.5,1.6,0.9c0,0.3-0.5,0.6-1.6,0.9c-1.1,0.3-2.4,0.4-3.9,0.4
				s-2.8-0.1-3.9-0.4C148.5,284.7,148,284.4,148,284.1z"/>
		</g>
	</g>
	<g>
		<g>
			<g>
				<g>
					<linearGradient id="SVGID_60_" gradientUnits="userSpaceOnUse" x1="117.9751" y1="284.75" x2="134.9253" y2="284.75">
						<stop  offset="0" style="stop-color:#2B2B2B"/>
						<stop  offset="0.2706" style="stop-color:#919191"/>
						<stop  offset="0.502" style="stop-color:#919191"/>
						<stop  offset="1" style="stop-color:#555555"/>
					</linearGradient>
					<path fill-rule="evenodd" clip-rule="evenodd" fill="url(#SVGID_60_)" d="M118,282.3c0,0.4,0.1,0.7,0.3,1
						c0.4,0.7,1.1,1.3,2.2,1.8c1.6,0.8,3.6,1.2,6,1.2c2.4,0,4.4-0.4,6-1.2c1.1-0.5,1.8-1.1,2.2-1.8c0.2-0.3,0.3-0.6,0.3-1v0.9
						c0,1.1-0.8,2.1-2.5,2.9c-1.6,0.8-3.6,1.2-6,1.2c-2.3,0-4.3-0.4-6-1.2c-1.6-0.8-2.5-1.8-2.5-2.9V282.3z"/>
					<linearGradient id="SVGID_61_" gradientUnits="userSpaceOnUse" x1="117.8511" y1="285.8335" x2="132.1816" y2="279.6713">
						<stop  offset="0" style="stop-color:#888888"/>
						<stop  offset="1" style="stop-color:#C8C8C8"/>
					</linearGradient>
					<path fill-rule="evenodd" clip-rule="evenodd" fill="url(#SVGID_61_)" d="M135,282.3c0,0.4-0.1,0.7-0.3,1
						c-0.4,0.7-1.1,1.3-2.2,1.8c-1.6,0.8-3.6,1.2-6,1.2c-2.3,0-4.3-0.4-6-1.2c-1.1-0.5-1.8-1.1-2.2-1.8c-0.2-0.3-0.3-0.6-0.3-1v-0.1
						c0-1.1,0.9-2.1,2.5-2.9c1.6-0.8,3.6-1.2,6-1.2c2.4,0,4.4,0.4,6,1.2c1.6,0.8,2.5,1.8,2.5,2.8V282.3z M123.1,280
						c-0.9,0.4-1.4,1-1.4,1.6s0.5,1.2,1.4,1.6c0.9,0.4,2,0.7,3.3,0.7c1.3,0,2.4-0.2,3.3-0.7c0.9-0.5,1.4-1,1.4-1.6s-0.5-1.2-1.4-1.6
						c-0.9-0.4-2-0.6-3.3-0.6C125.1,279.4,124,279.6,123.1,280z"/>
					<path fill-rule="evenodd" clip-rule="evenodd" fill="#040404" d="M123.1,280c0.9-0.4,2-0.6,3.3-0.6c1.3,0,2.4,0.2,3.3,0.6
						c0.9,0.4,1.4,1,1.4,1.6s-0.5,1.2-1.4,1.6c-0.9,0.4-2,0.7-3.3,0.7c-1.3,0-2.4-0.2-3.3-0.7c-0.9-0.5-1.4-1-1.4-1.6
						S122.3,280.5,123.1,280z"/>
					
						<path fill-rule="evenodd" clip-rule="evenodd" fill="none" stroke="#000000" stroke-linecap="round" stroke-linejoin="round" stroke-miterlimit="3" d="
						M123.1,280c0.9-0.4,2-0.6,3.3-0.6c1.3,0,2.4,0.2,3.3,0.6c0.9,0.4,1.4,1,1.4,1.6s-0.5,1.2-1.4,1.6c-0.9,0.4-2,0.7-3.3,0.7
						c-1.3,0-2.4-0.2-3.3-0.7c-0.9-0.5-1.4-1-1.4-1.6S122.3,280.5,123.1,280z"/>
				</g>
			</g>
			<g>
				
					<radialGradient id="SVGID_62_" cx="126.7998" cy="286.1504" r="5.5624" gradientTransform="matrix(1 0 0 0.173 0 236.6367)" gradientUnits="userSpaceOnUse">
					<stop  offset="0" style="stop-color:#FFFFFF"/>
					<stop  offset="0.1765" style="stop-color:#FFFFFF"/>
					<stop  offset="0.3059" style="stop-color:#FFFFFF;stop-opacity:0.4235"/>
					<stop  offset="0.4902" style="stop-color:#FFFFFF;stop-opacity:0.2314"/>
					<stop  offset="0.651" style="stop-color:#FFFFFF;stop-opacity:8.235294e-002"/>
					<stop  offset="1" style="stop-color:#FFFFFF;stop-opacity:0"/>
				</radialGradient>
				<path fill-rule="evenodd" clip-rule="evenodd" fill="url(#SVGID_62_)" d="M126.8,285.2c1.5,0,2.8,0.1,3.9,0.3
					c1.1,0.2,1.6,0.4,1.6,0.6s-0.5,0.5-1.6,0.6c-1.1,0.2-2.4,0.3-3.9,0.3c-1.5,0-2.8-0.1-3.9-0.3c-1-0.2-1.5-0.4-1.5-0.6
					s0.5-0.5,1.5-0.6C124,285.3,125.3,285.2,126.8,285.2z"/>
			</g>
		</g>
		<g>
			<g>
				<polygon fill-rule="evenodd" clip-rule="evenodd" points="121.4,280 124,282.1 128.9,282.1 128.9,282.2 129,282.1 131.8,279.9 
					131.8,282.2 128.9,284.8 124,284.8 121.4,282.7 				"/>
			</g>
			<g>
				<g>
					<polygon fill-rule="evenodd" clip-rule="evenodd" fill="#7B8270" points="121.4,279.6 124,281.9 124,284.5 121.4,282.4 					
						"/>
					<linearGradient id="SVGID_63_" gradientUnits="userSpaceOnUse" x1="121.375" y1="279.6748" x2="131.7251" y2="279.6748">
						<stop  offset="0" style="stop-color:#446971"/>
						<stop  offset="1" style="stop-color:#77A6AA"/>
					</linearGradient>
					<path fill-rule="evenodd" clip-rule="evenodd" fill="url(#SVGID_63_)" d="M124,281.9l-2.6-2.2v0l2.6-2.1h4.6l3.1,2l-2.8,2.3
						h-0.1H124z M126.5,278.3c-0.2,0-0.4,0-0.6,0.1c-0.2,0-0.3,0-0.5,0c-0.2,0.1-0.4,0.1-0.5,0.3c-0.4,0.2-0.6,0.4-0.7,0.6
						c0,0.1,0,0.1,0,0.2c0,0.1,0,0.1,0,0.2c0,0,0.1,0.1,0.1,0.1c0,0,0.1,0.1,0.1,0.2c0.1,0.1,0.1,0.1,0.3,0.1c0,0,0.1,0.1,0.1,0.1
						c0,0,0.1,0,0.1,0c0,0,0.1,0,0.1,0c0.2,0.1,0.3,0.1,0.5,0.2c0.1,0,0.3,0.1,0.4,0.1c0.1,0,0.2,0,0.3,0s0.2,0,0.3,0
						c0.3,0,0.5,0,0.7,0c0.1,0,0.3-0.1,0.4-0.1c0.1,0,0.2-0.1,0.4-0.1c0.1,0,0.1-0.1,0.2-0.1c0,0,0.1,0,0.1,0c0.1,0,0.1-0.1,0.2-0.1
						c0.1,0,0.1-0.1,0.2-0.1c0,0,0.1,0,0.1-0.1h0c0,0,0.1-0.1,0.1-0.1c0,0,0-0.1,0-0.1c0-0.1,0-0.1,0-0.1c0-0.3-0.1-0.5-0.4-0.7
						c-0.1,0-0.1-0.1-0.3-0.1c-0.3-0.2-0.6-0.3-1-0.3C127,278.3,126.7,278.3,126.5,278.3z"/>
					<polygon fill-rule="evenodd" clip-rule="evenodd" fill="#3E372D" points="129,281.9 131.8,279.5 131.8,282 128.9,284.5 
						128.9,281.9 					"/>
					<linearGradient id="SVGID_64_" gradientUnits="userSpaceOnUse" x1="124.1123" y1="279.4248" x2="128.7873" y2="279.4248">
						<stop  offset="0" style="stop-color:#000000"/>
						<stop  offset="0.3294" style="stop-color:#000000"/>
						<stop  offset="0.4941" style="stop-color:#626262"/>
						<stop  offset="0.7059" style="stop-color:#000000"/>
						<stop  offset="1" style="stop-color:#000000"/>
					</linearGradient>
					<path fill-rule="evenodd" clip-rule="evenodd" fill="url(#SVGID_64_)" d="M126.5,278.3c0.3,0,0.5,0,0.7,0.1
						c0.4,0,0.7,0.1,1,0.3c0.1,0,0.2,0.1,0.3,0.1c0.3,0.2,0.4,0.4,0.4,0.7c0,0,0,0.1,0,0.1c0,0.1,0,0.1,0,0.1c0,0.1-0.1,0.1-0.1,0.1
						h0c0,0,0,0-0.1,0.1c-0.1,0.1-0.1,0.1-0.2,0.1c-0.1,0.1-0.1,0.1-0.2,0.1c0,0-0.1,0-0.1,0c-0.1,0-0.1,0.1-0.2,0.1
						c-0.1,0-0.3,0.1-0.4,0.1c-0.1,0-0.2,0.1-0.4,0.1c-0.2,0-0.4,0-0.7,0c-0.1,0-0.2,0-0.3,0s-0.2,0-0.3,0c-0.1,0-0.3-0.1-0.4-0.1
						c-0.2,0-0.3-0.1-0.5-0.2c0,0-0.1,0-0.1,0c0,0-0.1,0-0.1,0c0,0-0.1-0.1-0.1-0.1c-0.1,0-0.2-0.1-0.3-0.1
						c-0.1-0.1-0.1-0.1-0.1-0.2c0-0.1-0.1-0.1-0.1-0.1c0-0.1,0-0.1,0-0.2c0-0.1,0-0.1,0-0.2c0.1-0.2,0.3-0.4,0.7-0.6
						c0.2-0.1,0.4-0.2,0.5-0.3c0.1,0,0.3,0,0.5,0C126,278.3,126.3,278.3,126.5,278.3z"/>
					<polygon fill-rule="evenodd" clip-rule="evenodd" fill="#737D74" points="124,281.9 128.9,281.9 128.9,281.9 128.9,284.5 
						124,284.5 					"/>
					<polygon fill-rule="evenodd" clip-rule="evenodd" fill="#8F0101" points="129,281.9 128.9,281.9 128.9,281.9 					"/>
				</g>
			</g>
			<g>
				
					<radialGradient id="SVGID_65_" cx="124" cy="281.8501" r="2.4625" gradientTransform="matrix(1 0 0 0.7462 0 71.5356)" gradientUnits="userSpaceOnUse">
					<stop  offset="0" style="stop-color:#FFFFFF"/>
					<stop  offset="0.1765" style="stop-color:#FFFFFF"/>
					<stop  offset="0.3059" style="stop-color:#FFFFFF;stop-opacity:0.4235"/>
					<stop  offset="0.4902" style="stop-color:#FFFFFF;stop-opacity:0.2314"/>
					<stop  offset="0.651" style="stop-color:#FFFFFF;stop-opacity:8.235294e-002"/>
					<stop  offset="1" style="stop-color:#FFFFFF;stop-opacity:0"/>
				</radialGradient>
				<path fill-rule="evenodd" clip-rule="evenodd" fill="url(#SVGID_65_)" d="M126.5,281.9c0,0.5-0.2,1-0.7,1.3
					c-0.5,0.4-1.1,0.6-1.8,0.6c-0.6,0-1.2-0.2-1.7-0.6c-0.5-0.3-0.7-0.8-0.7-1.3c0-0.5,0.2-0.9,0.7-1.3c0.5-0.4,1.1-0.6,1.7-0.6
					c0.7,0,1.3,0.2,1.8,0.6C126.2,280.9,126.5,281.4,126.5,281.9z"/>
			</g>
		</g>
		<g>
			
				<radialGradient id="SVGID_66_" cx="126.7002" cy="281.4502" r="15.3125" gradientTransform="matrix(1 0 0 0.6482 0 99.0245)" gradientUnits="userSpaceOnUse">
				<stop  offset="0" style="stop-color:#F0F0F0;stop-opacity:0.4"/>
				<stop  offset="1" style="stop-color:#ECECEC;stop-opacity:0"/>
			</radialGradient>
			<path fill-rule="evenodd" clip-rule="evenodd" fill="url(#SVGID_66_)" d="M118,289.7v-6.2c0,1.1,0.9,2,2.5,2.9
				c1.7,0.8,3.7,1.2,6,1.2c2.4,0,4.4-0.4,6-1.2c1.6-0.8,2.4-1.7,2.5-2.8v6.2c0,1.1-0.8,2-2.5,2.8c-1.7,0.8-3.7,1.2-6,1.2
				c-2.3,0-4.3-0.4-6-1.2C118.9,291.8,118,290.8,118,289.7z"/>
		</g>
	</g>
	<g>
		<g>
			
				<radialGradient id="SVGID_67_" cx="72" cy="283.3501" r="13.7" gradientTransform="matrix(1 0 0 0.6277 0 105.4807)" gradientUnits="userSpaceOnUse">
				<stop  offset="0.5216" style="stop-color:#F20202;stop-opacity:0.7098"/>
				<stop  offset="0.6314" style="stop-color:#E60202;stop-opacity:0.4392"/>
				<stop  offset="1" style="stop-color:#430101;stop-opacity:0"/>
			</radialGradient>
			<path fill-rule="evenodd" clip-rule="evenodd" fill="url(#SVGID_67_)" d="M64.5,289.6V284c0,1,0.8,1.9,2.3,2.6
				c1.5,0.7,3.4,1.1,5.5,1.1c2.1,0,3.9-0.4,5.4-1.1c1.5-0.7,2.2-1.6,2.3-2.6v5.6c0,1-0.8,1.9-2.3,2.6c-1.5,0.7-3.3,1.1-5.4,1.1
				c-2.1,0-3.9-0.4-5.5-1.1C65.3,291.5,64.5,290.6,64.5,289.6z"/>
		</g>
		<g>
			<path fill-rule="evenodd" clip-rule="evenodd" fill="#190000" d="M77.8,281.3c1.5,0.7,2.3,1.6,2.4,2.6v0.2c0,0.3-0.1,0.6-0.3,0.9
				c-0.3,0.6-1,1.2-2.1,1.7c-1.5,0.7-3.4,1.1-5.6,1.1c-2.2,0-4.1-0.4-5.7-1.1c-1-0.5-1.7-1.1-2-1.7c-0.2-0.3-0.3-0.6-0.3-0.9v-0.1
				c0-1,0.8-1.9,2.3-2.6c1.6-0.7,3.5-1.1,5.7-1.1C74.4,280.1,76.3,280.5,77.8,281.3z"/>
		</g>
		<g>
			<g>
				<linearGradient id="SVGID_68_" gradientUnits="userSpaceOnUse" x1="68.8032" y1="275.9224" x2="75.6053" y2="284.7626">
					<stop  offset="0" style="stop-color:#BA0101"/>
					<stop  offset="1" style="stop-color:#650101"/>
				</linearGradient>
				<path fill-rule="evenodd" clip-rule="evenodd" fill="url(#SVGID_68_)" d="M72.2,282c1.2,0,2.2-0.2,3-0.6
					c0.8-0.4,1.3-0.9,1.3-1.5c0-0.6-0.4-1-1.3-1.4c-0.8-0.4-1.8-0.6-3-0.6c-1.2,0-2.2,0.2-3,0.6c-0.8,0.4-1.3,0.9-1.3,1.4
					c0,0.6,0.4,1.1,1.3,1.5C70,281.8,71,282,72.2,282z M64.5,280.5v-0.2c0-1,0.8-1.9,2.3-2.6c1.5-0.7,3.3-1.1,5.5-1.1
					s3.9,0.4,5.4,1.1c1.5,0.7,2.2,1.6,2.3,2.6v0.1c0,0.3-0.1,0.6-0.3,1c-0.3,0.6-1,1.1-2,1.6c-1.5,0.7-3.3,1.1-5.4,1.1
					s-4-0.4-5.5-1.1c-1-0.5-1.7-1-2-1.6C64.6,281.1,64.5,280.8,64.5,280.5z"/>
				<linearGradient id="SVGID_69_" gradientUnits="userSpaceOnUse" x1="67.9375" y1="279.9248" x2="76.4625" y2="279.9248">
					<stop  offset="0" style="stop-color:#4B0101"/>
					<stop  offset="0.4706" style="stop-color:#000000"/>
					<stop  offset="1" style="stop-color:#3A0101"/>
				</linearGradient>
				<path fill-rule="evenodd" clip-rule="evenodd" fill="url(#SVGID_69_)" d="M72.2,282c-1.2,0-2.2-0.2-3-0.6
					c-0.8-0.4-1.3-0.9-1.3-1.5c0-0.6,0.4-1,1.3-1.4c0.8-0.4,1.8-0.6,3-0.6c1.2,0,2.2,0.2,3,0.6c0.8,0.4,1.3,0.9,1.3,1.4
					c0,0.6-0.4,1.1-1.3,1.5C74.4,281.8,73.4,282,72.2,282z"/>
				<linearGradient id="SVGID_70_" gradientUnits="userSpaceOnUse" x1="63.9624" y1="283.7998" x2="80.4374" y2="283.7998">
					<stop  offset="0" style="stop-color:#8F0101"/>
					<stop  offset="0.502" style="stop-color:#F40202"/>
					<stop  offset="0.8196" style="stop-color:#8C0101"/>
					<stop  offset="1" style="stop-color:#430101"/>
				</linearGradient>
				<path fill-rule="evenodd" clip-rule="evenodd" fill="url(#SVGID_70_)" d="M79.9,280.4v3.1c0,1-0.8,1.9-2.3,2.6
					c-1.5,0.7-3.3,1.1-5.4,1.1c-2.1,0-3.9-0.4-5.5-1.1c-1.5-0.7-2.2-1.6-2.3-2.6v-3c0,0.3,0.1,0.6,0.3,0.9c0.3,0.6,1,1.1,2,1.6
					c1.5,0.7,3.3,1.1,5.5,1.1s3.9-0.4,5.4-1.1c1-0.5,1.6-1,2-1.6C79.8,281,79.9,280.7,79.9,280.4z"/>
			</g>
		</g>
		<g>
			<radialGradient id="SVGID_71_" cx="72.2002" cy="282.5498" r="7.7375" gradientUnits="userSpaceOnUse">
				<stop  offset="0" style="stop-color:#FFFFFF"/>
				<stop  offset="1" style="stop-color:#FFFFFF;stop-opacity:2.352941e-002"/>
			</radialGradient>
			<path fill-rule="evenodd" clip-rule="evenodd" fill="url(#SVGID_71_)" d="M77.5,282.9c1-0.5,1.6-1,1.9-1.6
				c0.1-0.1,0.1-0.2,0.1-0.3s0.1-0.1,0.1-0.1c0.1,0,0.1,0,0.1,0s0.1,0.1,0.1,0.1c0,0,0,0.1,0,0.1c-0.1,0.1-0.1,0.2-0.2,0.3
				c-0.3,0.6-1,1.2-2,1.8c-1.5,0.7-3.4,1.1-5.5,1.1c-2.2,0-4-0.4-5.6-1.1c-1-0.5-1.7-1.1-2-1.8c-0.1-0.1-0.1-0.3-0.1-0.4
				c0,0,0-0.1,0-0.1c0-0.1,0.1-0.1,0.1-0.1c0.1,0,0.1,0,0.2,0c0.1,0,0.1,0.1,0.1,0.1c0,0.1,0.1,0.1,0.2,0.3c0.3,0.6,0.9,1.1,1.9,1.6
				c1.5,0.7,3.3,1,5.4,1C74.3,283.9,76.1,283.5,77.5,282.9z"/>
		</g>
		<g>
			
				<radialGradient id="SVGID_72_" cx="72" cy="277.8999" r="3.8875" gradientTransform="matrix(1 0 0 0.2251 0 215.3501)" gradientUnits="userSpaceOnUse">
				<stop  offset="0" style="stop-color:#FFFFFF"/>
				<stop  offset="0.1765" style="stop-color:#FFFFFF"/>
				<stop  offset="0.3059" style="stop-color:#FFFFFF;stop-opacity:0.4235"/>
				<stop  offset="0.4902" style="stop-color:#FFFFFF;stop-opacity:0.2314"/>
				<stop  offset="0.651" style="stop-color:#FFFFFF;stop-opacity:8.235294e-002"/>
				<stop  offset="1" style="stop-color:#FFFFFF;stop-opacity:0"/>
			</radialGradient>
			<path fill-rule="evenodd" clip-rule="evenodd" fill="url(#SVGID_72_)" d="M69.3,277.4c0.8-0.2,1.7-0.3,2.7-0.3s1.9,0.1,2.7,0.3
				c0.8,0.2,1.2,0.4,1.2,0.5c0,0.3-0.4,0.5-1.2,0.6c-0.8,0.2-1.7,0.3-2.7,0.3s-1.9-0.1-2.7-0.3c-0.7-0.2-1.1-0.4-1.1-0.6
				C68.2,277.7,68.6,277.5,69.3,277.4z"/>
		</g>
		<g>
			
				<radialGradient id="SVGID_73_" cx="72" cy="284.1001" r="5.575" gradientTransform="matrix(1 0 0 0.2265 0 219.7635)" gradientUnits="userSpaceOnUse">
				<stop  offset="0" style="stop-color:#FFFFFF"/>
				<stop  offset="0.1765" style="stop-color:#FFFFFF"/>
				<stop  offset="0.3059" style="stop-color:#FFFFFF;stop-opacity:0.4235"/>
				<stop  offset="0.4902" style="stop-color:#FFFFFF;stop-opacity:0.2314"/>
				<stop  offset="0.651" style="stop-color:#FFFFFF;stop-opacity:8.235294e-002"/>
				<stop  offset="1" style="stop-color:#FFFFFF;stop-opacity:0"/>
			</radialGradient>
			<path fill-rule="evenodd" clip-rule="evenodd" fill="url(#SVGID_73_)" d="M68.1,283.3c1.1-0.3,2.4-0.4,3.9-0.4s2.8,0.1,3.9,0.4
				c1.1,0.2,1.6,0.5,1.6,0.9c0,0.3-0.5,0.6-1.6,0.9c-1.1,0.3-2.4,0.4-3.9,0.4s-2.8-0.1-3.9-0.4c-1-0.2-1.6-0.5-1.6-0.9
				C66.5,283.7,67.1,283.5,68.1,283.3z"/>
		</g>
	</g>
	<g>
		<g>
			<linearGradient id="SVGID_74_" gradientUnits="userSpaceOnUse" x1="147.9712" y1="238.6738" x2="147.9482" y2="269.9238">
				<stop  offset="0" style="stop-color:#1E1E1E"/>
				<stop  offset="1" style="stop-color:#1E1E1E;stop-opacity:0"/>
			</linearGradient>
			<rect x="128.3" y="263.1" fill-rule="evenodd" clip-rule="evenodd" fill="url(#SVGID_74_)" width="39.3" height="9.6"/>
			<linearGradient id="SVGID_75_" gradientUnits="userSpaceOnUse" x1="157.9341" y1="252.6792" x2="170.2798" y2="254.2628">
				<stop  offset="0" style="stop-color:#1E1E1E"/>
				<stop  offset="1" style="stop-color:#1E1E1E;stop-opacity:0"/>
			</linearGradient>
			<polygon fill-rule="evenodd" clip-rule="evenodd" fill="url(#SVGID_75_)" points="167.6,263.1 171.2,235.6 171.3,272.7 
				167.6,272.7 			"/>
		</g>
	</g>
	<g>
		<polygon fill-rule="evenodd" clip-rule="evenodd" points="127.3,262.5 135.4,228 170.8,228 167.1,262.5 		"/>
	</g>
	<g>
		<g>
			<g>
				<linearGradient id="SVGID_76_" gradientUnits="userSpaceOnUse" x1="163.6157" y1="192.3491" x2="165.7782" y2="174.8507">
					<stop  offset="0" style="stop-color:#302E30"/>
					<stop  offset="1" style="stop-color:#656261"/>
				</linearGradient>
				<polygon fill-rule="evenodd" clip-rule="evenodd" fill="url(#SVGID_76_)" points="166.6,192 166.6,191.8 159.1,191.8 
					163.5,175.4 170.3,175.4 				"/>
				<polygon fill-rule="evenodd" clip-rule="evenodd" fill="#1E1E1E" points="159.1,225.8 159.1,191.8 166.6,191.8 166.6,192 
					166.6,225.8 166.6,228.4 166.6,257.7 166.6,261.2 128.3,261.2 128.3,257.7 159.1,257.7 159.1,228.4 				"/>
				<linearGradient id="SVGID_77_" gradientUnits="userSpaceOnUse" x1="168.4497" y1="214.9248" x2="168.4497" y2="234.6748">
					<stop  offset="0" style="stop-color:#3F3D3A"/>
					<stop  offset="1" style="stop-color:#2E2927"/>
				</linearGradient>
				<polygon fill-rule="evenodd" clip-rule="evenodd" fill="url(#SVGID_77_)" points="166.6,261.2 166.6,257.7 166.6,228.4 
					166.6,225.8 166.6,192 170.3,175.4 170.3,228.2 170.3,228.8 167,257.8 				"/>
				<linearGradient id="SVGID_78_" gradientUnits="userSpaceOnUse" x1="137.7622" y1="240.9697" x2="210.9118" y2="250.6231">
					<stop  offset="0" style="stop-color:#464342"/>
					<stop  offset="1" style="stop-color:#000000"/>
				</linearGradient>
				<polygon fill-rule="evenodd" clip-rule="evenodd" fill="url(#SVGID_78_)" points="159.1,225.8 159.1,228.4 159.1,257.7 
					128.3,257.7 128.3,257.6 135.2,225.8 				"/>
			</g>
		</g>
		<g>
			<g>
				<path fill-rule="evenodd" clip-rule="evenodd" fill="#FFFFFF" fill-opacity="0.2118" d="M166.8,191.8c0,0.1,0,0.1,0,0.2l0,0
					c-0.1,0-0.1,0-0.2,0c-0.1,0-0.1,0-0.1-0.1l0,0v-0.1l0-0.2l3.7-16.2c0-0.1,0-0.1,0.1-0.1c0,0,0.1,0,0.1,0c0.1,0,0.1,0,0.2,0.1
					c0,0,0,0.1,0,0.2L166.8,191.8L166.8,191.8z"/>
				
					<radialGradient id="SVGID_79_" cx="164.6001" cy="191.75" r="5.425" gradientTransform="matrix(1 0 0 0.6797 0 61.413)" gradientUnits="userSpaceOnUse">
					<stop  offset="0" style="stop-color:#FFFFFF;stop-opacity:0.298"/>
					<stop  offset="1" style="stop-color:#FFFFFF;stop-opacity:0"/>
				</radialGradient>
				<path fill-rule="evenodd" clip-rule="evenodd" fill="url(#SVGID_79_)" d="M166.4,192h-7.1c-0.1,0-0.1,0-0.2,0c0-0.1,0-0.1,0-0.2
					c0,0,0-0.1,0-0.1c0.1,0,0.1-0.1,0.2-0.1h7.2l0,0.2v0.1V192z"/>
				
					<radialGradient id="SVGID_80_" cx="134.1499" cy="239.0498" r="32.425" gradientTransform="matrix(1 0 0 0.9291 0 16.9565)" gradientUnits="userSpaceOnUse">
					<stop  offset="0" style="stop-color:#FFFFFF"/>
					<stop  offset="0.549" style="stop-color:#FFFFFF;stop-opacity:0.451"/>
					<stop  offset="1" style="stop-color:#FFFFFF;stop-opacity:0"/>
				</radialGradient>
				<path fill-rule="evenodd" clip-rule="evenodd" fill="url(#SVGID_80_)" d="M166.7,192c0,0-0.1,0-0.1,0c-0.1,0-0.1,0-0.2-0.1
					c0,0,0-0.1,0-0.1l0,0c0,0.1,0.1,0.1,0.1,0.1C166.6,192,166.6,192,166.7,192z M159.1,257.5c0.1,0,0.1,0,0.2,0
					c0,0,0.1,0.1,0.1,0.2c0,0.1,0,0.1-0.1,0.2c-0.1,0-0.1,0.1-0.2,0.1h-30.9c-0.1,0-0.1,0-0.1-0.1c-0.1-0.1-0.1-0.1-0.1-0.2v-0.1
					c0-0.1,0-0.1,0.1-0.1c0-0.1,0.1-0.1,0.1-0.1s0.1,0,0.2,0.1l0,0H159.1z"/>
				
					<radialGradient id="SVGID_81_" cx="166.6001" cy="221.3501" r="1.875" gradientTransform="matrix(1 0 0 22.8733 0 -4841.6646)" gradientUnits="userSpaceOnUse">
					<stop  offset="0" style="stop-color:#FFFFFF;stop-opacity:0.2235"/>
					<stop  offset="1" style="stop-color:#FFFFFF;stop-opacity:0"/>
				</radialGradient>
				<path fill-rule="evenodd" clip-rule="evenodd" fill="url(#SVGID_81_)" d="M166.4,257.8V192v-0.1c0,0,0,0.1,0,0.1
					c0.1,0.1,0.1,0.1,0.2,0.1c0,0,0.1,0,0.1,0l0,0c0,0,0-0.1,0-0.2v66c0,0,0,0.1,0,0.1c-0.1,0-0.1,0.1-0.1,0.1c-0.1,0-0.1,0-0.2-0.1
					C166.4,257.8,166.4,257.8,166.4,257.8z"/>
				
					<radialGradient id="SVGID_82_" cx="168.4502" cy="218.2998" r="1.875" gradientTransform="matrix(1 0 0 22.8733 0 -4774.9443)" gradientUnits="userSpaceOnUse">
					<stop  offset="0" style="stop-color:#FFFFFF"/>
					<stop  offset="1" style="stop-color:#FFFFFF;stop-opacity:0"/>
				</radialGradient>
				<path fill-rule="evenodd" clip-rule="evenodd" fill="url(#SVGID_82_)" d="M166.8,257.8v3.5c0,0.1,0,0.1,0,0.1
					c-0.1,0.1-0.1,0.1-0.1,0.1c-0.1,0-0.1,0-0.2-0.1c0,0,0-0.1,0-0.1v-3.5c0,0,0,0.1,0,0.1c0.1,0,0.1,0.1,0.2,0.1c0,0,0.1,0,0.1-0.1
					C166.8,257.8,166.8,257.8,166.8,257.8z"/>
			</g>
		</g>
		<g>
			<g>
				
					<radialGradient id="SVGID_83_" cx="249.5728" cy="-196.918" r="3.4215" fx="247.6272" fy="-196.918" gradientTransform="matrix(-0.2374 0.9714 2.7682 -1.825973e-002 748.143 -4.9348)" gradientUnits="userSpaceOnUse">
					<stop  offset="0" style="stop-color:#000000"/>
					<stop  offset="0.4431" style="stop-color:#000000;stop-opacity:0.7569"/>
					<stop  offset="0.6824" style="stop-color:#000000;stop-opacity:0.3412"/>
					<stop  offset="1" style="stop-color:#000000;stop-opacity:0"/>
				</radialGradient>
				<path fill-rule="evenodd" clip-rule="evenodd" fill="url(#SVGID_83_)" d="M144,239c1.2,0,2.1,0.1,2.9,0.4
					c0.3,0.1,0.6,0.3,0.8,0.5v5.4h-8.5l0-4.6c0.1-0.5,0.7-0.9,1.6-1.2C141.6,239.1,142.7,239,144,239z"/>
			</g>
			<g>
				<g>
					<linearGradient id="SVGID_84_" gradientUnits="userSpaceOnUse" x1="139.1411" y1="240.876" x2="147.6664" y2="240.4822">
						<stop  offset="0" style="stop-color:#070707"/>
						<stop  offset="0.4471" style="stop-color:#EFEFED"/>
						<stop  offset="1" style="stop-color:#0E0E0E"/>
					</linearGradient>
					<path fill-rule="evenodd" clip-rule="evenodd" fill="url(#SVGID_84_)" d="M147.6,238.9v1.6c0,0.6-0.5,1.1-1.3,1.4
						c-0.8,0.4-1.8,0.6-2.9,0.6c-1.2,0-2.2-0.2-3-0.6c-0.8-0.4-1.3-0.9-1.3-1.4V239c0,0.2,0.1,0.4,0.3,0.6c0.2,0.3,0.6,0.5,1,0.7
						c0.8,0.4,1.8,0.6,3,0.6c1.2,0,2.1-0.2,2.9-0.6c0.5-0.2,0.8-0.4,1-0.7C147.5,239.4,147.6,239.1,147.6,238.9z"/>
					
						<radialGradient id="SVGID_85_" cx="141.1001" cy="238.1499" r="6.775" gradientTransform="matrix(1 0 0 0.714 0 68.1056)" gradientUnits="userSpaceOnUse">
						<stop  offset="0" style="stop-color:#EFEFED"/>
						<stop  offset="1" style="stop-color:#0E0E0E"/>
					</radialGradient>
					<path fill-rule="evenodd" clip-rule="evenodd" fill="url(#SVGID_85_)" d="M139.1,239v-0.3c0-0.6,0.4-1,1.3-1.4
						c0.8-0.4,1.8-0.6,3-0.6c1.2,0,2.1,0.2,2.9,0.6c0.8,0.4,1.3,0.9,1.3,1.4v0.1c0,0.3-0.1,0.5-0.3,0.8c-0.2,0.3-0.5,0.5-1,0.7
						c-0.8,0.4-1.8,0.6-2.9,0.6c-1.2,0-2.2-0.2-3-0.6c-0.4-0.2-0.7-0.4-1-0.7C139.2,239.4,139.1,239.2,139.1,239z"/>
				</g>
			</g>
			<g>
				<polygon fill-rule="evenodd" clip-rule="evenodd" points="141.4,238 143,238.3 143.9,237.4 145.1,237.6 144.2,238.5 
					145.8,238.8 145.2,239.5 143.6,239.1 142.8,240 141.5,239.9 142.4,239 140.7,238.7 				"/>
			</g>
			<g>
				
					<radialGradient id="SVGID_86_" cx="276.895" cy="-52.3804" r="0.7871" gradientTransform="matrix(0.3494 0.937 2.8745 -1.1117 199.4228 -77.1251)" gradientUnits="userSpaceOnUse">
					<stop  offset="0" style="stop-color:#FFFFFF"/>
					<stop  offset="0.4078" style="stop-color:#FEFEFE;stop-opacity:0.1882"/>
					<stop  offset="0.8" style="stop-color:#FEFEFE;stop-opacity:0"/>
					<stop  offset="1" style="stop-color:#FAFAFA;stop-opacity:0"/>
				</radialGradient>
				<path fill-rule="evenodd" clip-rule="evenodd" fill="url(#SVGID_86_)" d="M144.5,241c-0.1-0.2,0-0.4,0.3-0.7
					c0.2-0.3,0.6-0.5,1.1-0.7c0.4-0.1,0.8-0.2,1.1-0.2c0.4,0,0.6,0.1,0.7,0.4c0.1,0.2,0,0.4-0.3,0.6c-0.3,0.3-0.7,0.5-1.1,0.6
					c-0.5,0.2-0.9,0.3-1.3,0.3S144.6,241.1,144.5,241z"/>
			</g>
		</g>
	</g>
	<g>
		<g>
			
				<radialGradient id="SVGID_87_" cx="215.3955" cy="-110.3735" r="2.7801" fx="213.782" fy="-110.3735" gradientTransform="matrix(-0.2383 0.9712 2.7652 -1.798502e-002 419.0331 -2.7256)" gradientUnits="userSpaceOnUse">
				<stop  offset="0" style="stop-color:#000000"/>
				<stop  offset="0.4431" style="stop-color:#000000;stop-opacity:0.7569"/>
				<stop  offset="0.6824" style="stop-color:#000000;stop-opacity:0.3412"/>
				<stop  offset="1" style="stop-color:#000000;stop-opacity:0"/>
			</radialGradient>
			<path fill-rule="evenodd" clip-rule="evenodd" fill="url(#SVGID_87_)" d="M65.6,211.9h-6.9l0-3.8c0.1-0.4,0.5-0.7,1.3-0.9
				c0.7-0.3,1.6-0.4,2.6-0.4c1,0,1.8,0.1,2.4,0.4c0.3,0.1,0.5,0.2,0.6,0.4V211.9z"/>
		</g>
		<g>
			<g>
				<linearGradient id="SVGID_88_" gradientUnits="userSpaceOnUse" x1="58.7378" y1="208.2222" x2="65.6626" y2="207.8935">
					<stop  offset="0" style="stop-color:#070707"/>
					<stop  offset="0.4471" style="stop-color:#EFEFED"/>
					<stop  offset="1" style="stop-color:#0E0E0E"/>
				</linearGradient>
				<path fill-rule="evenodd" clip-rule="evenodd" fill="url(#SVGID_88_)" d="M58.7,206.7c0,0.2,0.1,0.4,0.3,0.6
					c0.2,0.2,0.4,0.4,0.8,0.5c0.7,0.3,1.5,0.5,2.4,0.5c0.9,0,1.7-0.2,2.4-0.5c0.4-0.2,0.6-0.3,0.8-0.5c0.1-0.2,0.2-0.4,0.3-0.6v1.3
					c0,0.5-0.4,0.8-1.1,1.1c-0.7,0.3-1.5,0.5-2.4,0.5c-1,0-1.8-0.2-2.4-0.5c-0.7-0.3-1-0.7-1-1.1V206.7z"/>
				
					<radialGradient id="SVGID_89_" cx="60.2998" cy="206.0498" r="5.5" gradientTransform="matrix(1 0 0 0.7136 0 59.0052)" gradientUnits="userSpaceOnUse">
					<stop  offset="0" style="stop-color:#EFEFED"/>
					<stop  offset="1" style="stop-color:#0E0E0E"/>
				</radialGradient>
				<path fill-rule="evenodd" clip-rule="evenodd" fill="url(#SVGID_89_)" d="M65.6,206.6c0,0.2-0.1,0.4-0.3,0.6
					c-0.2,0.2-0.4,0.4-0.8,0.5c-0.7,0.3-1.5,0.5-2.4,0.5c-1,0-1.8-0.2-2.4-0.5c-0.3-0.2-0.6-0.3-0.8-0.5c-0.2-0.2-0.2-0.4-0.3-0.6
					v-0.1c0-0.5,0.3-0.9,1-1.2c0.7-0.3,1.5-0.4,2.4-0.4c0.9,0,1.7,0.1,2.4,0.4C65.2,205.7,65.6,206.1,65.6,206.6L65.6,206.6z"/>
			</g>
		</g>
		<g>
			<polygon fill-rule="evenodd" clip-rule="evenodd" points="63.5,205.6 62.9,206.4 64.1,206.6 63.6,207.1 62.4,206.9 61.6,207.6 
				60.7,207.5 61.4,206.7 60,206.5 60.5,206 61.9,206.2 62.5,205.5 			"/>
		</g>
		<g>
			
				<radialGradient id="SVGID_90_" cx="217.0645" cy="13.1553" r="0.6408" gradientTransform="matrix(0.3511 0.9363 2.8675 -1.1119 -49.9894 19.3835)" gradientUnits="userSpaceOnUse">
				<stop  offset="0" style="stop-color:#FFFFFF"/>
				<stop  offset="0.4078" style="stop-color:#FEFEFE;stop-opacity:0.1882"/>
				<stop  offset="0.8" style="stop-color:#FEFEFE;stop-opacity:0"/>
				<stop  offset="1" style="stop-color:#FAFAFA;stop-opacity:0"/>
			</radialGradient>
			<path fill-rule="evenodd" clip-rule="evenodd" fill="url(#SVGID_90_)" d="M65.7,207.4c0.1,0.1,0,0.3-0.2,0.5
				c-0.2,0.2-0.5,0.4-0.9,0.5s-0.7,0.2-1,0.2c-0.3,0-0.5-0.1-0.5-0.3c-0.1-0.1,0-0.3,0.2-0.6c0.2-0.2,0.5-0.4,0.9-0.5
				c0.3-0.1,0.6-0.1,0.9-0.1C65.5,207.1,65.7,207.2,65.7,207.4z"/>
		</g>
	</g>
	<g>
		<g>
			
				<radialGradient id="SVGID_91_" cx="216.563" cy="-279.3608" r="2.7801" fx="214.9603" fy="-279.3608" gradientTransform="matrix(-0.2383 0.9712 2.7652 -1.798502e-002 1060.5945 -6.8984)" gradientUnits="userSpaceOnUse">
				<stop  offset="0" style="stop-color:#000000"/>
				<stop  offset="0.4431" style="stop-color:#000000;stop-opacity:0.7569"/>
				<stop  offset="0.6824" style="stop-color:#000000;stop-opacity:0.3412"/>
				<stop  offset="1" style="stop-color:#000000;stop-opacity:0"/>
			</radialGradient>
			<path fill-rule="evenodd" clip-rule="evenodd" fill="url(#SVGID_91_)" d="M239.6,207.5v4.4h-6.9l0-3.8c0.1-0.4,0.5-0.7,1.3-0.9
				c0.7-0.3,1.6-0.4,2.6-0.4c1,0,1.8,0.1,2.4,0.4C239.3,207.2,239.5,207.3,239.6,207.5z"/>
		</g>
		<g>
			<g>
				
					<radialGradient id="SVGID_92_" cx="234.2998" cy="206.0498" r="5.5" gradientTransform="matrix(1 0 0 0.7136 0 59.0052)" gradientUnits="userSpaceOnUse">
					<stop  offset="0" style="stop-color:#EFEFED"/>
					<stop  offset="1" style="stop-color:#0E0E0E"/>
				</radialGradient>
				<path fill-rule="evenodd" clip-rule="evenodd" fill="url(#SVGID_92_)" d="M239.6,206.6c0,0.2-0.1,0.4-0.3,0.6
					c-0.2,0.2-0.4,0.4-0.8,0.5c-0.7,0.3-1.5,0.5-2.4,0.5c-1,0-1.8-0.2-2.4-0.5c-0.3-0.2-0.6-0.3-0.8-0.5c-0.2-0.2-0.2-0.3-0.3-0.5
					v-0.1c0-0.5,0.3-0.9,1-1.2c0.7-0.3,1.5-0.4,2.4-0.4c0.9,0,1.7,0.1,2.4,0.4C239.2,205.7,239.6,206.1,239.6,206.6L239.6,206.6z"/>
				<linearGradient id="SVGID_93_" gradientUnits="userSpaceOnUse" x1="232.7388" y1="208.2466" x2="239.6636" y2="207.9179">
					<stop  offset="0" style="stop-color:#070707"/>
					<stop  offset="0.4471" style="stop-color:#EFEFED"/>
					<stop  offset="1" style="stop-color:#0E0E0E"/>
				</linearGradient>
				<path fill-rule="evenodd" clip-rule="evenodd" fill="url(#SVGID_93_)" d="M232.7,206.7c0,0.2,0.1,0.4,0.3,0.5
					c0.2,0.2,0.4,0.4,0.8,0.5c0.7,0.3,1.5,0.5,2.4,0.5c0.9,0,1.7-0.2,2.4-0.5c0.4-0.2,0.6-0.3,0.8-0.5c0.1-0.2,0.2-0.4,0.3-0.6v1.3
					c0,0.5-0.4,0.8-1.1,1.1c-0.7,0.3-1.5,0.5-2.4,0.5c-1,0-1.8-0.2-2.4-0.5c-0.7-0.3-1-0.7-1-1.1V206.7z"/>
			</g>
		</g>
		<g>
			<polygon fill-rule="evenodd" clip-rule="evenodd" points="237.5,205.6 236.9,206.4 238.1,206.6 237.6,207.1 236.4,206.9 
				235.6,207.6 234.7,207.5 235.4,206.7 234,206.5 234.5,206 235.9,206.2 236.5,205.5 			"/>
		</g>
		<g>
			
				<radialGradient id="SVGID_94_" cx="279.9741" cy="-149.7656" r="0.6408" gradientTransform="matrix(0.3511 0.9363 2.8675 -1.1119 569.0981 -220.6708)" gradientUnits="userSpaceOnUse">
				<stop  offset="0" style="stop-color:#FFFFFF"/>
				<stop  offset="0.4078" style="stop-color:#FEFEFE;stop-opacity:0.1882"/>
				<stop  offset="0.8" style="stop-color:#FEFEFE;stop-opacity:0"/>
				<stop  offset="1" style="stop-color:#FAFAFA;stop-opacity:0"/>
			</radialGradient>
			<path fill-rule="evenodd" clip-rule="evenodd" fill="url(#SVGID_94_)" d="M239.1,207.1c0.3,0,0.5,0.1,0.6,0.3
				c0.1,0.1,0,0.3-0.2,0.5c-0.2,0.2-0.5,0.4-0.9,0.5s-0.7,0.2-1,0.2c-0.3,0-0.5-0.1-0.5-0.3c-0.1-0.1,0-0.3,0.2-0.6
				c0.2-0.2,0.5-0.4,0.9-0.5C238.5,207.1,238.9,207.1,239.1,207.1z"/>
		</g>
	</g>
	<g>
		<g>
			
				<radialGradient id="SVGID_95_" cx="308.9048" cy="-106.6582" r="3.4217" fx="306.9323" fy="-106.6582" gradientTransform="matrix(-0.2374 0.9714 2.7682 -1.825973e-002 405.2225 -2.6728)" gradientUnits="userSpaceOnUse">
				<stop  offset="0" style="stop-color:#000000"/>
				<stop  offset="0.4431" style="stop-color:#000000;stop-opacity:0.7569"/>
				<stop  offset="0.6824" style="stop-color:#000000;stop-opacity:0.3412"/>
				<stop  offset="1" style="stop-color:#000000;stop-opacity:0"/>
			</radialGradient>
			<path fill-rule="evenodd" clip-rule="evenodd" fill="url(#SVGID_95_)" d="M40.5,298.1v5.4H32l0-4.6c0.1-0.5,0.7-0.9,1.6-1.2
				c0.9-0.3,2-0.4,3.3-0.4c1.2,0,2.1,0.1,2.9,0.4C40,297.8,40.3,297.9,40.5,298.1z"/>
		</g>
		<g>
			<g>
				
					<radialGradient id="SVGID_96_" cx="33.9502" cy="296.3999" r="6.775" gradientTransform="matrix(1 0 0 0.714 0 84.7638)" gradientUnits="userSpaceOnUse">
					<stop  offset="0" style="stop-color:#EFEFED"/>
					<stop  offset="1" style="stop-color:#0E0E0E"/>
				</radialGradient>
				<path fill-rule="evenodd" clip-rule="evenodd" fill="url(#SVGID_96_)" d="M40.5,297.1c0,0.3-0.1,0.5-0.3,0.8
					c-0.2,0.3-0.5,0.5-1,0.7c-0.8,0.4-1.8,0.6-2.9,0.6c-1.2,0-2.2-0.2-3-0.6c-0.4-0.2-0.7-0.4-1-0.7c-0.2-0.2-0.3-0.4-0.3-0.6V297
					c0-0.6,0.4-1,1.3-1.4c0.8-0.4,1.8-0.6,3-0.6c1.2,0,2.1,0.2,2.9,0.6C40,296,40.4,296.5,40.5,297.1L40.5,297.1z"/>
				<linearGradient id="SVGID_97_" gradientUnits="userSpaceOnUse" x1="31.9888" y1="299.0889" x2="40.5141" y2="298.6951">
					<stop  offset="0" style="stop-color:#070707"/>
					<stop  offset="0.4471" style="stop-color:#EFEFED"/>
					<stop  offset="1" style="stop-color:#0E0E0E"/>
				</linearGradient>
				<path fill-rule="evenodd" clip-rule="evenodd" fill="url(#SVGID_97_)" d="M32,297.2c0,0.2,0.1,0.4,0.3,0.6
					c0.2,0.3,0.5,0.5,1,0.7c0.8,0.4,1.8,0.6,3,0.6c1.2,0,2.1-0.2,2.9-0.6c0.5-0.2,0.8-0.4,1-0.7c0.2-0.2,0.3-0.5,0.3-0.8v1.6
					c0,0.6-0.5,1.1-1.3,1.4c-0.8,0.4-1.8,0.6-2.9,0.6c-1.2,0-2.2-0.2-3-0.6c-0.8-0.4-1.3-0.9-1.3-1.4V297.2z"/>
			</g>
		</g>
		<g>
			<polygon fill-rule="evenodd" clip-rule="evenodd" points="37,296.8 38.6,297 38,297.8 36.5,297.4 35.6,298.3 34.4,298.1 
				35.3,297.2 33.5,297 34.2,296.3 35.9,296.5 36.7,295.6 38,295.9 			"/>
		</g>
		<g>
			
				<radialGradient id="SVGID_98_" cx="292.5752" cy="68.3687" r="0.7871" gradientTransform="matrix(0.3494 0.937 2.8745 -1.1117 -260.2944 100.6661)" gradientUnits="userSpaceOnUse">
				<stop  offset="0" style="stop-color:#FFFFFF"/>
				<stop  offset="0.4078" style="stop-color:#FEFEFE;stop-opacity:0.1882"/>
				<stop  offset="0.8" style="stop-color:#FEFEFE;stop-opacity:0"/>
				<stop  offset="1" style="stop-color:#FAFAFA;stop-opacity:0"/>
			</radialGradient>
			<path fill-rule="evenodd" clip-rule="evenodd" fill="url(#SVGID_98_)" d="M37.6,298.5c0.2-0.3,0.6-0.5,1.1-0.7
				c0.4-0.1,0.8-0.2,1.1-0.2c0.4,0,0.6,0.1,0.7,0.4c0.1,0.2,0,0.4-0.3,0.6c-0.3,0.3-0.7,0.5-1.1,0.6c-0.5,0.2-0.9,0.3-1.3,0.3
				s-0.6-0.1-0.6-0.3C37.3,299,37.4,298.8,37.6,298.5z"/>
		</g>
	</g>
	<g>
		<g>
			
				<radialGradient id="SVGID_99_" cx="310.1885" cy="-290.0615" r="3.4215" fx="308.2295" fy="-290.0615" gradientTransform="matrix(-0.2374 0.9714 2.7682 -1.825973e-002 1102.0197 -7.2691)" gradientUnits="userSpaceOnUse">
				<stop  offset="0" style="stop-color:#000000"/>
				<stop  offset="0.4431" style="stop-color:#000000;stop-opacity:0.7569"/>
				<stop  offset="0.6824" style="stop-color:#000000;stop-opacity:0.3412"/>
				<stop  offset="1" style="stop-color:#000000;stop-opacity:0"/>
			</radialGradient>
			<path fill-rule="evenodd" clip-rule="evenodd" fill="url(#SVGID_99_)" d="M228.5,297.6c0.3,0.1,0.6,0.3,0.8,0.5v5.4h-8.5l0-4.6
				c0.1-0.5,0.7-0.9,1.6-1.2c0.9-0.3,2-0.4,3.3-0.4C226.8,297.2,227.8,297.4,228.5,297.6z"/>
		</g>
		<g>
			<g>
				
					<radialGradient id="SVGID_100_" cx="222.75" cy="296.3999" r="6.775" gradientTransform="matrix(1 0 0 0.714 0 84.7638)" gradientUnits="userSpaceOnUse">
					<stop  offset="0" style="stop-color:#EFEFED"/>
					<stop  offset="1" style="stop-color:#0E0E0E"/>
				</radialGradient>
				<path fill-rule="evenodd" clip-rule="evenodd" fill="url(#SVGID_100_)" d="M229.3,297.1c0,0.3-0.1,0.5-0.3,0.8
					c-0.2,0.3-0.5,0.5-1,0.7c-0.8,0.4-1.8,0.6-3,0.6c-1.2,0-2.2-0.2-3-0.6c-0.4-0.2-0.7-0.4-1-0.7c-0.2-0.2-0.3-0.4-0.3-0.6V297
					c0-0.6,0.4-1,1.3-1.4c0.8-0.4,1.8-0.6,3-0.6c1.2,0,2.1,0.2,3,0.6C228.8,296,229.2,296.5,229.3,297.1L229.3,297.1z"/>
				<linearGradient id="SVGID_101_" gradientUnits="userSpaceOnUse" x1="220.7905" y1="299.1138" x2="229.3158" y2="298.72">
					<stop  offset="0" style="stop-color:#070707"/>
					<stop  offset="0.4471" style="stop-color:#EFEFED"/>
					<stop  offset="1" style="stop-color:#0E0E0E"/>
				</linearGradient>
				<path fill-rule="evenodd" clip-rule="evenodd" fill="url(#SVGID_101_)" d="M220.8,297.3c0,0.2,0.1,0.4,0.3,0.6
					c0.2,0.3,0.6,0.5,1,0.7c0.8,0.4,1.8,0.6,3,0.6c1.2,0,2.1-0.2,3-0.6c0.5-0.2,0.8-0.4,1-0.7c0.2-0.2,0.3-0.5,0.3-0.8v1.6
					c0,0.6-0.5,1.1-1.3,1.4c-0.8,0.4-1.8,0.6-3,0.6c-1.2,0-2.2-0.2-3-0.6c-0.8-0.4-1.3-0.9-1.3-1.4V297.3z"/>
			</g>
		</g>
		<g>
			<polygon fill-rule="evenodd" clip-rule="evenodd" points="223,296.3 224.6,296.5 225.5,295.6 226.8,295.9 225.9,296.8 227.5,297 
				226.9,297.8 225.3,297.4 224.4,298.3 223.2,298.1 224,297.2 222.4,297 			"/>
		</g>
		<g>
			
				<radialGradient id="SVGID_102_" cx="360.6816" cy="-108.5332" r="0.7871" gradientTransform="matrix(0.3494 0.937 2.8745 -1.1117 413.2086 -159.8047)" gradientUnits="userSpaceOnUse">
				<stop  offset="0" style="stop-color:#FFFFFF"/>
				<stop  offset="0.4078" style="stop-color:#FEFEFE;stop-opacity:0.1882"/>
				<stop  offset="0.8" style="stop-color:#FEFEFE;stop-opacity:0"/>
				<stop  offset="1" style="stop-color:#FAFAFA;stop-opacity:0"/>
			</radialGradient>
			<path fill-rule="evenodd" clip-rule="evenodd" fill="url(#SVGID_102_)" d="M226.5,298.5c0.2-0.3,0.6-0.5,1.1-0.7
				c0.4-0.1,0.8-0.2,1.2-0.2c0.4,0,0.6,0.1,0.7,0.4c0.1,0.2,0,0.4-0.3,0.6c-0.3,0.3-0.7,0.5-1.1,0.6c-0.5,0.2-0.9,0.3-1.3,0.3
				s-0.6-0.1-0.6-0.3C226.1,299,226.2,298.8,226.5,298.5z"/>
		</g>
	</g>
</g>
</svg>
