<?xml version="1.0" encoding="utf-8"?>
<!-- Generator: Adobe Illustrator 16.0.0, SVG Export Plug-In . SVG Version: 6.00 Build 0)  -->
<!DOCTYPE svg PUBLIC "-//W3C//DTD SVG 1.1//EN" "http://www.w3.org/Graphics/SVG/1.1/DTD/svg11.dtd">
<svg version="1.1" id="Layer_1" xmlns="http://www.w3.org/2000/svg" xmlns:xlink="http://www.w3.org/1999/xlink" x="0px" y="0px"
	 width="700px" height="700px" viewBox="0 0 700 700" enable-background="new 0 0 700 700" xml:space="preserve">
<g>
	<g>
		<path fill-rule="evenodd" clip-rule="evenodd" fill-opacity="0.298" d="M184.4,530.2c1.1,0,1.7,0.6,1.7,1.8v15.5
			c0,0.9-0.1,1.5-0.3,1.9l-0.6,1.5c-0.1,0.1-0.1,0.2-0.2,0.3c-0.2,0.4-0.7,0.7-1.4,0.7h-29c-1.1,0-1.7-0.6-1.7-1.7v-16.3
			c0-0.1,0-0.2,0-0.3c0,0,0-0.1,0-0.1c0-0.2,0.1-0.4,0.2-0.6l0.7-1.7c0-0.1,0.1-0.2,0.1-0.2c0.2-0.5,0.7-0.7,1.4-0.7H184.4z"/>
	</g>
	<g>
		<g>
			<path fill-rule="evenodd" clip-rule="evenodd" fill="#1E1E1E" d="M153.5,531.6C153.5,531.6,153.5,531.5,153.5,531.6
				c0-0.3,0.1-0.5,0.2-0.6l0.7-1.6c0-0.1,0.1-0.2,0.1-0.2c0.2-0.5,0.7-0.7,1.4-0.7h29c1.1,0,1.7,0.6,1.7,1.7v14.7
				c0,0.8-0.1,1.4-0.3,1.8l-0.5,1.2v-15.8c0-1.1-0.6-1.7-1.7-1.7h-29C154.2,530.4,153.7,530.8,153.5,531.6z"/>
			<path fill-rule="evenodd" clip-rule="evenodd" fill="#0D0D0D" d="M185.8,547.8l-0.1,0.2c-0.1,0.1-0.1,0.2-0.2,0.3
				c-0.2,0.4-0.7,0.6-1.4,0.6h-29c-1.1,0-1.7-0.6-1.7-1.7v-15.3c0-0.1,0-0.2,0-0.3c0.2-0.8,0.8-1.2,1.7-1.3h29
				c1.1,0,1.7,0.6,1.7,1.7V547.8z"/>
		</g>
	</g>
	<g>
		<path fill-rule="evenodd" clip-rule="evenodd" d="M182.5,532.1c1.1,0,1.7,0.6,1.7,1.7V545c0,1.1-0.6,1.7-1.7,1.7h-25.2
			c-1.1,0-1.7-0.6-1.7-1.7v-11.3c0-1.1,0.6-1.7,1.7-1.7H182.5z"/>
	</g>
	<g>
		<g>
			<path fill-rule="evenodd" clip-rule="evenodd" fill="#693838" d="M179,535.3c-6.7-1.2-13.6-1.7-20.8-1.5l-0.7-0.8h25L179,535.3z"
				/>
			<polygon fill-rule="evenodd" clip-rule="evenodd" fill="#381414" points="179,546.9 179,535.3 182.5,533 182.5,545 			"/>
			
				<linearGradient id="SVGID_1_" gradientUnits="userSpaceOnUse" x1="-9.3506" y1="-2.3794" x2="15.75" y2="-2.3794" gradientTransform="matrix(-0.8294 0 0 -0.8294 171.2498 538.3495)">
				<stop  offset="0" style="stop-color:#5F1C1C"/>
				<stop  offset="0.4902" style="stop-color:#8E3E3E"/>
				<stop  offset="1" style="stop-color:#5B1313"/>
			</linearGradient>
			<path fill-rule="evenodd" clip-rule="evenodd" fill="url(#SVGID_1_)" d="M158.2,545.1v-11.2c7.2-0.3,14.2,0.2,20.8,1.5v11.6
				C171.5,545,164.6,544.3,158.2,545.1z"/>
			<polygon fill-rule="evenodd" clip-rule="evenodd" fill="#2C1010" points="158.2,533.8 158.2,545.1 157.5,543 157.5,533 			"/>
		</g>
	</g>
	<g>
		<g>
			
				<radialGradient id="SVGID_2_" cx="-9.3501" cy="1.75" r="17.65" gradientTransform="matrix(-0.8294 0 0 0.8294 171.2498 535.4465)" gradientUnits="userSpaceOnUse">
				<stop  offset="0" style="stop-color:#FFFFFF;stop-opacity:0.1765"/>
				<stop  offset="1" style="stop-color:#FAFAFA;stop-opacity:0"/>
			</radialGradient>
			<path fill-rule="evenodd" clip-rule="evenodd" fill="url(#SVGID_2_)" d="M179,535.2L179,535.2C179,535.2,178.9,535.2,179,535.2
				C178.9,535.2,179,535.2,179,535.2L179,535.2z M179.2,535.3v11.5c0,0,0,0.1,0,0.1c0,0-0.1,0-0.1,0c0,0-0.1,0-0.1,0
				c0,0,0-0.1,0-0.1v-11.5v-0.1c0,0,0,0,0,0.1c0,0,0,0,0.1,0C179.1,535.4,179.1,535.4,179.2,535.3L179.2,535.3z"/>
			
				<radialGradient id="SVGID_3_" cx="-1.9502" cy="5.3501" r="15.6" gradientTransform="matrix(-0.8294 0 0 0.6752 171.2498 530.2994)" gradientUnits="userSpaceOnUse">
				<stop  offset="0" style="stop-color:#FFFFFF;stop-opacity:0.4706"/>
				<stop  offset="1" style="stop-color:#FAFAFA;stop-opacity:0"/>
			</radialGradient>
			<path fill-rule="evenodd" clip-rule="evenodd" fill="url(#SVGID_3_)" d="M179,535.2L179,535.2C179,535.2,178.9,535.2,179,535.2
				l-0.1,0.1v0.1c-6.7-1.3-13.6-1.8-20.6-1.4v-0.1c0,0,0-0.1,0-0.1c0,0,0,0-0.1,0C165.4,533.4,172.3,533.9,179,535.2z"/>
			
				<radialGradient id="SVGID_4_" cx="-10.25" cy="4.25" r="3.7375" gradientTransform="matrix(-0.8294 0 0 0.8294 171.2498 531.2994)" gradientUnits="userSpaceOnUse">
				<stop  offset="0" style="stop-color:#FFFFFF;stop-opacity:0.2118"/>
				<stop  offset="1" style="stop-color:#FAFAFA;stop-opacity:0"/>
			</radialGradient>
			<path fill-rule="evenodd" clip-rule="evenodd" fill="url(#SVGID_4_)" d="M179,535.2l3.5-2.3c0,0,0.1,0,0.1,0c0,0,0,0,0.1,0
				c0,0,0,0.1,0,0.1c0,0,0,0,0,0.1l-3.4,2.3l0,0c0,0-0.1,0-0.1,0c0,0,0,0-0.1,0c0,0,0,0,0-0.1L179,535.2
				C178.9,535.2,179,535.2,179,535.2L179,535.2z"/>
			
				<radialGradient id="SVGID_5_" cx="15.7002" cy="-1.2002" r="6.7" gradientTransform="matrix(-0.8294 0 0 0.8294 171.2498 540.3405)" gradientUnits="userSpaceOnUse">
				<stop  offset="0" style="stop-color:#FFFFFF;stop-opacity:0.3373"/>
				<stop  offset="1" style="stop-color:#FAFAFA;stop-opacity:0"/>
			</radialGradient>
			<path fill-rule="evenodd" clip-rule="evenodd" fill="url(#SVGID_5_)" d="M158.2,533.7C158.3,533.7,158.3,533.7,158.2,533.7
				c0.1,0,0.1,0.1,0.1,0.1v0.1v10.9c0,0,0,0.1,0,0.1c0,0-0.1,0-0.1,0c0,0-0.1,0-0.1,0c0,0,0-0.1,0-0.1v-11c0,0,0,0,0-0.1
				C158.2,533.7,158.2,533.7,158.2,533.7L158.2,533.7z"/>
		</g>
	</g>
	<g>
		<g>
			<path fill-rule="evenodd" clip-rule="evenodd" fill="#FFFFFF" fill-opacity="0.4902" d="M175.7,539.4c-0.2-0.3-0.6-0.4-1.1-0.5
				c-0.5,0-0.9,0.1-1.1,0.4c-0.3,0.3-0.4,0.7-0.5,1.3c0,0.6,0.1,1,0.4,1.3c0.2,0.3,0.6,0.4,1.1,0.5c0.5,0,0.8-0.1,1.1-0.4
				c0.3-0.3,0.4-0.7,0.5-1.2C176.1,540.2,176,539.7,175.7,539.4z M176.3,542.5c-0.5,0.4-1.1,0.6-1.8,0.5c-0.7,0-1.3-0.3-1.8-0.7
				c-0.4-0.4-0.6-1-0.6-1.7c0-0.7,0.3-1.3,0.7-1.7c0.5-0.4,1.1-0.6,1.8-0.6c0.7,0,1.3,0.3,1.8,0.7c0.5,0.4,0.7,1,0.7,1.8
				C177,541.5,176.8,542.1,176.3,542.5z"/>
			<path fill-rule="evenodd" clip-rule="evenodd" fill="#FFFFFF" fill-opacity="0.5255" d="M165.6,540c0,0.1,0,0.2-0.1,0.3
				c-0.1,0.1-0.2,0.1-0.3,0.1l-4.4-0.1c-0.1,0-0.2,0-0.3-0.1c-0.1-0.1-0.1-0.2-0.1-0.3c0-0.1,0-0.2,0.1-0.3c0.1-0.1,0.2-0.1,0.3-0.1
				l4.4,0.1c0.1,0,0.2,0,0.3,0.1C165.5,539.8,165.6,539.9,165.6,540z"/>
		</g>
	</g>
	<g>
		<path fill-rule="evenodd" clip-rule="evenodd" d="M201.6,539.5h-2.2v0.9h2v0.9h-2v2h-1.2v-4.7h3.4V539.5z M197.2,541.3h-2v2H194
			v-4.7h3.4v0.9h-2.2v0.9h2V541.3z M192.4,542.7c-0.4,0.4-1,0.7-1.8,0.7c-0.8,0-1.4-0.2-1.8-0.7c-0.4-0.4-0.7-1-0.7-1.8
			c0-0.8,0.2-1.4,0.7-1.8c0.4-0.4,1-0.7,1.8-0.7c0.7,0,1.3,0.2,1.8,0.7s0.7,1.1,0.7,1.8C193,541.7,192.8,542.3,192.4,542.7z
			 M190.6,539.3c-0.2,0-0.3,0-0.5,0.1c-0.1,0.1-0.3,0.1-0.4,0.3c-0.1,0.1-0.2,0.3-0.2,0.5c-0.1,0.2-0.1,0.5-0.1,0.7
			c0,0.3,0,0.5,0.1,0.7c0.1,0.2,0.1,0.4,0.2,0.5c0.1,0.1,0.2,0.2,0.4,0.3c0.1,0.1,0.3,0.1,0.5,0.1c0.2,0,0.3,0,0.5-0.1
			c0.1-0.1,0.3-0.2,0.4-0.3c0.1-0.1,0.2-0.3,0.2-0.5c0.1-0.2,0.1-0.5,0.1-0.7c0-0.3,0-0.5-0.1-0.7c-0.1-0.2-0.2-0.3-0.2-0.5
			c-0.1-0.1-0.2-0.2-0.4-0.3C190.9,539.4,190.7,539.3,190.6,539.3z M151.5,543.3h-1.2l-2-3.2v3.2h-1.1v-4.7h1.5l1.7,2.7v-2.7h1.1
			V543.3z M144.6,539.7c-0.1-0.1-0.2-0.2-0.4-0.3c-0.2-0.1-0.3-0.1-0.5-0.1c-0.2,0-0.3,0-0.5,0.1c-0.1,0.1-0.3,0.1-0.4,0.3
			c-0.1,0.1-0.2,0.3-0.2,0.5c-0.1,0.2-0.1,0.5-0.1,0.7c0,0.3,0,0.5,0.1,0.7c0.1,0.2,0.1,0.4,0.2,0.5c0.1,0.1,0.2,0.2,0.4,0.3
			c0.1,0.1,0.3,0.1,0.5,0.1c0.2,0,0.3,0,0.5-0.1c0.1-0.1,0.3-0.2,0.4-0.3c0.1-0.1,0.2-0.3,0.2-0.5c0.1-0.2,0.1-0.5,0.1-0.7
			c0-0.3,0-0.5-0.1-0.7C144.8,540,144.7,539.8,144.6,539.7z M143.8,538.4c0.7,0,1.3,0.2,1.8,0.7c0.4,0.4,0.7,1.1,0.7,1.8
			c0,0.7-0.2,1.3-0.7,1.8c-0.4,0.4-1,0.7-1.8,0.7c-0.8,0-1.4-0.2-1.8-0.7c-0.4-0.4-0.7-1-0.7-1.8c0-0.8,0.2-1.4,0.7-1.8
			C142.4,538.7,143,538.4,143.8,538.4z"/>
	</g>
	<g>
		<g>
			
				<radialGradient id="SVGID_6_" cx="17.75" cy="-3.7002" r="9.5" gradientTransform="matrix(0.8294 0 0 0.8294 171.2502 538.3497)" gradientUnits="userSpaceOnUse">
				<stop  offset="0" style="stop-color:#FFFFFF;stop-opacity:0.2118"/>
				<stop  offset="1" style="stop-color:#FAFAFA;stop-opacity:0"/>
			</radialGradient>
			<path fill-rule="evenodd" clip-rule="evenodd" fill="url(#SVGID_6_)" d="M185.9,530.9c0.1,0,0.1,0,0.2,0.1c0,0,0,0.1,0,0.1v15.7
				c0,0.1,0,0.1,0,0.2c-0.1,0-0.1,0-0.2,0c-0.1,0-0.1,0-0.1,0c-0.1-0.1-0.1-0.1-0.1-0.2v-15.7c0-0.1,0-0.1,0.1-0.1
				C185.8,531,185.8,530.9,185.9,530.9z"/>
			
				<radialGradient id="SVGID_7_" cx="-2.0752" cy="-9.8999" r="17.4752" gradientTransform="matrix(0.8294 0 0 0.8294 171.2502 538.3497)" gradientUnits="userSpaceOnUse">
				<stop  offset="0" style="stop-color:#FFFFFF;stop-opacity:0.2118"/>
				<stop  offset="1" style="stop-color:#FAFAFA;stop-opacity:0"/>
			</radialGradient>
			<path fill-rule="evenodd" clip-rule="evenodd" fill="url(#SVGID_7_)" d="M184.1,530.1c0,0.1,0,0.1,0,0.2c-0.1,0-0.1,0-0.2,0
				h-28.8c-0.1,0-0.1,0-0.1,0c-0.1-0.1-0.1-0.1-0.1-0.2s0-0.1,0.1-0.1c0-0.1,0.1-0.1,0.1-0.1h28.8c0.1,0,0.1,0,0.2,0.1
				C184.1,530,184.1,530.1,184.1,530.1z"/>
		</g>
	</g>
	<g>
		
			<radialGradient id="SVGID_8_" cx="16.6001" cy="-9.5488" r="1.747" gradientTransform="matrix(0.4155 -0.7179 0.902 0.522 186.7347 547.3309)" gradientUnits="userSpaceOnUse">
			<stop  offset="0" style="stop-color:#FFFFFF"/>
			<stop  offset="0.1765" style="stop-color:#FFFFFF"/>
			<stop  offset="0.3059" style="stop-color:#FFFFFF;stop-opacity:0.4235"/>
			<stop  offset="0.4902" style="stop-color:#FFFFFF;stop-opacity:0.2314"/>
			<stop  offset="0.651" style="stop-color:#FFFFFF;stop-opacity:8.235294e-002"/>
			<stop  offset="1" style="stop-color:#FFFFFF;stop-opacity:0"/>
		</radialGradient>
		<path fill-rule="evenodd" clip-rule="evenodd" fill="url(#SVGID_8_)" d="M184.3,531.7c-0.4-0.3-0.7-0.6-0.9-1
			c-0.2-0.4-0.2-0.8,0-1.1c0.2-0.3,0.5-0.5,1-0.6c0.4-0.1,0.9,0,1.3,0.2c0.4,0.2,0.7,0.6,0.9,1c0.2,0.4,0.2,0.8,0,1.2
			c-0.2,0.3-0.5,0.5-1,0.6C185.2,532,184.8,531.9,184.3,531.7z"/>
	</g>
</g>
</svg>
